%FSAX42Y42*%
%MOMM*%
G71*
G01*
G75*
G04 Layer_Physical_Order=4*
G04 Layer_Color=16711680*
%ADD10C,0.30*%
%ADD11C,1.00*%
%ADD12C,1.50*%
%ADD13O,2.50X1.20*%
%ADD14R,2.50X1.20*%
%ADD15C,1.35*%
%ADD16R,1.35X1.35*%
%ADD17C,1.52*%
%ADD18C,2.00*%
%ADD19C,2.03*%
%ADD20C,1.50*%
%ADD21C,1.40*%
%ADD22O,1.20X2.50*%
%ADD23R,1.20X2.50*%
%ADD24C,1.20*%
%ADD25R,1.20X1.22*%
%ADD26R,2.54X1.27*%
%ADD27O,2.54X1.27*%
%ADD28C,2.50*%
%ADD29C,1.00*%
%ADD30R,1.80X1.80*%
%ADD31R,1.35X1.35*%
%ADD32R,2.03X2.03*%
%ADD33R,1.27X1.27*%
%ADD34O,3.00X4.00*%
%ADD35C,4.50*%
%ADD36C,1.02*%
%ADD37C,1.73*%
G04:AMPARAMS|DCode=38|XSize=2.235mm|YSize=2.235mm|CornerRadius=0mm|HoleSize=0mm|Usage=FLASHONLY|Rotation=0.000|XOffset=0mm|YOffset=0mm|HoleType=Round|Shape=Relief|Width=0.25mm|Gap=0.25mm|Entries=4|*
%AMTHD38*
7,0,0,2.23,1.73,0.25,45*
%
%ADD38THD38*%
G04:AMPARAMS|DCode=39|XSize=2.324mm|YSize=2.324mm|CornerRadius=0mm|HoleSize=0mm|Usage=FLASHONLY|Rotation=0.000|XOffset=0mm|YOffset=0mm|HoleType=Round|Shape=Relief|Width=0.25mm|Gap=0.25mm|Entries=4|*
%AMTHD39*
7,0,0,2.32,1.82,0.25,45*
%
%ADD39THD39*%
%ADD40C,1.82*%
%ADD41C,1.78*%
G04:AMPARAMS|DCode=42|XSize=2.286mm|YSize=2.286mm|CornerRadius=0mm|HoleSize=0mm|Usage=FLASHONLY|Rotation=0.000|XOffset=0mm|YOffset=0mm|HoleType=Round|Shape=Relief|Width=0.25mm|Gap=0.25mm|Entries=4|*
%AMTHD42*
7,0,0,2.29,1.78,0.25,45*
%
%ADD42THD42*%
%ADD43C,2.17*%
G04:AMPARAMS|DCode=44|XSize=2.674mm|YSize=2.674mm|CornerRadius=0mm|HoleSize=0mm|Usage=FLASHONLY|Rotation=0.000|XOffset=0mm|YOffset=0mm|HoleType=Round|Shape=Relief|Width=0.25mm|Gap=0.25mm|Entries=4|*
%AMTHD44*
7,0,0,2.67,2.17,0.25,45*
%
%ADD44THD44*%
%ADD45C,2.02*%
G04:AMPARAMS|DCode=46|XSize=2.524mm|YSize=2.524mm|CornerRadius=0mm|HoleSize=0mm|Usage=FLASHONLY|Rotation=0.000|XOffset=0mm|YOffset=0mm|HoleType=Round|Shape=Relief|Width=0.25mm|Gap=0.25mm|Entries=4|*
%AMTHD46*
7,0,0,2.52,2.02,0.25,45*
%
%ADD46THD46*%
G04:AMPARAMS|DCode=47|XSize=2.424mm|YSize=2.424mm|CornerRadius=0mm|HoleSize=0mm|Usage=FLASHONLY|Rotation=0.000|XOffset=0mm|YOffset=0mm|HoleType=Round|Shape=Relief|Width=0.25mm|Gap=0.25mm|Entries=4|*
%AMTHD47*
7,0,0,2.42,1.92,0.25,45*
%
%ADD47THD47*%
%ADD48C,1.92*%
%ADD49C,1.87*%
G04:AMPARAMS|DCode=50|XSize=2.374mm|YSize=2.374mm|CornerRadius=0mm|HoleSize=0mm|Usage=FLASHONLY|Rotation=0.000|XOffset=0mm|YOffset=0mm|HoleType=Round|Shape=Relief|Width=0.25mm|Gap=0.25mm|Entries=4|*
%AMTHD50*
7,0,0,2.37,1.87,0.25,45*
%
%ADD50THD50*%
%ADD51C,1.73*%
G04:AMPARAMS|DCode=52|XSize=2.2352mm|YSize=2.2352mm|CornerRadius=0mm|HoleSize=0mm|Usage=FLASHONLY|Rotation=0.000|XOffset=0mm|YOffset=0mm|HoleType=Round|Shape=Relief|Width=0.25mm|Gap=0.25mm|Entries=4|*
%AMTHD52*
7,0,0,2.24,1.73,0.25,45*
%
%ADD52THD52*%
%ADD53C,2.37*%
G04:AMPARAMS|DCode=54|XSize=2.874mm|YSize=2.874mm|CornerRadius=0mm|HoleSize=0mm|Usage=FLASHONLY|Rotation=0.000|XOffset=0mm|YOffset=0mm|HoleType=Round|Shape=Relief|Width=0.25mm|Gap=0.25mm|Entries=4|*
%AMTHD54*
7,0,0,2.87,2.37,0.25,45*
%
%ADD54THD54*%
%ADD55C,1.62*%
G04:AMPARAMS|DCode=56|XSize=2.124mm|YSize=2.124mm|CornerRadius=0mm|HoleSize=0mm|Usage=FLASHONLY|Rotation=0.000|XOffset=0mm|YOffset=0mm|HoleType=Round|Shape=Relief|Width=0.25mm|Gap=0.25mm|Entries=4|*
%AMTHD56*
7,0,0,2.12,1.62,0.25,45*
%
%ADD56THD56*%
%ADD57R,2.17X2.17*%
%ADD58R,1.87X1.87*%
%ADD59C,2.77*%
%ADD60C,5.02*%
%ADD61R,2.02X2.02*%
G04:AMPARAMS|DCode=62|XSize=2.674mm|YSize=2.674mm|CornerRadius=0mm|HoleSize=0mm|Usage=FLASHONLY|Rotation=270.000|XOffset=0mm|YOffset=0mm|HoleType=Square|Shape=SquareRelief|Width=0.25mm|Gap=0.25mm|Entries=4|*
%AMTHSQ62*
5,1,4,0,0,3.78,315.0*
5,0,4,0,0,3.06,315.0*
21,0,3.78,0.25,0,0,315.0*
21,0,3.78,0.25,0,0,405.0*
%
%ADD62THSQ62*%

G04:AMPARAMS|DCode=63|XSize=2.524mm|YSize=2.524mm|CornerRadius=0mm|HoleSize=0mm|Usage=FLASHONLY|Rotation=270.000|XOffset=0mm|YOffset=0mm|HoleType=Square|Shape=SquareRelief|Width=0.25mm|Gap=0.25mm|Entries=4|*
%AMTHSQ63*
5,1,4,0,0,3.57,315.0*
5,0,4,0,0,2.85,315.0*
21,0,3.57,0.25,0,0,315.0*
21,0,3.57,0.25,0,0,405.0*
%
%ADD63THSQ63*%

G04:AMPARAMS|DCode=64|XSize=2.524mm|YSize=2.524mm|CornerRadius=0mm|HoleSize=0mm|Usage=FLASHONLY|Rotation=90.000|XOffset=0mm|YOffset=0mm|HoleType=Square|Shape=SquareRelief|Width=0.25mm|Gap=0.25mm|Entries=4|*
%AMTHSQ64*
5,1,4,0,0,3.57,135.0*
5,0,4,0,0,2.85,135.0*
21,0,3.57,0.25,0,0,135.0*
21,0,3.57,0.25,0,0,225.0*
%
%ADD64THSQ64*%

D10*
X011680Y010224D02*
X013614D01*
X013932Y010541D01*
X011472Y010757D02*
X011637Y010922D01*
X015481D02*
X015608Y011049D01*
X015438Y011196D02*
X015687D01*
X015778Y011105D01*
X008598Y010090D02*
X008839Y009849D01*
X008598Y010090D02*
Y010897D01*
X008724Y011023D01*
Y011027D01*
X008899Y011201D01*
X008979D01*
X009246Y010935D01*
X010820D01*
X011252Y010503D01*
X012116D01*
X012408Y010795D01*
X012932D01*
X008115Y012890D02*
X012581D01*
X008001Y012776D02*
X008115Y012890D01*
X009335Y011049D02*
X009503D01*
X008839Y011544D02*
X009335Y011049D01*
X012471Y009423D02*
Y009601D01*
X012243Y009830D02*
X012471Y009601D01*
X008944Y010110D02*
X010500D01*
X008724Y010330D02*
X008944Y010110D01*
X008724Y010330D02*
Y010864D01*
X008839Y010979D01*
X008915Y010224D02*
X010915D01*
X008839Y010300D02*
X008915Y010224D01*
X008839Y010300D02*
Y010414D01*
X011243Y010338D02*
X011481D01*
X012243Y009576D01*
X010915Y010224D02*
X011134Y010443D01*
X011461D02*
X011680Y010224D01*
X011134Y010443D02*
X011461D01*
X012294Y009246D02*
X012471Y009423D01*
X010401Y008801D02*
X015181D01*
X009969Y009233D02*
X010401Y008801D01*
X011792Y009246D02*
X012294D01*
X013622Y005504D02*
X016684D01*
X013335Y005791D02*
X013622Y005504D01*
X010500Y010110D02*
X010526Y010084D01*
X011243D01*
X015778Y010566D02*
Y011105D01*
X015753Y010541D02*
X015778Y010566D01*
X015331Y011303D02*
X015438Y011196D01*
X014608Y011303D02*
X015331D01*
X023079Y008184D02*
X023199D01*
X022884Y007988D02*
X023079Y008184D01*
X023199D02*
X023535Y007849D01*
X016713Y007988D02*
X022884D01*
X023535Y007849D02*
X027631D01*
X016893Y005296D02*
X028283D01*
X016684Y005504D02*
X016893Y005296D01*
X028283D02*
X029820Y006833D01*
X027631Y007849D02*
X027860Y008077D01*
X006375Y012298D02*
X006502Y012425D01*
X006375Y012192D02*
Y012298D01*
X006502Y012425D02*
Y012783D01*
X006375Y012910D02*
X006502Y012783D01*
X006629Y012192D02*
Y012941D01*
X005639Y011201D02*
X006629Y012192D01*
X006689Y012493D02*
X006972Y012776D01*
X006689Y012167D02*
Y012493D01*
X005760Y011238D02*
X006689Y012167D01*
X007081Y012160D02*
X007443Y012522D01*
X007029Y012160D02*
X007081D01*
X006007Y011138D02*
X007029Y012160D01*
X017018Y015621D02*
X017704D01*
X006160Y017818D02*
X006375Y018034D01*
X006160Y017488D02*
Y017818D01*
Y017488D02*
X006375Y017272D01*
X018400Y013700D02*
X018914D01*
X020066Y012548D01*
X023940D01*
X024193Y012294D01*
Y011417D02*
Y012294D01*
X023990Y011214D02*
X024193Y011417D01*
X023736Y011214D02*
X023990D01*
X023647Y011125D02*
X023736Y011214D01*
X023647Y009258D02*
Y011125D01*
Y009258D02*
X023854Y009052D01*
Y008767D02*
Y009052D01*
X020336Y012608D02*
X024002D01*
X019406Y013538D02*
X020336Y012608D01*
X020358Y012675D02*
X024020D01*
X024002Y012608D02*
X024266Y012344D01*
X024020Y012675D02*
X024359Y012336D01*
Y011413D02*
Y012336D01*
X024266Y011405D02*
Y012344D01*
X023925Y011078D02*
X024024D01*
X023775Y011152D02*
X024013D01*
X024266Y011405D01*
X024024Y011078D02*
X024359Y011413D01*
X023709Y010947D02*
Y011085D01*
X023775Y011152D01*
X023709Y010947D02*
X023854Y010802D01*
X019113Y015608D02*
X019406Y015316D01*
Y013538D02*
Y015316D01*
X023854Y010257D02*
Y010802D01*
Y011007D02*
X023925Y011078D01*
X019800Y013233D02*
Y013700D01*
Y013233D02*
X020358Y012675D01*
X016624Y007899D02*
X016713Y007988D01*
X027860Y008077D02*
X028105D01*
X023139Y008039D02*
X023571Y007607D01*
X028105Y008077D02*
X028296Y008268D01*
X018766Y007754D02*
X020754Y005766D01*
X022307Y005737D02*
X022322D01*
X025933Y005766D02*
X026060Y005893D01*
X009620Y009233D02*
X009874D01*
X015608Y010541D02*
X015753D01*
X009855Y009995D02*
X010223D01*
X015905Y014181D02*
X016154Y013932D01*
X015740Y014181D02*
X015905D01*
X015697Y014224D02*
X015740Y014181D01*
X015697Y014224D02*
Y014351D01*
X005639Y008369D02*
Y008378D01*
Y007353D02*
X006083Y007798D01*
Y008738D01*
X006490Y009144D01*
Y010170D01*
X006727Y010408D01*
Y007426D02*
Y009271D01*
X005639Y006337D02*
X006727Y007426D01*
Y011544D02*
X007065D01*
X007145Y011624D01*
X007583D01*
X007688Y011519D01*
X008052D01*
X008077Y011544D01*
X022322Y005737D02*
X022351Y005766D01*
X025933D01*
X022307Y005722D02*
Y005737D01*
X021970Y005766D02*
X021999Y005737D01*
X022014D01*
Y005722D02*
Y005737D01*
Y005722D02*
X022040Y005695D01*
X022281D01*
X022307Y005722D01*
X020754Y005766D02*
X021970D01*
X028854Y009817D02*
X029604Y010566D01*
X028854Y009081D02*
Y009817D01*
X028296Y008268D02*
Y008522D01*
X028854Y009081D01*
X023571Y007607D02*
X028156D01*
X029604Y009055D01*
X028050Y006312D02*
X029604Y007866D01*
X024359Y006312D02*
X028050D01*
X023940Y005893D02*
X024359Y006312D01*
X014808Y014732D02*
X015189Y015113D01*
X012751Y014732D02*
X014808D01*
X008056Y012916D02*
X008199Y013059D01*
X014912Y013055D02*
X015027Y013170D01*
X015187D01*
X015536Y012874D02*
X015832Y013170D01*
X012646Y012997D02*
X012707Y013059D01*
X012794D01*
X012707Y013313D02*
X012794D01*
X012707Y013567D02*
X012794D01*
X013191Y013170D02*
X014541D01*
X012310D02*
X012707Y013567D01*
X012794D02*
X013191Y013170D01*
X008199Y013059D02*
X012453D01*
X013052Y013055D02*
X014912D01*
X012453Y013059D02*
X012707Y013313D01*
X012794D02*
X013052Y013055D01*
X012581Y012890D02*
X012646Y012955D01*
Y012997D01*
X012794Y013059D02*
X012979Y012874D01*
X015536D01*
X007734Y012776D02*
X008001D01*
X006972Y012522D02*
X007366Y012916D01*
X008056D01*
X007341Y013170D02*
X012310D01*
X012646Y017019D02*
Y017061D01*
X012707Y017123D01*
X012830D01*
X016027Y020320D01*
X011058Y015430D02*
X012646Y017019D01*
X011150Y015213D02*
X012087Y016151D01*
X012794D01*
X013547Y016904D01*
X017158D01*
X019113Y018860D01*
Y019901D01*
X018745Y020269D02*
X019113Y019901D01*
X007379Y015380D02*
X007623Y015135D01*
X013243D01*
X013970Y015862D01*
X017755D01*
X020066Y018174D01*
Y020269D01*
X006375Y017272D02*
X007150D01*
X007722Y016701D01*
X007550Y015322D02*
X007658Y015213D01*
X011150D01*
X007722Y015430D02*
X011058D01*
X007550Y015322D02*
Y015766D01*
X007722Y015938D01*
X007379Y015380D02*
Y016104D01*
X007722Y016446D01*
X006375Y014986D02*
X006788Y015398D01*
Y015766D01*
X006960Y015938D01*
X006109Y014237D02*
X006375Y013970D01*
X006109Y014237D02*
Y015913D01*
X006347Y016151D01*
X006714Y016446D02*
X006960D01*
X006007Y013322D02*
X006375Y012954D01*
Y012910D02*
Y012954D01*
Y013208D02*
Y013314D01*
X006270Y013419D02*
X006375Y013314D01*
Y013926D02*
Y013970D01*
Y015240D02*
Y015346D01*
X006270Y015853D02*
X006375Y015958D01*
Y016002D01*
X006540Y016954D02*
X006960D01*
X006007Y016544D02*
X006332Y016869D01*
X006455D01*
X006540Y016954D01*
X006347Y016151D02*
X006419D01*
X006714Y016446D01*
X006007Y013322D02*
Y016544D01*
X006270Y013419D02*
Y013821D01*
X006375Y013926D01*
X015507Y013817D02*
X016154Y013170D01*
X014494Y013817D02*
X015507D01*
X014480Y013830D02*
X014494Y013817D01*
X008280Y013830D02*
X014480D01*
X007734Y013284D02*
X008280Y013830D01*
X005639Y008378D02*
X006067Y008806D01*
X006553Y011544D02*
X006727D01*
X007443Y012522D02*
X007734D01*
X006067Y008806D02*
Y011058D01*
X006972Y013538D02*
X007341Y013170D01*
X005639Y011189D02*
Y011201D01*
X006629Y012941D02*
X006972Y013284D01*
X006067Y011058D02*
X006553Y011544D01*
X029604Y009055D02*
Y009322D01*
X029820Y006833D02*
Y009309D01*
X029750Y009378D02*
X029820Y009309D01*
X029750Y009378D02*
Y009383D01*
X029604Y009530D02*
X029750Y009383D01*
X029604Y009530D02*
Y010279D01*
Y010566D02*
Y010779D01*
X009874Y009233D02*
X009969D01*
X016227Y007754D02*
X018766D01*
X015181Y008801D02*
X016227Y007754D01*
X015399Y009258D02*
Y009696D01*
X015075Y010020D02*
X015399Y009696D01*
X011637Y010922D02*
X015481D01*
X006210Y014821D02*
X006375Y014986D01*
X006210Y014453D02*
Y014821D01*
Y014453D02*
X006375Y014288D01*
Y014224D02*
Y014288D01*
X006270Y015451D02*
X006375Y015346D01*
X006270Y015451D02*
Y015853D01*
X005639Y010681D02*
X005760Y010802D01*
Y011238D01*
X006007Y010795D02*
Y011138D01*
X005639Y010427D02*
X006007Y010795D01*
D11*
X017011Y008395D02*
X023851D01*
X006914Y005359D02*
Y005524D01*
X006431Y006007D02*
X006914Y005524D01*
X005753Y006007D02*
X006431D01*
X005579Y006181D02*
X005753Y006007D01*
X005574Y006181D02*
X005579D01*
X005375Y006380D02*
X005574Y006181D01*
X005375Y006380D02*
Y012268D01*
X005553Y012446D01*
X006375D01*
X023851Y008395D02*
X025121Y009665D01*
X016614Y008792D02*
X017011Y008395D01*
X026262Y011798D02*
X027013D01*
X025387Y010173D02*
X027013Y011798D01*
X025273Y010173D02*
X025387D01*
X025121Y010020D02*
X025273Y010173D01*
X025121Y009665D02*
Y010020D01*
X016614Y008767D02*
Y008792D01*
X026973Y009461D02*
Y009873D01*
X027197Y010096D01*
X026262Y010630D02*
X026947D01*
X027851Y011798D02*
X028562D01*
X027851Y010630D02*
X028562D01*
X027197Y010096D02*
X028702D01*
X027851Y009461D02*
X028562D01*
X023660Y013428D02*
X024248Y012840D01*
X028816D01*
X028702Y010096D02*
X028956Y010350D01*
Y012700D01*
X028816Y012840D02*
X028956Y012700D01*
D12*
X015923Y021778D02*
X016027Y021673D01*
Y021420D02*
Y021673D01*
X013576Y021857D02*
X014453Y020980D01*
X013576Y021857D02*
Y021895D01*
X023325Y022924D02*
X023440Y023038D01*
X020521Y022035D02*
X020762Y021793D01*
X020521Y022035D02*
Y022263D01*
X020726Y022924D02*
X023325D01*
X020333Y022530D02*
X020726Y022924D01*
X019253Y022530D02*
X020333D01*
X018834Y022949D02*
X019253Y022530D01*
X018580Y022949D02*
X018834D01*
X009022Y021844D02*
X009936Y022758D01*
X010143D01*
X016027Y021420D02*
X016281D01*
X011392Y022804D02*
X011397D01*
X011684Y022517D01*
Y021857D02*
Y022517D01*
X011582Y021755D02*
X011684Y021857D01*
X011582Y021572D02*
Y021755D01*
Y021572D02*
X011836D01*
X008458Y022390D02*
X008776Y022073D01*
Y021318D02*
Y022073D01*
Y021318D02*
X009030D01*
X021692Y019660D02*
Y020439D01*
X021506Y020625D02*
X021692Y020439D01*
X021506Y021234D02*
X022153Y021882D01*
X021506Y020625D02*
Y021234D01*
X020574Y021369D02*
X020761D01*
X021506Y020625D01*
X021692Y019152D02*
X021869D01*
X022111Y019393D01*
Y020714D01*
X016891Y019202D02*
Y019223D01*
X016711Y019403D02*
X016891Y019223D01*
X015773Y021419D02*
Y021420D01*
X014892D02*
X015773D01*
X014453Y020980D02*
X014892Y021420D01*
X014008Y019749D02*
Y019990D01*
X013213Y020785D02*
X014008Y019990D01*
X013213Y020785D02*
Y021222D01*
X011951Y021958D02*
X012090Y021818D01*
Y021572D02*
Y021818D01*
X012862Y021572D02*
X013213Y021222D01*
X012090Y021572D02*
X012862D01*
X008522Y021318D02*
Y021318D01*
Y021318D02*
X009139Y020701D01*
X010058D01*
X006147Y020803D02*
Y021018D01*
X005550Y021615D02*
X006147Y021018D01*
X005809Y021857D02*
X006282D01*
X005550Y022115D02*
X005809Y021857D01*
X006147Y020803D02*
X006571D01*
X007099Y021331D01*
X016711Y019403D02*
Y020482D01*
X016891Y019710D02*
Y021064D01*
X016535Y021420D02*
X016891Y021064D01*
X015773Y021419D02*
X016711Y020482D01*
X018098Y019926D02*
X018821Y019202D01*
X018098Y019926D02*
Y020975D01*
X018491Y021369D01*
X019032Y021590D02*
X019253Y021369D01*
X018851Y021590D02*
X019032D01*
X018263Y022179D02*
X018851Y021590D01*
X018263Y021598D02*
X018491Y021369D01*
X018263Y021598D02*
Y021679D01*
X017145D02*
X018263D01*
X016929Y021895D02*
X017145Y021679D01*
D13*
X011243Y010338D02*
D03*
Y010084D02*
D03*
Y009830D02*
D03*
Y009576D02*
D03*
X012243Y010338D02*
D03*
Y010084D02*
D03*
Y009830D02*
D03*
X014608Y011303D02*
D03*
Y011049D02*
D03*
Y010795D02*
D03*
Y010541D02*
D03*
X015608Y011303D02*
D03*
Y011049D02*
D03*
Y010795D02*
D03*
X009503Y011303D02*
D03*
Y011049D02*
D03*
Y010795D02*
D03*
Y010541D02*
D03*
X010503Y011303D02*
D03*
Y011049D02*
D03*
Y010795D02*
D03*
X012932Y011303D02*
D03*
Y011049D02*
D03*
Y010795D02*
D03*
Y010541D02*
D03*
X013932Y011303D02*
D03*
Y011049D02*
D03*
Y010795D02*
D03*
D14*
X012243Y009576D02*
D03*
X015608Y010541D02*
D03*
X010503D02*
D03*
X013932D02*
D03*
D15*
X011972Y010757D02*
D03*
X006227Y011544D02*
D03*
Y010976D02*
D03*
Y010408D02*
D03*
Y009839D02*
D03*
Y009271D02*
D03*
X007052Y017564D02*
D03*
X014135Y012158D02*
D03*
X015862D02*
D03*
X014364Y009580D02*
D03*
X010744Y009915D02*
D03*
X008010Y014300D02*
D03*
X006960Y014482D02*
D03*
D16*
X011472Y010757D02*
D03*
X006727Y011544D02*
D03*
Y010976D02*
D03*
Y010408D02*
D03*
Y009839D02*
D03*
Y009271D02*
D03*
X007553Y017564D02*
D03*
X007510Y014300D02*
D03*
D17*
X019253Y016332D02*
D03*
X019753D02*
D03*
X019990Y017374D02*
D03*
X020490D02*
D03*
X015164Y017450D02*
D03*
X015664D02*
D03*
X026594Y023025D02*
D03*
Y022525D02*
D03*
X005639Y009411D02*
D03*
Y009665D02*
D03*
Y009919D02*
D03*
Y010173D02*
D03*
Y011443D02*
D03*
Y010427D02*
D03*
Y010681D02*
D03*
Y010935D02*
D03*
Y011189D02*
D03*
Y011697D02*
D03*
X008141Y019266D02*
D03*
Y019766D02*
D03*
X006147Y020803D02*
D03*
X005647D02*
D03*
X013576Y021895D02*
D03*
X014076D02*
D03*
X012713Y020980D02*
D03*
X013213D02*
D03*
X013056Y019710D02*
D03*
X012556D02*
D03*
X014859Y021869D02*
D03*
X015359D02*
D03*
X010071Y020701D02*
D03*
X010571D02*
D03*
X010643Y022758D02*
D03*
X010143D02*
D03*
X006782Y021857D02*
D03*
X006282D02*
D03*
X016929Y021895D02*
D03*
X017429D02*
D03*
X017374Y020574D02*
D03*
X017874D02*
D03*
X021654Y021882D02*
D03*
X022153D02*
D03*
X022111Y020714D02*
D03*
X022611D02*
D03*
X024892Y012217D02*
D03*
X025392D02*
D03*
X025171Y011138D02*
D03*
Y010638D02*
D03*
X024930Y009068D02*
D03*
X025430D02*
D03*
X017742Y005728D02*
D03*
Y006228D02*
D03*
X017488Y007404D02*
D03*
X017988D02*
D03*
X009360Y008230D02*
D03*
X009860D02*
D03*
X009639Y006655D02*
D03*
Y007155D02*
D03*
X005639Y006337D02*
D03*
Y006591D02*
D03*
Y006845D02*
D03*
Y007099D02*
D03*
Y008369D02*
D03*
Y007353D02*
D03*
Y007607D02*
D03*
Y007861D02*
D03*
Y008115D02*
D03*
Y008623D02*
D03*
D18*
X023139Y005499D02*
D03*
Y008039D02*
D03*
X027051Y008166D02*
D03*
Y005466D02*
D03*
X016614Y008767D02*
D03*
X023854D02*
D03*
Y011747D02*
D03*
Y010257D02*
D03*
Y011007D02*
D03*
Y009507D02*
D03*
X016624Y005359D02*
D03*
Y007899D02*
D03*
D19*
X008581Y023038D02*
D03*
X009081D02*
D03*
X007272D02*
D03*
X007772D02*
D03*
X024735D02*
D03*
X025235D02*
D03*
X023440D02*
D03*
X023940D02*
D03*
X016226D02*
D03*
X016726D02*
D03*
X014931D02*
D03*
X015430D02*
D03*
X029604Y011735D02*
D03*
Y012235D02*
D03*
Y010279D02*
D03*
Y010779D02*
D03*
Y008822D02*
D03*
Y009322D02*
D03*
Y007866D02*
D03*
Y007366D02*
D03*
X011189Y005359D02*
D03*
X011689D02*
D03*
X009881D02*
D03*
X010381D02*
D03*
X006414D02*
D03*
X006914D02*
D03*
X028727Y023038D02*
D03*
X028227D02*
D03*
D20*
X020521Y022263D02*
D03*
X019901D02*
D03*
X020762Y021793D02*
D03*
X020142D02*
D03*
X018898Y022451D02*
D03*
Y021831D02*
D03*
X019200Y022949D02*
D03*
X018580D02*
D03*
X015316Y021054D02*
D03*
Y020434D02*
D03*
X014290Y020447D02*
D03*
X014910D02*
D03*
X013655Y022962D02*
D03*
X014275D02*
D03*
X013206D02*
D03*
X012586D02*
D03*
X010048Y021514D02*
D03*
X010668D02*
D03*
X009591Y021946D02*
D03*
X010211D02*
D03*
X007429Y021668D02*
D03*
Y022288D02*
D03*
X007861Y021668D02*
D03*
Y022288D02*
D03*
X020392Y018402D02*
D03*
X020891D02*
D03*
X011951Y021958D02*
D03*
X011451D02*
D03*
X009022Y021844D02*
D03*
X008522D02*
D03*
X018263Y022179D02*
D03*
Y021679D02*
D03*
X021506Y020625D02*
D03*
X021006D02*
D03*
X010770Y006701D02*
D03*
Y007201D02*
D03*
X027534Y022436D02*
D03*
Y022936D02*
D03*
X017852Y016167D02*
D03*
X018351D02*
D03*
X025468Y008268D02*
D03*
X024968D02*
D03*
X025417Y009944D02*
D03*
X024917D02*
D03*
X027475Y012611D02*
D03*
X026975D02*
D03*
X015591Y018428D02*
D03*
X016091D02*
D03*
X005550Y022115D02*
D03*
Y021615D02*
D03*
X013953Y020980D02*
D03*
X014453D02*
D03*
X019334Y006033D02*
D03*
X018834D02*
D03*
X019334Y007404D02*
D03*
X018834D02*
D03*
X008204Y018047D02*
D03*
X008704D02*
D03*
X010549Y008115D02*
D03*
X011049D02*
D03*
D21*
X019964Y022924D02*
D03*
X020726D02*
D03*
X011392Y022804D02*
D03*
X012154D02*
D03*
X015399Y010020D02*
D03*
Y009258D02*
D03*
X015075Y010020D02*
D03*
Y009258D02*
D03*
X015748Y010033D02*
D03*
Y009271D02*
D03*
X013322Y009258D02*
D03*
Y010020D02*
D03*
X012941Y009258D02*
D03*
Y010020D02*
D03*
X012294Y009246D02*
D03*
Y008484D02*
D03*
X011792D02*
D03*
Y009246D02*
D03*
X011316Y008484D02*
D03*
Y009246D02*
D03*
X010236Y009233D02*
D03*
Y009995D02*
D03*
X009874D02*
D03*
Y009233D02*
D03*
X009538Y009995D02*
D03*
Y009233D02*
D03*
X016065Y016243D02*
D03*
Y015481D02*
D03*
X015743Y016243D02*
D03*
Y015481D02*
D03*
X015420Y016243D02*
D03*
Y015481D02*
D03*
X015088Y016243D02*
D03*
Y015481D02*
D03*
X014775Y016243D02*
D03*
Y015481D02*
D03*
X014453Y016243D02*
D03*
Y015481D02*
D03*
X016154Y013932D02*
D03*
Y013170D02*
D03*
X015832Y013932D02*
D03*
Y013170D02*
D03*
X015509Y013932D02*
D03*
Y013170D02*
D03*
X015187Y013932D02*
D03*
Y013170D02*
D03*
X014864Y013932D02*
D03*
Y013170D02*
D03*
X014541Y013932D02*
D03*
Y013170D02*
D03*
X015923Y021778D02*
D03*
X016462Y022317D02*
D03*
X019799Y015621D02*
D03*
Y014859D02*
D03*
X019113Y015621D02*
D03*
Y014859D02*
D03*
X018415Y015621D02*
D03*
Y014859D02*
D03*
X022822Y021476D02*
D03*
Y022238D02*
D03*
X008458Y022390D02*
D03*
X009220D02*
D03*
X017704Y015621D02*
D03*
Y014859D02*
D03*
X017018D02*
D03*
Y015621D02*
D03*
X015494Y012192D02*
D03*
X014732D02*
D03*
X015494Y012662D02*
D03*
X014732D02*
D03*
X008077Y009284D02*
D03*
X008839D02*
D03*
Y009849D02*
D03*
X008077D02*
D03*
X008839Y010414D02*
D03*
X008077D02*
D03*
Y010979D02*
D03*
X008839D02*
D03*
X008077Y011544D02*
D03*
X008839D02*
D03*
X006144Y022514D02*
D03*
X006683Y023053D02*
D03*
D22*
X016205Y015113D02*
D03*
Y014351D02*
D03*
X014681D02*
D03*
X014935D02*
D03*
X015189D02*
D03*
X015443D02*
D03*
X015697D02*
D03*
X015951D02*
D03*
X014427Y015113D02*
D03*
X014681D02*
D03*
X014935D02*
D03*
X015189D02*
D03*
X015443D02*
D03*
X015697D02*
D03*
X015951D02*
D03*
D23*
X014427Y014351D02*
D03*
D24*
X005651Y018720D02*
D03*
X005906D02*
D03*
X006160D02*
D03*
X007429D02*
D03*
X007683D02*
D03*
X007938D02*
D03*
X008192D02*
D03*
X018821Y019710D02*
D03*
Y019456D02*
D03*
Y019202D02*
D03*
Y017932D02*
D03*
Y017678D02*
D03*
Y017424D02*
D03*
Y017170D02*
D03*
X016027Y020320D02*
D03*
X016281D02*
D03*
X016535D02*
D03*
X015773Y021420D02*
D03*
X016027D02*
D03*
X016281D02*
D03*
X016535D02*
D03*
X011582Y020472D02*
D03*
X011836D02*
D03*
X012090D02*
D03*
X011328Y021572D02*
D03*
X011582D02*
D03*
X011836D02*
D03*
X012090D02*
D03*
X009106Y018720D02*
D03*
X009360D02*
D03*
X009614D02*
D03*
X010884D02*
D03*
X011138D02*
D03*
X011392D02*
D03*
X011646D02*
D03*
X007353Y020231D02*
D03*
X007607D02*
D03*
X007861D02*
D03*
X007099Y021331D02*
D03*
X007353D02*
D03*
X007607D02*
D03*
X007861D02*
D03*
X008776Y020218D02*
D03*
X009030D02*
D03*
X009284D02*
D03*
X008522Y021318D02*
D03*
X008776D02*
D03*
X009030D02*
D03*
X009284D02*
D03*
X018745Y020269D02*
D03*
X018999D02*
D03*
X019253D02*
D03*
X018491Y021369D02*
D03*
X018745D02*
D03*
X018999D02*
D03*
X019253D02*
D03*
X020066Y020269D02*
D03*
X020320D02*
D03*
X020574D02*
D03*
X019812Y021369D02*
D03*
X020066D02*
D03*
X020320D02*
D03*
X020574D02*
D03*
X016891Y019710D02*
D03*
Y019456D02*
D03*
Y019202D02*
D03*
Y017932D02*
D03*
Y017678D02*
D03*
Y017424D02*
D03*
Y017170D02*
D03*
X020798Y013302D02*
D03*
X022321D02*
D03*
X020798Y016102D02*
D03*
X021560D02*
D03*
X021692Y019660D02*
D03*
Y019406D02*
D03*
Y019152D02*
D03*
Y017882D02*
D03*
Y017628D02*
D03*
Y017374D02*
D03*
Y017120D02*
D03*
X014008Y019749D02*
D03*
Y019495D02*
D03*
Y019240D02*
D03*
Y017971D02*
D03*
Y017716D02*
D03*
Y017462D02*
D03*
Y017209D02*
D03*
X007188Y009843D02*
D03*
X007688D02*
D03*
X007188Y010401D02*
D03*
X007688D02*
D03*
X007188Y010960D02*
D03*
X007688D02*
D03*
X007188Y011519D02*
D03*
X007688D02*
D03*
X006375Y018034D02*
D03*
Y017780D02*
D03*
Y017526D02*
D03*
Y017272D02*
D03*
X005613D02*
D03*
Y018034D02*
D03*
X006375Y017018D02*
D03*
Y016764D02*
D03*
Y016510D02*
D03*
Y016256D02*
D03*
X005613D02*
D03*
Y017018D02*
D03*
X006375Y016002D02*
D03*
Y015748D02*
D03*
Y015494D02*
D03*
Y015240D02*
D03*
X005613D02*
D03*
Y016002D02*
D03*
X006375Y014986D02*
D03*
Y014732D02*
D03*
Y014478D02*
D03*
Y014224D02*
D03*
X005613D02*
D03*
Y014986D02*
D03*
X006375Y013970D02*
D03*
Y013716D02*
D03*
Y013462D02*
D03*
Y013208D02*
D03*
X005613D02*
D03*
Y013970D02*
D03*
X006375Y012954D02*
D03*
Y012700D02*
D03*
Y012446D02*
D03*
Y012192D02*
D03*
X005613D02*
D03*
Y012954D02*
D03*
X012751Y017526D02*
D03*
Y017272D02*
D03*
Y017018D02*
D03*
Y016764D02*
D03*
X011989D02*
D03*
Y017526D02*
D03*
X012751Y015494D02*
D03*
Y015240D02*
D03*
Y014986D02*
D03*
Y014732D02*
D03*
X011989D02*
D03*
Y015494D02*
D03*
X012751Y014478D02*
D03*
Y014224D02*
D03*
Y013970D02*
D03*
Y013716D02*
D03*
X011989D02*
D03*
Y014478D02*
D03*
X012751Y016510D02*
D03*
Y016256D02*
D03*
Y016002D02*
D03*
Y015748D02*
D03*
X011989D02*
D03*
Y016510D02*
D03*
X012751Y013462D02*
D03*
Y013208D02*
D03*
Y012954D02*
D03*
Y012700D02*
D03*
X011989D02*
D03*
Y013462D02*
D03*
X012751Y012446D02*
D03*
Y012192D02*
D03*
Y011938D02*
D03*
Y011684D02*
D03*
X011989D02*
D03*
Y012446D02*
D03*
X007188Y009284D02*
D03*
X007688D02*
D03*
D25*
X015773Y020320D02*
D03*
X011328Y020472D02*
D03*
X007099Y020231D02*
D03*
X008522Y020218D02*
D03*
X018491Y020269D02*
D03*
X019812D02*
D03*
D26*
X006960Y016954D02*
D03*
X006972Y013792D02*
D03*
D27*
X006960Y016701D02*
D03*
Y016446D02*
D03*
Y016193D02*
D03*
Y015938D02*
D03*
Y015685D02*
D03*
Y015430D02*
D03*
X007722Y016954D02*
D03*
Y016701D02*
D03*
Y016446D02*
D03*
Y016193D02*
D03*
Y015938D02*
D03*
Y015685D02*
D03*
Y015430D02*
D03*
X007734Y012268D02*
D03*
Y012522D02*
D03*
Y012776D02*
D03*
Y013030D02*
D03*
Y013284D02*
D03*
Y013538D02*
D03*
Y013792D02*
D03*
X006972Y012268D02*
D03*
Y012522D02*
D03*
Y012776D02*
D03*
Y013030D02*
D03*
Y013284D02*
D03*
Y013538D02*
D03*
D28*
X023660Y013428D02*
D03*
X029248Y021558D02*
D03*
X026454D02*
D03*
X023660D02*
D03*
X029248Y013428D02*
D03*
D29*
X017000Y013700D02*
D03*
Y014200D02*
D03*
X017700Y013700D02*
D03*
Y014200D02*
D03*
X019100Y013700D02*
D03*
Y014200D02*
D03*
X019800Y013700D02*
D03*
Y014200D02*
D03*
X018400Y013700D02*
D03*
Y014200D02*
D03*
D30*
X016614Y011757D02*
D03*
D31*
X014135Y012658D02*
D03*
X015862D02*
D03*
X014364Y010080D02*
D03*
X010744Y009415D02*
D03*
X006960Y014982D02*
D03*
D32*
X015455Y005791D02*
D03*
Y006553D02*
D03*
Y007315D02*
D03*
X022161Y005842D02*
D03*
Y006604D02*
D03*
Y007366D02*
D03*
X026060Y005893D02*
D03*
Y006655D02*
D03*
Y007417D02*
D03*
X028029Y008331D02*
D03*
Y007823D02*
D03*
Y005537D02*
D03*
X008382Y005651D02*
D03*
Y006160D02*
D03*
Y008446D02*
D03*
D33*
X013335Y005791D02*
D03*
Y007315D02*
D03*
X020041Y005842D02*
D03*
Y007366D02*
D03*
X023940Y005893D02*
D03*
Y007417D02*
D03*
D34*
X028562Y009411D02*
D03*
X026973D02*
D03*
X027851D02*
D03*
X026262D02*
D03*
X028562Y010604D02*
D03*
X026973D02*
D03*
X027851D02*
D03*
X026262D02*
D03*
X028562Y011824D02*
D03*
X026973D02*
D03*
X027851D02*
D03*
X026262D02*
D03*
D35*
X029527Y005601D02*
D03*
Y022796D02*
D03*
X005626D02*
D03*
Y005601D02*
D03*
M02*
