M48
;Layer_Color=9474304
;FILE_FORMAT=2:3
INCH,LZ
;TYPE=PLATED
T6F00S00C0.033
T9F00S00C0.039
T11F00S00C0.045
;TYPE=NON_PLATED
%
T06
X09425Y0232
Y0292
X0789Y029
Y023
X0525Y0228
Y0288
T09
X11035Y0218
Y0308
X033Y02425
Y02225
Y03325
X11035Y0328
T11
X1026Y0232
Y0262
Y0292
X08725Y029
Y026
Y023
X06085Y0228
Y0258
Y0288
M30
