%FSAX42Y42*%
%MOMM*%
G71*
G01*
G75*
%ADD10C,0.30*%
%ADD11C,1.00*%
%ADD12C,1.50*%
%ADD13O,2.50X1.20*%
%ADD14R,2.50X1.20*%
%ADD15C,1.35*%
%ADD16R,1.35X1.35*%
%ADD17C,1.52*%
%ADD18C,2.00*%
%ADD19C,2.03*%
%ADD20C,1.50*%
%ADD21C,1.40*%
%ADD22O,1.20X2.50*%
%ADD23R,1.20X2.50*%
%ADD24C,1.20*%
%ADD25R,1.20X1.22*%
%ADD26R,2.54X1.27*%
%ADD27O,2.54X1.27*%
%ADD28C,2.50*%
%ADD29C,1.00*%
%ADD30R,1.80X1.80*%
%ADD31R,1.35X1.35*%
%ADD32R,2.03X2.03*%
%ADD33R,1.27X1.27*%
%ADD34O,3.00X4.00*%
%ADD35C,4.50*%
%ADD36C,1.02*%
%ADD37C,1.73*%
G04:AMPARAMS|DCode=38|XSize=2.235mm|YSize=2.235mm|CornerRadius=0mm|HoleSize=0mm|Usage=FLASHONLY|Rotation=0.000|XOffset=0mm|YOffset=0mm|HoleType=Round|Shape=Relief|Width=0.25mm|Gap=0.25mm|Entries=4|*
%AMTHD38*
7,0,0,2.23,1.73,0.25,45*
%
%ADD38THD38*%
G04:AMPARAMS|DCode=39|XSize=2.324mm|YSize=2.324mm|CornerRadius=0mm|HoleSize=0mm|Usage=FLASHONLY|Rotation=0.000|XOffset=0mm|YOffset=0mm|HoleType=Round|Shape=Relief|Width=0.25mm|Gap=0.25mm|Entries=4|*
%AMTHD39*
7,0,0,2.32,1.82,0.25,45*
%
%ADD39THD39*%
%ADD40C,1.82*%
%ADD41C,1.78*%
G04:AMPARAMS|DCode=42|XSize=2.286mm|YSize=2.286mm|CornerRadius=0mm|HoleSize=0mm|Usage=FLASHONLY|Rotation=0.000|XOffset=0mm|YOffset=0mm|HoleType=Round|Shape=Relief|Width=0.25mm|Gap=0.25mm|Entries=4|*
%AMTHD42*
7,0,0,2.29,1.78,0.25,45*
%
%ADD42THD42*%
%ADD43C,2.17*%
G04:AMPARAMS|DCode=44|XSize=2.674mm|YSize=2.674mm|CornerRadius=0mm|HoleSize=0mm|Usage=FLASHONLY|Rotation=0.000|XOffset=0mm|YOffset=0mm|HoleType=Round|Shape=Relief|Width=0.25mm|Gap=0.25mm|Entries=4|*
%AMTHD44*
7,0,0,2.67,2.17,0.25,45*
%
%ADD44THD44*%
%ADD45C,2.02*%
G04:AMPARAMS|DCode=46|XSize=2.524mm|YSize=2.524mm|CornerRadius=0mm|HoleSize=0mm|Usage=FLASHONLY|Rotation=0.000|XOffset=0mm|YOffset=0mm|HoleType=Round|Shape=Relief|Width=0.25mm|Gap=0.25mm|Entries=4|*
%AMTHD46*
7,0,0,2.52,2.02,0.25,45*
%
%ADD46THD46*%
G04:AMPARAMS|DCode=47|XSize=2.424mm|YSize=2.424mm|CornerRadius=0mm|HoleSize=0mm|Usage=FLASHONLY|Rotation=0.000|XOffset=0mm|YOffset=0mm|HoleType=Round|Shape=Relief|Width=0.25mm|Gap=0.25mm|Entries=4|*
%AMTHD47*
7,0,0,2.42,1.92,0.25,45*
%
%ADD47THD47*%
%ADD48C,1.92*%
%ADD49C,1.87*%
G04:AMPARAMS|DCode=50|XSize=2.374mm|YSize=2.374mm|CornerRadius=0mm|HoleSize=0mm|Usage=FLASHONLY|Rotation=0.000|XOffset=0mm|YOffset=0mm|HoleType=Round|Shape=Relief|Width=0.25mm|Gap=0.25mm|Entries=4|*
%AMTHD50*
7,0,0,2.37,1.87,0.25,45*
%
%ADD50THD50*%
%ADD51C,1.73*%
G04:AMPARAMS|DCode=52|XSize=2.2352mm|YSize=2.2352mm|CornerRadius=0mm|HoleSize=0mm|Usage=FLASHONLY|Rotation=0.000|XOffset=0mm|YOffset=0mm|HoleType=Round|Shape=Relief|Width=0.25mm|Gap=0.25mm|Entries=4|*
%AMTHD52*
7,0,0,2.24,1.73,0.25,45*
%
%ADD52THD52*%
%ADD53C,2.37*%
G04:AMPARAMS|DCode=54|XSize=2.874mm|YSize=2.874mm|CornerRadius=0mm|HoleSize=0mm|Usage=FLASHONLY|Rotation=0.000|XOffset=0mm|YOffset=0mm|HoleType=Round|Shape=Relief|Width=0.25mm|Gap=0.25mm|Entries=4|*
%AMTHD54*
7,0,0,2.87,2.37,0.25,45*
%
%ADD54THD54*%
%ADD55C,1.62*%
G04:AMPARAMS|DCode=56|XSize=2.124mm|YSize=2.124mm|CornerRadius=0mm|HoleSize=0mm|Usage=FLASHONLY|Rotation=0.000|XOffset=0mm|YOffset=0mm|HoleType=Round|Shape=Relief|Width=0.25mm|Gap=0.25mm|Entries=4|*
%AMTHD56*
7,0,0,2.12,1.62,0.25,45*
%
%ADD56THD56*%
%ADD57R,2.17X2.17*%
%ADD58R,1.87X1.87*%
%ADD59C,2.77*%
%ADD60C,5.02*%
%ADD61R,2.02X2.02*%
G04:AMPARAMS|DCode=62|XSize=2.674mm|YSize=2.674mm|CornerRadius=0mm|HoleSize=0mm|Usage=FLASHONLY|Rotation=270.000|XOffset=0mm|YOffset=0mm|HoleType=Square|Shape=SquareRelief|Width=0.25mm|Gap=0.25mm|Entries=4|*
%AMTHSQ62*
5,1,4,0,0,3.78,315.0*
5,0,4,0,0,3.06,315.0*
21,0,3.78,0.25,0,0,315.0*
21,0,3.78,0.25,0,0,405.0*
%
%ADD62THSQ62*%

G04:AMPARAMS|DCode=63|XSize=2.524mm|YSize=2.524mm|CornerRadius=0mm|HoleSize=0mm|Usage=FLASHONLY|Rotation=270.000|XOffset=0mm|YOffset=0mm|HoleType=Square|Shape=SquareRelief|Width=0.25mm|Gap=0.25mm|Entries=4|*
%AMTHSQ63*
5,1,4,0,0,3.57,315.0*
5,0,4,0,0,2.85,315.0*
21,0,3.57,0.25,0,0,315.0*
21,0,3.57,0.25,0,0,405.0*
%
%ADD63THSQ63*%

G04:AMPARAMS|DCode=64|XSize=2.524mm|YSize=2.524mm|CornerRadius=0mm|HoleSize=0mm|Usage=FLASHONLY|Rotation=90.000|XOffset=0mm|YOffset=0mm|HoleType=Square|Shape=SquareRelief|Width=0.25mm|Gap=0.25mm|Entries=4|*
%AMTHSQ64*
5,1,4,0,0,3.57,135.0*
5,0,4,0,0,2.85,135.0*
21,0,3.57,0.25,0,0,135.0*
21,0,3.57,0.25,0,0,225.0*
%
%ADD64THSQ64*%

%ADD65C,0.20*%
%ADD66C,0.25*%
%ADD67C,0.50*%
%ADD68C,2.54*%
%ADD69C,1.25*%
%ADD70C,0.10*%
%ADD71C,0.13*%
%ADD72C,0.15*%
%ADD73C,0.38*%
D10*
X029213Y005787D02*
X029530Y005969D01*
X029213Y005420D02*
Y005787D01*
Y005420D02*
X029530Y005238D01*
X029848Y005420D01*
Y005787D01*
X029530Y005969D02*
X029848Y005787D01*
X029530Y023165D02*
X029848Y022983D01*
Y022616D02*
Y022983D01*
X029530Y022433D02*
X029848Y022616D01*
X029213D02*
X029530Y022433D01*
X029213Y022616D02*
Y022983D01*
X029530Y023165D01*
X005629D02*
X005946Y022983D01*
Y022616D02*
Y022983D01*
X005629Y022433D02*
X005946Y022616D01*
X005311D02*
X005629Y022433D01*
X005311Y022616D02*
Y022983D01*
X005629Y023165D01*
Y005969D02*
X005946Y005787D01*
Y005420D02*
Y005787D01*
X005629Y005238D02*
X005946Y005420D01*
X005311D02*
X005629Y005238D01*
X005311Y005420D02*
Y005787D01*
X005629Y005969D01*
D11*
X008306Y022847D02*
X009335D01*
X008306D02*
Y023241D01*
X009335D01*
Y022847D02*
Y023241D01*
X006998Y022847D02*
X008026D01*
X006998D02*
Y023241D01*
X008026D01*
Y022847D02*
Y023241D01*
X024460Y022847D02*
X025489D01*
X024460D02*
Y023241D01*
X025489D01*
Y022847D02*
Y023241D01*
X023165Y022847D02*
X024193D01*
X023165D02*
Y023241D01*
X024193D01*
Y022847D02*
Y023241D01*
X015951Y022847D02*
X016980D01*
X015951D02*
Y023241D01*
X016980D01*
Y022847D02*
Y023241D01*
X014656Y022847D02*
X015685D01*
X014656D02*
Y023241D01*
X015685D01*
Y022847D02*
Y023241D01*
X029413Y011481D02*
X029807D01*
Y012510D01*
X029413D02*
X029807D01*
X029413Y011481D02*
Y012510D01*
Y010025D02*
X029807D01*
Y011053D01*
X029413D02*
X029807D01*
X029413Y010025D02*
Y011053D01*
Y008568D02*
X029807D01*
Y009597D01*
X029413D02*
X029807D01*
X029413Y008568D02*
Y009597D01*
Y007112D02*
Y008141D01*
X029807D01*
Y007112D02*
Y008141D01*
X029413Y007112D02*
X029807D01*
X005448Y011887D02*
X005829D01*
X005448Y009220D02*
Y011887D01*
Y009220D02*
X005829D01*
Y011887D01*
X010935Y005156D02*
Y005550D01*
Y005156D02*
X011963D01*
Y005550D01*
X010935D02*
X011963D01*
X009627Y005156D02*
Y005550D01*
Y005156D02*
X010655D01*
Y005550D01*
X009627D02*
X010655D01*
X006160Y005156D02*
Y005550D01*
Y005156D02*
X007188D01*
Y005550D01*
X006160D02*
X007188D01*
X028981Y022847D02*
Y023241D01*
X027953D02*
X028981D01*
X027953Y022847D02*
Y023241D01*
Y022847D02*
X028981D01*
X005448Y008814D02*
X005829D01*
X005448Y006147D02*
Y008814D01*
Y006147D02*
X005829D01*
Y008814D01*
X025129Y013743D02*
X025629D01*
X025462D01*
X025129Y014076D01*
X025379Y013826D01*
X025629Y014076D01*
Y014243D02*
X025129D01*
X025296Y014409D01*
X025129Y014576D01*
X025629D01*
X025213Y015076D02*
X025129Y014992D01*
Y014826D01*
X025213Y014743D01*
X025296D01*
X025379Y014826D01*
Y014992D01*
X025462Y015076D01*
X025546D01*
X025629Y014992D01*
Y014826D01*
X025546Y014743D01*
X025629Y015492D02*
X025129D01*
X025379Y015242D01*
Y015576D01*
X025213Y015742D02*
X025129Y015826D01*
Y015992D01*
X025213Y016075D01*
X025546D01*
X025629Y015992D01*
Y015826D01*
X025546Y015742D01*
X025213D01*
X025379Y016242D02*
Y016575D01*
X025629Y016742D02*
Y016909D01*
Y016825D01*
X025129D01*
X025213Y016742D01*
X025129Y017492D02*
Y017158D01*
X025379D01*
X025296Y017325D01*
Y017408D01*
X025379Y017492D01*
X025546D01*
X025629Y017408D01*
Y017242D01*
X025546Y017158D01*
X016947Y010856D02*
X016614D01*
Y010357D01*
X016947D01*
X016614Y010607D02*
X016781D01*
X017447Y010773D02*
X017364Y010856D01*
X017197D01*
X017114Y010773D01*
Y010440D01*
X017197Y010357D01*
X017364D01*
X017447Y010440D01*
X017614Y010856D02*
Y010357D01*
X017947D01*
X018114Y010773D02*
X018197Y010856D01*
X018364D01*
X018447Y010773D01*
Y010690D01*
X018364Y010607D01*
X018280D01*
X018364D01*
X018447Y010523D01*
Y010440D01*
X018364Y010357D01*
X018197D01*
X018114Y010440D01*
X018613Y010773D02*
X018697Y010856D01*
X018863D01*
X018947Y010773D01*
Y010440D01*
X018863Y010357D01*
X018697D01*
X018613Y010440D01*
Y010773D01*
X019113Y010856D02*
Y010440D01*
X019197Y010357D01*
X019363D01*
X019447Y010440D01*
Y010856D01*
X019613D02*
X019946D01*
X019780D01*
Y010357D01*
X020113Y010773D02*
X020196Y010856D01*
X020363D01*
X020446Y010773D01*
Y010440D01*
X020363Y010357D01*
X020196D01*
X020113Y010440D01*
Y010773D01*
X020613D02*
X020696Y010856D01*
X020863D01*
X020946Y010773D01*
Y010690D01*
X020863Y010607D01*
X020779D01*
X020863D01*
X020946Y010523D01*
Y010440D01*
X020863Y010357D01*
X020696D01*
X020613Y010440D01*
X021113Y010607D02*
X021446D01*
X021946Y010856D02*
X021612D01*
Y010357D01*
X021946D01*
X021612Y010607D02*
X021779D01*
D65*
X011806Y009449D02*
G03*
X011679Y009449I-000063J000000D01*
G01*
X011904Y010840D02*
G03*
X011553Y010864I-000182J-000083D01*
G01*
Y010649D02*
G03*
X011904Y010674I000169J000108D01*
G01*
X014300Y014668D02*
G03*
X014300Y014796I000000J000063D01*
G01*
X006646Y011652D02*
G03*
X006295Y011627I-000169J-000108D01*
G01*
Y011461D02*
G03*
X006646Y011437I000182J000083D01*
G01*
Y011083D02*
G03*
X006295Y011059I-000169J-000108D01*
G01*
Y010893D02*
G03*
X006646Y010868I000182J000083D01*
G01*
Y010515D02*
G03*
X006295Y010491I-000169J-000108D01*
G01*
Y010324D02*
G03*
X006646Y010300I000182J000083D01*
G01*
Y009947D02*
G03*
X006295Y009922I-000169J-000108D01*
G01*
Y009756D02*
G03*
X006646Y009732I000182J000083D01*
G01*
Y009379D02*
G03*
X006295Y009354I-000169J-000108D01*
G01*
Y009188D02*
G03*
X006646Y009163I000182J000083D01*
G01*
X007471Y017672D02*
G03*
X007121Y017647I-000169J-000108D01*
G01*
Y017481D02*
G03*
X007471Y017457I000182J000083D01*
G01*
X014028Y012577D02*
G03*
X014052Y012226I000108J-000169D01*
G01*
X014218D02*
G03*
X014243Y012577I-000083J000182D01*
G01*
X015755D02*
G03*
X015779Y012226I000108J-000169D01*
G01*
X015945D02*
G03*
X015970Y012577I-000083J000182D01*
G01*
X015172Y010414D02*
G03*
X015045Y010414I-000063J000000D01*
G01*
X010066D02*
G03*
X009939Y010414I-000063J000000D01*
G01*
X013495D02*
G03*
X013368Y010414I-000063J000000D01*
G01*
X014256Y009998D02*
G03*
X014281Y009648I000108J-000169D01*
G01*
X014447D02*
G03*
X014471Y009998I-000083J000182D01*
G01*
X010852Y009496D02*
G03*
X010827Y009847I-000108J000169D01*
G01*
X010661D02*
G03*
X010637Y009496I000083J-000182D01*
G01*
X007591Y014193D02*
G03*
X007942Y014217I000169J000108D01*
G01*
Y014383D02*
G03*
X007591Y014408I-000182J-000083D01*
G01*
X006852Y014901D02*
G03*
X006876Y014550I000108J-000169D01*
G01*
X007043D02*
G03*
X007067Y014901I-000083J000182D01*
G01*
X012034Y009449D02*
Y010465D01*
X011451D02*
X012034D01*
X011451Y009449D02*
Y010465D01*
Y009449D02*
X011679D01*
X011806D02*
X012034D01*
X023139Y007622D02*
Y007839D01*
Y005699D02*
Y005917D01*
X022889Y007622D02*
X023139D01*
X022889Y005917D02*
Y007622D01*
Y005917D02*
X023389D01*
Y007622D01*
X023139D02*
X023389D01*
X027051Y007749D02*
X027301D01*
Y005893D02*
Y007749D01*
X026801Y005893D02*
X027301D01*
X026801D02*
Y007749D01*
X027051D01*
Y005675D02*
Y005893D01*
Y007749D02*
Y007966D01*
X020599Y022924D02*
X020622D01*
X020069D02*
X020091D01*
X020599Y022847D02*
Y022924D01*
X020091Y022847D02*
X020599D01*
X020091D02*
Y023000D01*
X020599D01*
Y022924D02*
Y023000D01*
X012027Y022804D02*
X012050D01*
X011496D02*
X011519D01*
X012027Y022728D02*
Y022804D01*
X011519Y022728D02*
X012027D01*
X011519D02*
Y022881D01*
X012027D01*
Y022804D02*
Y022881D01*
X015399Y009362D02*
Y009385D01*
Y009893D02*
Y009916D01*
X015323Y009385D02*
X015399D01*
X015323D02*
Y009893D01*
X015475D01*
Y009385D02*
Y009893D01*
X015399Y009385D02*
X015475D01*
X015075Y009362D02*
Y009385D01*
Y009893D02*
Y009916D01*
X014999Y009385D02*
X015075D01*
X014999D02*
Y009893D01*
X015151D01*
Y009385D02*
Y009893D01*
X015075Y009385D02*
X015151D01*
X015748Y009375D02*
Y009398D01*
Y009906D02*
Y009929D01*
X015672Y009398D02*
X015748D01*
X015672D02*
Y009906D01*
X015824D01*
Y009398D02*
Y009906D01*
X015748Y009398D02*
X015824D01*
X013322Y009893D02*
Y009916D01*
Y009362D02*
Y009385D01*
Y009893D02*
X013399D01*
Y009385D02*
Y009893D01*
X013246Y009385D02*
X013399D01*
X013246D02*
Y009893D01*
X013322D01*
X012941D02*
Y009916D01*
Y009362D02*
Y009385D01*
Y009893D02*
X013018D01*
Y009385D02*
Y009893D01*
X012865Y009385D02*
X013018D01*
X012865D02*
Y009893D01*
X012941D01*
X012294Y008588D02*
Y008611D01*
Y009119D02*
Y009141D01*
X012217Y008611D02*
X012294D01*
X012217D02*
Y009119D01*
X012370D01*
Y008611D02*
Y009119D01*
X012294Y008611D02*
X012370D01*
X011792Y009119D02*
Y009141D01*
Y008588D02*
Y008611D01*
Y009119D02*
X011868D01*
Y008611D02*
Y009119D01*
X011716Y008611D02*
X011868D01*
X011716D02*
Y009119D01*
X011792D01*
X011316D02*
Y009141D01*
Y008588D02*
Y008611D01*
Y009119D02*
X011392D01*
Y008611D02*
Y009119D01*
X011239Y008611D02*
X011392D01*
X011239D02*
Y009119D01*
X011316D01*
X010236Y009868D02*
Y009891D01*
Y009337D02*
Y009360D01*
Y009868D02*
X010312D01*
Y009360D02*
Y009868D01*
X010160Y009360D02*
X010312D01*
X010160D02*
Y009868D01*
X010236D01*
X009874Y009337D02*
Y009360D01*
Y009868D02*
Y009891D01*
X009798Y009360D02*
X009874D01*
X009798D02*
Y009868D01*
X009950D01*
Y009360D02*
Y009868D01*
X009874Y009360D02*
X009950D01*
X009538Y009337D02*
Y009360D01*
Y009868D02*
Y009891D01*
X009461Y009360D02*
X009538D01*
X009461D02*
Y009868D01*
X009614D01*
Y009360D02*
Y009868D01*
X009538Y009360D02*
X009614D01*
X015989Y016116D02*
X016065D01*
X015989Y015608D02*
Y016116D01*
Y015608D02*
X016142D01*
Y016116D01*
X016065D02*
X016142D01*
X016065Y015585D02*
Y015608D01*
Y016116D02*
Y016139D01*
X015667Y016116D02*
X015743D01*
X015667Y015608D02*
Y016116D01*
Y015608D02*
X015819D01*
Y016116D01*
X015743D02*
X015819D01*
X015743Y015585D02*
Y015608D01*
Y016116D02*
Y016139D01*
X015344Y016116D02*
X015420D01*
X015344Y015608D02*
Y016116D01*
Y015608D02*
X015497D01*
Y016116D01*
X015420D02*
X015497D01*
X015420Y015585D02*
Y015608D01*
Y016116D02*
Y016139D01*
X015011Y016116D02*
X015088D01*
X015011Y015608D02*
Y016116D01*
Y015608D02*
X015164D01*
Y016116D01*
X015088D02*
X015164D01*
X015088Y015585D02*
Y015608D01*
Y016116D02*
Y016139D01*
X014699Y016116D02*
X014775D01*
X014699Y015608D02*
Y016116D01*
Y015608D02*
X014851D01*
Y016116D01*
X014775D02*
X014851D01*
X014775Y015585D02*
Y015608D01*
Y016116D02*
Y016139D01*
X014376Y016116D02*
X014453D01*
X014376Y015608D02*
Y016116D01*
Y015608D02*
X014529D01*
Y016116D01*
X014453D02*
X014529D01*
X014453Y015585D02*
Y015608D01*
Y016116D02*
Y016139D01*
X016078Y013805D02*
X016154D01*
X016078Y013297D02*
Y013805D01*
Y013297D02*
X016231D01*
Y013805D01*
X016154D02*
X016231D01*
X016154Y013274D02*
Y013297D01*
Y013805D02*
Y013828D01*
X015756Y013805D02*
X015832D01*
X015756Y013297D02*
Y013805D01*
Y013297D02*
X015908D01*
Y013805D01*
X015832D02*
X015908D01*
X015832Y013274D02*
Y013297D01*
Y013805D02*
Y013828D01*
X015433Y013805D02*
X015509D01*
X015433Y013297D02*
Y013805D01*
Y013297D02*
X015585D01*
Y013805D01*
X015509D02*
X015585D01*
X015509Y013274D02*
Y013297D01*
Y013805D02*
Y013828D01*
X015110Y013805D02*
X015187D01*
X015110Y013297D02*
Y013805D01*
Y013297D02*
X015263D01*
Y013805D01*
X015187D02*
X015263D01*
X015187Y013274D02*
Y013297D01*
Y013805D02*
Y013828D01*
X014788Y013805D02*
X014864D01*
X014788Y013297D02*
Y013805D01*
Y013297D02*
X014940D01*
Y013805D01*
X014864D02*
X014940D01*
X014864Y013274D02*
Y013297D01*
Y013805D02*
Y013828D01*
X014465Y013805D02*
X014541D01*
X014465Y013297D02*
Y013805D01*
Y013297D02*
X014618D01*
Y013805D01*
X014541D02*
X014618D01*
X014541Y013274D02*
Y013297D01*
Y013805D02*
Y013828D01*
X014300Y014559D02*
Y014668D01*
Y014796D02*
Y014905D01*
X016332D01*
Y014559D02*
Y014905D01*
X014300Y014559D02*
X016332D01*
X005202Y018171D02*
Y020069D01*
X008641Y018171D02*
Y020069D01*
X018273Y020160D02*
X020170D01*
X018273Y016721D02*
X020170D01*
X016372Y022227D02*
X016388Y022243D01*
X015997Y021851D02*
X016013Y021868D01*
X016372Y022227D02*
X016426Y022173D01*
X016067Y021814D02*
X016426Y022173D01*
X015959Y021921D02*
X016067Y021814D01*
X015959Y021921D02*
X016318Y022281D01*
X016372Y022227D01*
X008656Y018171D02*
Y020069D01*
X012095Y018171D02*
Y020069D01*
X019799Y014963D02*
Y014986D01*
Y015494D02*
Y015517D01*
X019723Y014986D02*
X019799D01*
X019723D02*
Y015494D01*
X019876D01*
Y014986D02*
Y015494D01*
X019799Y014986D02*
X019876D01*
X019113Y014963D02*
Y014986D01*
Y015494D02*
Y015517D01*
X019037Y014986D02*
X019113D01*
X019037D02*
Y015494D01*
X019190D01*
Y014986D02*
Y015494D01*
X019113Y014986D02*
X019190D01*
X018415Y014963D02*
Y014986D01*
Y015494D02*
Y015517D01*
X018339Y014986D02*
X018415D01*
X018339D02*
Y015494D01*
X018491D01*
Y014986D02*
Y015494D01*
X018415Y014986D02*
X018491D01*
X022822Y022111D02*
Y022134D01*
Y021580D02*
Y021603D01*
Y022111D02*
X022898D01*
Y021603D02*
Y022111D01*
X022746Y021603D02*
X022898D01*
X022746D02*
Y022111D01*
X022822D01*
X016342Y020160D02*
X018240D01*
X016342Y016721D02*
X018240D01*
X009093Y022390D02*
X009116D01*
X008562D02*
X008585D01*
X009093Y022314D02*
Y022390D01*
X008585Y022314D02*
X009093D01*
X008585D02*
Y022466D01*
X009093D01*
Y022390D02*
Y022466D01*
X017704Y014963D02*
Y014986D01*
Y015494D02*
Y015517D01*
X017628Y014986D02*
X017704D01*
X017628D02*
Y015494D01*
X017780D01*
Y014986D02*
Y015494D01*
X017704Y014986D02*
X017780D01*
X017018Y015494D02*
Y015517D01*
Y014963D02*
Y014986D01*
Y015494D02*
X017094D01*
Y014986D02*
Y015494D01*
X016942Y014986D02*
X017094D01*
X016942D02*
Y015494D01*
X017018D01*
X021143Y020109D02*
X023040D01*
X021143Y016670D02*
X023040D01*
X013459Y020198D02*
X015357D01*
X013459Y016759D02*
X015357D01*
X014836Y012192D02*
X014859D01*
X015367D02*
X015390D01*
X014859D02*
Y012268D01*
X015367D01*
Y012116D02*
Y012268D01*
X014859Y012116D02*
X015367D01*
X014859D02*
Y012192D01*
X014836Y012662D02*
X014859D01*
X015367D02*
X015390D01*
X014859D02*
Y012738D01*
X015367D01*
Y012586D02*
Y012738D01*
X014859Y012586D02*
X015367D01*
X014859D02*
Y012662D01*
X008712Y009284D02*
X008735D01*
X008181D02*
X008204D01*
X008712Y009207D02*
Y009284D01*
X008204Y009207D02*
X008712D01*
X008204D02*
Y009360D01*
X008712D01*
Y009284D02*
Y009360D01*
X015400Y010414D02*
Y011430D01*
X014817D02*
X015400D01*
X014817Y010414D02*
Y011430D01*
Y010414D02*
X015045D01*
X015172D02*
X015400D01*
X008181Y009849D02*
X008204D01*
X008712D02*
X008735D01*
X008204D02*
Y009925D01*
X008712D01*
Y009773D02*
Y009925D01*
X008204Y009773D02*
X008712D01*
X008204D02*
Y009849D01*
X008181Y010414D02*
X008204D01*
X008712D02*
X008735D01*
X008204D02*
Y010490D01*
X008712D01*
Y010338D02*
Y010490D01*
X008204Y010338D02*
X008712D01*
X008204D02*
Y010414D01*
X008712Y010979D02*
X008735D01*
X008181D02*
X008204D01*
X008712Y010903D02*
Y010979D01*
X008204Y010903D02*
X008712D01*
X008204D02*
Y011055D01*
X008712D01*
Y010979D02*
Y011055D01*
Y011544D02*
X008735D01*
X008181D02*
X008204D01*
X008712Y011468D02*
Y011544D01*
X008204Y011468D02*
X008712D01*
X008204D02*
Y011621D01*
X008712D01*
Y011544D02*
Y011621D01*
X010294Y010414D02*
Y011430D01*
X009711D02*
X010294D01*
X009711Y010414D02*
Y011430D01*
Y010414D02*
X009939D01*
X010066D02*
X010294D01*
X006593Y022963D02*
X006609Y022980D01*
X006218Y022588D02*
X006234Y022604D01*
X006593Y022963D02*
X006647Y022910D01*
X006288Y022550D02*
X006647Y022910D01*
X006180Y022658D02*
X006288Y022550D01*
X006180Y022658D02*
X006539Y023017D01*
X006593Y022963D01*
X013723Y010414D02*
Y011430D01*
X013140D02*
X013723D01*
X013140Y010414D02*
Y011430D01*
Y010414D02*
X013368D01*
X013495D02*
X013723D01*
X016624Y007482D02*
Y007699D01*
Y005559D02*
Y005777D01*
X016374Y007482D02*
X016624D01*
X016374Y005777D02*
Y007482D01*
Y005777D02*
X016874D01*
Y007482D01*
X016624D02*
X016874D01*
X014990Y022731D02*
X014970Y022751D01*
X014930D01*
X014910Y022731D01*
Y022651D01*
X014930Y022631D01*
X014970D01*
X014990Y022651D01*
Y022691D01*
X014950D01*
X015030Y022631D02*
Y022711D01*
X015070Y022751D01*
X015110Y022711D01*
Y022631D01*
Y022691D01*
X015030D01*
X015150Y022751D02*
X015230D01*
X015190D01*
Y022631D01*
X015350Y022751D02*
X015270D01*
Y022631D01*
X015350D01*
X015270Y022691D02*
X015310D01*
X015390Y022731D02*
X015410Y022751D01*
X015450D01*
X015470Y022731D01*
Y022711D01*
X015450Y022691D01*
X015430D01*
X015450D01*
X015470Y022671D01*
Y022651D01*
X015450Y022631D01*
X015410D01*
X015390Y022651D01*
X016412Y022719D02*
X016392Y022739D01*
X016352D01*
X016332Y022719D01*
Y022639D01*
X016352Y022619D01*
X016392D01*
X016412Y022639D01*
Y022679D01*
X016372D01*
X016452Y022619D02*
Y022699D01*
X016492Y022739D01*
X016532Y022699D01*
Y022619D01*
Y022679D01*
X016452D01*
X016572Y022739D02*
X016652D01*
X016612D01*
Y022619D01*
X016772Y022739D02*
X016692D01*
Y022619D01*
X016772D01*
X016692Y022679D02*
X016732D01*
X016872Y022619D02*
Y022739D01*
X016812Y022679D01*
X016892D01*
X014910Y014794D02*
Y014711D01*
X014926Y014694D01*
X014960D01*
X014976Y014711D01*
Y014794D01*
X015010D02*
Y014694D01*
X015076D01*
X015110D02*
Y014794D01*
X015176Y014694D01*
Y014794D01*
X015276Y014694D02*
X015210D01*
X015276Y014761D01*
Y014777D01*
X015260Y014794D01*
X015226D01*
X015210Y014777D01*
X015310D02*
X015326Y014794D01*
X015360D01*
X015376Y014777D01*
Y014711D01*
X015360Y014694D01*
X015326D01*
X015310Y014711D01*
Y014777D01*
X015410D02*
X015426Y014794D01*
X015460D01*
X015476Y014777D01*
Y014711D01*
X015460Y014694D01*
X015426D01*
X015410Y014711D01*
Y014777D01*
X015510D02*
X015526Y014794D01*
X015560D01*
X015576Y014777D01*
Y014761D01*
X015560Y014744D01*
X015543D01*
X015560D01*
X015576Y014727D01*
Y014711D01*
X015560Y014694D01*
X015526D01*
X015510Y014711D01*
X015610Y014694D02*
Y014761D01*
X015643Y014794D01*
X015676Y014761D01*
Y014694D01*
Y014744D01*
X015610D01*
X015710Y014694D02*
Y014794D01*
X015776Y014694D01*
Y014794D01*
X027629Y013743D02*
X027379D01*
Y013868D01*
X027421Y013910D01*
X027504D01*
X027546Y013868D01*
Y013743D01*
X027379Y013993D02*
X027629D01*
X027546Y014076D01*
X027629Y014159D01*
X027379D01*
X027629Y014243D02*
X027379D01*
Y014368D01*
X027421Y014409D01*
X027504D01*
X027546Y014368D01*
Y014243D01*
Y014326D02*
X027629Y014409D01*
X027421Y014909D02*
X027379Y014868D01*
Y014784D01*
X027421Y014743D01*
X027462D01*
X027504Y014784D01*
Y014868D01*
X027546Y014909D01*
X027587D01*
X027629Y014868D01*
Y014784D01*
X027587Y014743D01*
X027629Y014992D02*
X027379D01*
Y015117D01*
X027421Y015159D01*
X027504D01*
X027546Y015117D01*
Y014992D01*
X027379Y015242D02*
X027629D01*
Y015409D01*
X027379Y015492D02*
X027421D01*
X027504Y015576D01*
X027421Y015659D01*
X027379D01*
X027504Y015576D02*
X027629D01*
Y015992D02*
X027379D01*
X027462Y016075D01*
X027379Y016159D01*
X027629D01*
X027379Y016409D02*
Y016242D01*
X027629D01*
Y016409D01*
X027504Y016242D02*
Y016325D01*
X027379Y016492D02*
X027629D01*
Y016617D01*
X027587Y016659D01*
X027421D01*
X027379Y016617D01*
Y016492D01*
Y016742D02*
Y016825D01*
Y016784D01*
X027629D01*
Y016742D01*
Y016825D01*
X027421Y017117D02*
X027379Y017075D01*
Y016992D01*
X027421Y016950D01*
X027587D01*
X027629Y016992D01*
Y017075D01*
X027587Y017117D01*
X027629Y017200D02*
X027462D01*
X027379Y017283D01*
X027462Y017367D01*
X027629D01*
X027504D01*
Y017200D01*
X027379Y017450D02*
X027629D01*
Y017617D01*
Y017950D02*
Y018033D01*
Y017992D01*
X027379D01*
X027421Y017950D01*
X027379Y018325D02*
Y018158D01*
X027504D01*
X027462Y018241D01*
Y018283D01*
X027504Y018325D01*
X027587D01*
X027629Y018283D01*
Y018200D01*
X027587Y018158D01*
X027379Y018408D02*
X027546D01*
X027629Y018491D01*
X027546Y018575D01*
X027379D01*
X027629Y019075D02*
Y018908D01*
X027462Y019075D01*
X027421D01*
X027379Y019033D01*
Y018950D01*
X027421Y018908D01*
X027629Y019158D02*
X027587D01*
Y019199D01*
X027629D01*
Y019158D01*
X027379Y019533D02*
X027421Y019449D01*
X027504Y019366D01*
X027587D01*
X027629Y019408D01*
Y019491D01*
X027587Y019533D01*
X027546D01*
X027504Y019491D01*
Y019366D01*
X027379Y019616D02*
Y019783D01*
X027421D01*
X027587Y019616D01*
X027629D01*
Y019866D02*
X027462D01*
X027379Y019949D01*
X027462Y020033D01*
X027629D01*
X027504D01*
Y019866D01*
X027629Y020491D02*
X027379D01*
X027504Y020366D01*
Y020532D01*
X027421Y020616D02*
X027379Y020657D01*
Y020741D01*
X027421Y020782D01*
X027587D01*
X027629Y020741D01*
Y020657D01*
X027587Y020616D01*
X027421D01*
X027379Y020866D02*
X027629D01*
X027546Y020949D01*
X027629Y021032D01*
X027379D01*
X016614Y009357D02*
Y009490D01*
X016681Y009557D01*
X016747Y009490D01*
Y009357D01*
Y009457D01*
X016614D01*
X016947Y009523D02*
X016914Y009557D01*
X016847D01*
X016814Y009523D01*
Y009390D01*
X016847Y009357D01*
X016914D01*
X016947Y009390D01*
X017014Y009357D02*
X017147Y009490D01*
X017214Y009557D02*
Y009357D01*
X017314D01*
X017347Y009390D01*
Y009523D01*
X017314Y009557D01*
X017214D01*
X017547Y009523D02*
X017514Y009557D01*
X017447D01*
X017414Y009523D01*
Y009390D01*
X017447Y009357D01*
X017514D01*
X017547Y009390D01*
X017947Y009523D02*
X017914Y009557D01*
X017847D01*
X017814Y009523D01*
Y009390D01*
X017847Y009357D01*
X017914D01*
X017947Y009390D01*
X018114Y009557D02*
X018047D01*
X018014Y009523D01*
Y009390D01*
X018047Y009357D01*
X018114D01*
X018147Y009390D01*
Y009523D01*
X018114Y009557D01*
X018214Y009357D02*
Y009557D01*
X018347Y009357D01*
Y009557D01*
X018414D02*
Y009423D01*
X018480Y009357D01*
X018547Y009423D01*
Y009557D01*
X018747D02*
X018613D01*
Y009357D01*
X018747D01*
X018613Y009457D02*
X018680D01*
X018813Y009357D02*
Y009557D01*
X018913D01*
X018947Y009523D01*
Y009457D01*
X018913Y009423D01*
X018813D01*
X018880D02*
X018947Y009357D01*
X019013Y009557D02*
X019147D01*
X019080D01*
Y009357D01*
X019347Y009557D02*
X019213D01*
Y009357D01*
X019347D01*
X019213Y009457D02*
X019280D01*
X019413Y009357D02*
Y009557D01*
X019513D01*
X019546Y009523D01*
Y009457D01*
X019513Y009423D01*
X019413D01*
X019480D02*
X019546Y009357D01*
X019946Y009557D02*
X019813D01*
Y009457D01*
X019880Y009490D01*
X019913D01*
X019946Y009457D01*
Y009390D01*
X019913Y009357D01*
X019846D01*
X019813Y009390D01*
X020013Y009557D02*
Y009423D01*
X020080Y009357D01*
X020146Y009423D01*
Y009557D01*
X020413Y009457D02*
X020546D01*
X020480Y009523D02*
Y009390D01*
X020613Y009357D02*
X020746Y009490D01*
X020813Y009457D02*
X020946D01*
X021013Y009357D02*
X021079D01*
X021046D01*
Y009557D01*
X021013Y009523D01*
X021313Y009557D02*
X021179D01*
Y009457D01*
X021246Y009490D01*
X021279D01*
X021313Y009457D01*
Y009390D01*
X021279Y009357D01*
X021213D01*
X021179Y009390D01*
X021379Y009557D02*
Y009423D01*
X021446Y009357D01*
X021513Y009423D01*
Y009557D01*
X021779Y009523D02*
X021812Y009557D01*
X021879D01*
X021912Y009523D01*
Y009490D01*
X021879Y009457D01*
X021846D01*
X021879D01*
X021912Y009423D01*
Y009390D01*
X021879Y009357D01*
X021812D01*
X021779Y009390D01*
X021979Y009523D02*
X022012Y009557D01*
X022079D01*
X022112Y009523D01*
Y009390D01*
X022079Y009357D01*
X022012D01*
X021979Y009390D01*
Y009523D01*
X022179Y009557D02*
Y009357D01*
X022246Y009423D01*
X022312Y009357D01*
Y009557D01*
X007457Y007811D02*
Y007844D01*
Y007827D01*
X007557D01*
Y007811D01*
Y007844D01*
Y007894D02*
X007490D01*
X007457Y007927D01*
X007490Y007960D01*
X007557D01*
X007507D01*
Y007894D01*
X007473Y008060D02*
X007457Y008044D01*
Y008010D01*
X007473Y007994D01*
X007540D01*
X007557Y008010D01*
Y008044D01*
X007540Y008060D01*
X007473Y008260D02*
X007457Y008244D01*
Y008210D01*
X007473Y008194D01*
X007490D01*
X007507Y008210D01*
Y008244D01*
X007523Y008260D01*
X007540D01*
X007557Y008244D01*
Y008210D01*
X007540Y008194D01*
X007457Y008360D02*
Y008294D01*
X007557D01*
Y008360D01*
X007507Y008294D02*
Y008327D01*
X007557Y008394D02*
X007457D01*
X007557Y008460D01*
X007457D01*
X007473Y008560D02*
X007457Y008544D01*
Y008510D01*
X007473Y008494D01*
X007490D01*
X007507Y008510D01*
Y008544D01*
X007523Y008560D01*
X007540D01*
X007557Y008544D01*
Y008510D01*
X007540Y008494D01*
X007457Y008644D02*
Y008610D01*
X007473Y008594D01*
X007540D01*
X007557Y008610D01*
Y008644D01*
X007540Y008660D01*
X007473D01*
X007457Y008644D01*
X007557Y008694D02*
X007457D01*
Y008744D01*
X007473Y008760D01*
X007507D01*
X007523Y008744D01*
Y008694D01*
Y008727D02*
X007557Y008760D01*
X028929Y008674D02*
Y008641D01*
Y008657D01*
X028829D01*
Y008674D01*
Y008641D01*
X028929Y008591D02*
X028829D01*
Y008541D01*
X028846Y008524D01*
X028862D01*
X028879Y008541D01*
Y008591D01*
Y008541D01*
X028896Y008524D01*
X028912D01*
X028929Y008541D01*
Y008591D01*
X028829Y008491D02*
X028896D01*
X028929Y008458D01*
X028896Y008424D01*
X028829D01*
X028879D01*
Y008491D01*
X028929Y008391D02*
Y008324D01*
Y008358D01*
X028829D01*
X028929Y008291D02*
Y008224D01*
Y008258D01*
X028829D01*
X028912Y008024D02*
X028929Y008041D01*
Y008074D01*
X028912Y008091D01*
X028896D01*
X028879Y008074D01*
Y008041D01*
X028862Y008024D01*
X028846D01*
X028829Y008041D01*
Y008074D01*
X028846Y008091D01*
X028929Y007924D02*
Y007991D01*
X028829D01*
Y007924D01*
X028879Y007991D02*
Y007958D01*
X028829Y007891D02*
X028929D01*
X028829Y007824D01*
X028929D01*
X028912Y007724D02*
X028929Y007741D01*
Y007774D01*
X028912Y007791D01*
X028896D01*
X028879Y007774D01*
Y007741D01*
X028862Y007724D01*
X028846D01*
X028829Y007741D01*
Y007774D01*
X028846Y007791D01*
X028929Y007641D02*
Y007674D01*
X028912Y007691D01*
X028846D01*
X028829Y007674D01*
Y007641D01*
X028846Y007624D01*
X028912D01*
X028929Y007641D01*
X028829Y007591D02*
X028929D01*
Y007541D01*
X028912Y007524D01*
X028879D01*
X028862Y007541D01*
Y007591D01*
Y007558D02*
X028829Y007524D01*
X029997Y007201D02*
Y007134D01*
X030030Y007168D02*
X029963D01*
X029997Y009423D02*
Y009357D01*
X030030Y009390D02*
X029963D01*
X029958Y010973D02*
Y010906D01*
X029992Y010939D02*
X029925D01*
X029997Y011735D02*
Y011668D01*
X030030Y011701D02*
X029963D01*
X028803Y022365D02*
Y022298D01*
X028836Y022331D02*
X028769D01*
X006607Y023312D02*
X006590Y023328D01*
X006557D01*
X006540Y023312D01*
Y023245D01*
X006557Y023228D01*
X006590D01*
X006607Y023245D01*
Y023278D01*
X006574D01*
X009719Y023328D02*
X009652D01*
Y023228D01*
X009719D01*
X009652Y023278D02*
X009685D01*
X014291Y023312D02*
X014274Y023328D01*
X014241D01*
X014224Y023312D01*
Y023245D01*
X014241Y023228D01*
X014274D01*
X014291Y023245D01*
Y023278D01*
X014257D01*
X017364Y023328D02*
X017297D01*
Y023228D01*
X017364D01*
X017297Y023278D02*
X017331D01*
X022647Y023312D02*
X022631Y023328D01*
X022597D01*
X022581Y023312D01*
Y023245D01*
X022597Y023228D01*
X022631D01*
X022647Y023245D01*
Y023278D01*
X022614D01*
X025898Y023316D02*
X025832D01*
Y023216D01*
X025898D01*
X025832Y023266D02*
X025865D01*
X008639Y016737D02*
X008606D01*
X008622D01*
Y016654D01*
X008606Y016637D01*
X008589D01*
X008572Y016654D01*
X008689Y016637D02*
X008722D01*
X008739Y016654D01*
Y016687D01*
X008722Y016704D01*
X008689D01*
X008672Y016687D01*
Y016654D01*
X008689Y016637D01*
X008772Y016704D02*
Y016637D01*
Y016670D01*
X008789Y016687D01*
X008806Y016704D01*
X008822D01*
X008939Y016737D02*
Y016637D01*
X008889D01*
X008872Y016654D01*
Y016687D01*
X008889Y016704D01*
X008939D01*
X008989D02*
X009022D01*
X009039Y016687D01*
Y016637D01*
X008989D01*
X008972Y016654D01*
X008989Y016670D01*
X009039D01*
X009072Y016637D02*
Y016704D01*
X009122D01*
X009139Y016687D01*
Y016637D01*
X009272D02*
Y016737D01*
X009306Y016704D01*
X009339Y016737D01*
Y016637D01*
X009389D02*
X009422D01*
X009439Y016654D01*
Y016687D01*
X009422Y016704D01*
X009389D01*
X009372Y016687D01*
Y016654D01*
X009389Y016637D01*
X009472Y016704D02*
Y016637D01*
Y016670D01*
X009489Y016687D01*
X009506Y016704D01*
X009522D01*
X009572D02*
Y016637D01*
Y016670D01*
X009589Y016687D01*
X009606Y016704D01*
X009622D01*
X009672Y016637D02*
X009705D01*
X009689D01*
Y016704D01*
X009672D01*
X009755Y016637D02*
X009805D01*
X009822Y016654D01*
X009805Y016670D01*
X009772D01*
X009755Y016687D01*
X009772Y016704D01*
X009822D01*
X008572Y016330D02*
Y016430D01*
X008606Y016396D01*
X008639Y016430D01*
Y016330D01*
X008689Y016396D02*
X008722D01*
X008739Y016380D01*
Y016330D01*
X008689D01*
X008672Y016346D01*
X008689Y016363D01*
X008739D01*
X008772Y016396D02*
Y016346D01*
X008789Y016330D01*
X008839D01*
Y016313D01*
X008822Y016296D01*
X008806D01*
X008839Y016330D02*
Y016396D01*
X008872Y016330D02*
Y016346D01*
X008889D01*
Y016330D01*
X008872D01*
X009056Y016430D02*
X009122D01*
Y016413D01*
X009056Y016346D01*
Y016330D01*
X009172Y016313D02*
X009189Y016330D01*
Y016346D01*
X009172D01*
Y016330D01*
X009189D01*
X009172Y016313D01*
X009156Y016296D01*
X009422Y016330D02*
X009356D01*
X009422Y016396D01*
Y016413D01*
X009406Y016430D01*
X009372D01*
X009356Y016413D01*
X009456D02*
X009472Y016430D01*
X009506D01*
X009522Y016413D01*
Y016346D01*
X009506Y016330D01*
X009472D01*
X009456Y016346D01*
Y016413D01*
X009556Y016330D02*
X009589D01*
X009572D01*
Y016430D01*
X009556Y016413D01*
X009689Y016330D02*
Y016430D01*
X009639Y016380D01*
X009705D01*
X008639Y016073D02*
X008622Y016089D01*
X008589D01*
X008572Y016073D01*
Y016056D01*
X008589Y016039D01*
X008622D01*
X008639Y016023D01*
Y016006D01*
X008622Y015989D01*
X008589D01*
X008572Y016006D01*
X008672Y015989D02*
Y016056D01*
X008689D01*
X008706Y016039D01*
Y015989D01*
Y016039D01*
X008722Y016056D01*
X008739Y016039D01*
Y015989D01*
X008789Y016056D02*
X008822D01*
X008839Y016039D01*
Y015989D01*
X008789D01*
X008772Y016006D01*
X008789Y016023D01*
X008839D01*
X008872Y016056D02*
Y015989D01*
Y016023D01*
X008889Y016039D01*
X008906Y016056D01*
X008922D01*
X008989Y016073D02*
Y016056D01*
X008972D01*
X009006D01*
X008989D01*
Y016006D01*
X009006Y015989D01*
X009222Y016073D02*
X009206Y016089D01*
X009172D01*
X009156Y016073D01*
Y016006D01*
X009172Y015989D01*
X009206D01*
X009222Y016006D01*
X009256Y016089D02*
Y015989D01*
Y016039D01*
X009272Y016056D01*
X009306D01*
X009322Y016039D01*
Y015989D01*
X009372Y016056D02*
X009406D01*
X009422Y016039D01*
Y015989D01*
X009372D01*
X009356Y016006D01*
X009372Y016023D01*
X009422D01*
X009456Y016056D02*
Y015989D01*
Y016023D01*
X009472Y016039D01*
X009489Y016056D01*
X009506D01*
X009589Y015956D02*
X009606D01*
X009622Y015973D01*
Y016056D01*
X009572D01*
X009556Y016039D01*
Y016006D01*
X009572Y015989D01*
X009622D01*
X009705D02*
X009672D01*
X009655Y016006D01*
Y016039D01*
X009672Y016056D01*
X009705D01*
X009722Y016039D01*
Y016023D01*
X009655D01*
X009755Y016056D02*
Y015989D01*
Y016023D01*
X009772Y016039D01*
X009789Y016056D01*
X009805D01*
X009955Y016089D02*
Y015989D01*
X010005D01*
X010022Y016006D01*
Y016023D01*
X010005Y016039D01*
X009955D01*
X010005D01*
X010022Y016056D01*
Y016073D01*
X010005Y016089D01*
X009955D01*
X010072Y015989D02*
X010105D01*
X010122Y016006D01*
Y016039D01*
X010105Y016056D01*
X010072D01*
X010055Y016039D01*
Y016006D01*
X010072Y015989D01*
X010172Y016056D02*
X010205D01*
X010222Y016039D01*
Y015989D01*
X010172D01*
X010155Y016006D01*
X010172Y016023D01*
X010222D01*
X010255Y016056D02*
Y015989D01*
Y016023D01*
X010272Y016039D01*
X010289Y016056D01*
X010305D01*
X010422Y016089D02*
Y015989D01*
X010372D01*
X010355Y016006D01*
Y016039D01*
X010372Y016056D01*
X010422D01*
X010555Y016089D02*
Y016023D01*
X010589Y015989D01*
X010622Y016023D01*
Y016089D01*
X010655Y015989D02*
X010688D01*
X010672D01*
Y016089D01*
X010655Y016073D01*
X010738Y015989D02*
Y016006D01*
X010755D01*
Y015989D01*
X010738D01*
X010822Y016073D02*
X010838Y016089D01*
X010872D01*
X010888Y016073D01*
Y016006D01*
X010872Y015989D01*
X010838D01*
X010822Y016006D01*
Y016073D01*
D66*
X020107Y016332D02*
G03*
X020107Y016332I-000600J000000D01*
G01*
X020844Y017374D02*
G03*
X020844Y017374I-000600J000000D01*
G01*
X016018Y017450D02*
G03*
X016018Y017450I-000600J000000D01*
G01*
X027194Y022771D02*
G03*
X027194Y022771I-000600J000000D01*
G01*
X008741Y019520D02*
G03*
X008741Y019520I-000600J000000D01*
G01*
X015646Y020638D02*
G03*
X015646Y020765I000000J000063D01*
G01*
X011201Y020790D02*
G03*
X011201Y020917I000000J000063D01*
G01*
X006972Y020549D02*
G03*
X006972Y020676I000000J000063D01*
G01*
X008395Y020536D02*
G03*
X008395Y020663I000000J000063D01*
G01*
X018364Y020587D02*
G03*
X018364Y020714I000000J000063D01*
G01*
X019685Y020587D02*
G03*
X019685Y020714I000000J000063D01*
G01*
X007277Y017082D02*
G03*
X007404Y017082I000063J000000D01*
G01*
X006493Y020803D02*
G03*
X006493Y020803I-000600J000000D01*
G01*
X014430Y021895D02*
G03*
X014430Y021895I-000600J000000D01*
G01*
X013567Y020980D02*
G03*
X013567Y020980I-000600J000000D01*
G01*
X013402Y019710D02*
G03*
X013402Y019710I-000600J000000D01*
G01*
X015713Y021869D02*
G03*
X015713Y021869I-000600J000000D01*
G01*
X010925Y020701D02*
G03*
X010925Y020701I-000600J000000D01*
G01*
X010989Y022758D02*
G03*
X010989Y022758I-000600J000000D01*
G01*
X007128Y021857D02*
G03*
X007128Y021857I-000600J000000D01*
G01*
X017783Y021895D02*
G03*
X017783Y021895I-000600J000000D01*
G01*
X018228Y020574D02*
G03*
X018228Y020574I-000600J000000D01*
G01*
X022507Y021882D02*
G03*
X022507Y021882I-000600J000000D01*
G01*
X022965Y020714D02*
G03*
X022965Y020714I-000600J000000D01*
G01*
X025746Y012217D02*
G03*
X025746Y012217I-000600J000000D01*
G01*
X025771Y010884D02*
G03*
X025771Y010884I-000600J000000D01*
G01*
X025784Y009068D02*
G03*
X025784Y009068I-000600J000000D01*
G01*
X018342Y005982D02*
G03*
X018342Y005982I-000600J000000D01*
G01*
Y007404D02*
G03*
X018342Y007404I-000600J000000D01*
G01*
X010214Y008230D02*
G03*
X010214Y008230I-000600J000000D01*
G01*
X010239Y006909D02*
G03*
X010239Y006909I-000600J000000D01*
G01*
X007290Y013919D02*
G03*
X007417Y013919I000063J000000D01*
G01*
X005207Y020066D02*
X008636D01*
X005207Y018174D02*
X008636D01*
X020168Y016726D02*
Y020155D01*
X018275Y016726D02*
Y020155D01*
X015646Y021222D02*
X016662D01*
X015646Y020536D02*
Y020638D01*
Y020765D02*
Y021222D01*
X016662Y020536D02*
Y021222D01*
X015646Y020536D02*
X016662D01*
X011201Y021374D02*
X012217D01*
X011201Y020688D02*
Y020790D01*
Y020917D02*
Y021374D01*
X012217Y020688D02*
Y021374D01*
X011201Y020688D02*
X012217D01*
X008661Y020066D02*
X012090D01*
X008661Y018174D02*
X012090D01*
X006972Y021133D02*
X007988D01*
X006972Y020447D02*
Y020549D01*
Y020676D02*
Y021133D01*
X007988Y020447D02*
Y021133D01*
X006972Y020447D02*
X007988D01*
X008395Y021120D02*
X009411D01*
X008395Y020434D02*
Y020536D01*
Y020663D02*
Y021120D01*
X009411Y020434D02*
Y021120D01*
X008395Y020434D02*
X009411D01*
X018364Y021171D02*
X019380D01*
X018364Y020485D02*
Y020587D01*
Y020714D02*
Y021171D01*
X019380Y020485D02*
Y021171D01*
X018364Y020485D02*
X019380D01*
X019685Y021171D02*
X020701D01*
X019685Y020485D02*
Y020587D01*
Y020714D02*
Y021171D01*
X020701Y020485D02*
Y021171D01*
X019685Y020485D02*
X020701D01*
X007175Y017082D02*
X007277D01*
X007404D02*
X007506D01*
Y015304D02*
Y017082D01*
X007175Y015304D02*
X007506D01*
X007175D02*
Y017082D01*
X018237Y016726D02*
Y020155D01*
X016345Y016726D02*
Y020155D01*
X023038Y016675D02*
Y020104D01*
X021146Y016675D02*
Y020104D01*
X015354Y016764D02*
Y020193D01*
X013462Y016764D02*
Y020193D01*
X015996Y005253D02*
Y007853D01*
X012929D02*
X015996D01*
X012929Y005253D02*
X015996D01*
X012929D02*
Y007853D01*
X022701Y005304D02*
Y007904D01*
X019634D02*
X022701D01*
X019634Y005304D02*
X022701D01*
X019634D02*
Y007904D01*
X026600Y005355D02*
Y007955D01*
X023533D02*
X026600D01*
X023533Y005355D02*
X026600D01*
X023533D02*
Y007955D01*
X005271Y017145D02*
Y018161D01*
X005278D02*
X006502D01*
Y017145D02*
Y018161D01*
X005278Y017145D02*
X006502D01*
X005271Y016129D02*
Y017145D01*
X005278D02*
X006502D01*
Y016129D02*
Y017145D01*
X005278Y016129D02*
X006502D01*
X005271Y015113D02*
Y016129D01*
X005278D02*
X006502D01*
Y015113D02*
Y016129D01*
X005278Y015113D02*
X006502D01*
X005271Y014097D02*
Y015113D01*
X005278D02*
X006502D01*
Y014097D02*
Y015113D01*
X005278Y014097D02*
X006502D01*
X005271Y013081D02*
Y014097D01*
X005278D02*
X006502D01*
Y013081D02*
Y014097D01*
X005278Y013081D02*
X006502D01*
X005271Y012065D02*
Y013081D01*
X005278D02*
X006502D01*
Y012065D02*
Y013081D01*
X005278Y012065D02*
X006502D01*
X011646Y016637D02*
Y017653D01*
X011654D02*
X012878D01*
Y016637D02*
Y017653D01*
X011654Y016637D02*
X012878D01*
X011646Y014605D02*
Y015621D01*
X011654D02*
X012878D01*
Y014605D02*
Y015621D01*
X011654Y014605D02*
X012878D01*
X011646Y013589D02*
Y014605D01*
X011654D02*
X012878D01*
Y013589D02*
Y014605D01*
X011654Y013589D02*
X012878D01*
X011646Y015621D02*
Y016637D01*
X011654D02*
X012878D01*
Y015621D02*
Y016637D01*
X011654Y015621D02*
X012878D01*
X011646Y012573D02*
Y013589D01*
X011654D02*
X012878D01*
Y012573D02*
Y013589D01*
X011654Y012573D02*
X012878D01*
X011646Y011557D02*
Y012573D01*
X011654D02*
X012878D01*
Y011557D02*
Y012573D01*
X011654Y011557D02*
X012878D01*
X007188Y012141D02*
Y013919D01*
Y012141D02*
X007518D01*
Y013919D01*
X007417D02*
X007518D01*
X007188D02*
X007290D01*
X027623Y008738D02*
X029045D01*
X027623Y005131D02*
Y008738D01*
X029045Y005131D02*
Y008738D01*
X027623Y005131D02*
X029045D01*
X007366Y005245D02*
X008788D01*
Y008852D01*
X007366Y005245D02*
Y008852D01*
X008788D01*
X011509Y011171D02*
X011483Y011196D01*
X011433D01*
X011407Y011171D01*
Y011069D01*
X011433Y011044D01*
X011483D01*
X011509Y011069D01*
X011661Y011044D02*
X011559D01*
X011661Y011145D01*
Y011171D01*
X011636Y011196D01*
X011585D01*
X011559Y011171D01*
X011712D02*
X011737Y011196D01*
X011788D01*
X011813Y011171D01*
Y011069D01*
X011788Y011044D01*
X011737D01*
X011712Y011069D01*
Y011171D01*
X011966D02*
X011940Y011196D01*
X011890D01*
X011864Y011171D01*
Y011145D01*
X011890Y011120D01*
X011940D01*
X011966Y011095D01*
Y011069D01*
X011940Y011044D01*
X011890D01*
X011864Y011069D01*
X019021Y017149D02*
X018995Y017174D01*
X018945D01*
X018919Y017149D01*
Y017047D01*
X018945Y017022D01*
X018995D01*
X019021Y017047D01*
X019148Y017022D02*
Y017174D01*
X019072Y017098D01*
X019173D01*
X023051Y006985D02*
X023203D01*
Y006909D01*
X023177Y006883D01*
X023127D01*
X023101Y006909D01*
Y006985D01*
Y006934D02*
X023051Y006883D01*
X023177Y006833D02*
X023203Y006807D01*
Y006756D01*
X023177Y006731D01*
X023152D01*
X023127Y006756D01*
X023101Y006731D01*
X023076D01*
X023051Y006756D01*
Y006807D01*
X023076Y006833D01*
X023101D01*
X023127Y006807D01*
X023152Y006833D01*
X023177D01*
X023127Y006807D02*
Y006756D01*
X023177Y006579D02*
X023203Y006604D01*
Y006655D01*
X023177Y006680D01*
X023152D01*
X023127Y006655D01*
Y006604D01*
X023101Y006579D01*
X023076D01*
X023051Y006604D01*
Y006655D01*
X023076Y006680D01*
X026817Y008352D02*
Y008504D01*
X026893D01*
X026919Y008478D01*
Y008428D01*
X026893Y008402D01*
X026817D01*
X026868D02*
X026919Y008352D01*
X026970D02*
X027020D01*
X026995D01*
Y008504D01*
X026970Y008478D01*
X027198D02*
X027173Y008504D01*
X027122D01*
X027097Y008478D01*
Y008453D01*
X027122Y008428D01*
X027173D01*
X027198Y008402D01*
Y008377D01*
X027173Y008352D01*
X027122D01*
X027097Y008377D01*
X021057Y017564D02*
X021082Y017590D01*
Y017640D01*
X021057Y017666D01*
X020955D01*
X020930Y017640D01*
Y017590D01*
X020955Y017564D01*
X020930Y017513D02*
Y017463D01*
Y017488D01*
X021082D01*
X021057Y017513D01*
X021082Y017285D02*
Y017386D01*
X021006D01*
X021031Y017336D01*
Y017310D01*
X021006Y017285D01*
X020955D01*
X020930Y017310D01*
Y017361D01*
X020955Y017386D01*
X021057Y017132D02*
X021082Y017158D01*
Y017209D01*
X021057Y017234D01*
X020955D01*
X020930Y017209D01*
Y017158D01*
X020955Y017132D01*
X021006D01*
Y017183D01*
X016218Y017615D02*
X016243Y017640D01*
Y017691D01*
X016218Y017716D01*
X016116D01*
X016091Y017691D01*
Y017640D01*
X016116Y017615D01*
X016091Y017564D02*
Y017513D01*
Y017539D01*
X016243D01*
X016218Y017564D01*
X016091Y017361D02*
X016243D01*
X016167Y017437D01*
Y017336D01*
X016218Y017183D02*
X016243Y017209D01*
Y017259D01*
X016218Y017285D01*
X016116D01*
X016091Y017259D01*
Y017209D01*
X016116Y017183D01*
X016167D01*
Y017234D01*
X027495Y009652D02*
Y009754D01*
X027419D01*
Y009703D01*
Y009754D01*
X027343D01*
X027495Y009601D02*
X027368D01*
X027343Y009576D01*
Y009525D01*
X027368Y009500D01*
X027495D01*
X027470Y009347D02*
X027495Y009373D01*
Y009424D01*
X027470Y009449D01*
X027445D01*
X027419Y009424D01*
Y009373D01*
X027394Y009347D01*
X027368D01*
X027343Y009373D01*
Y009424D01*
X027368Y009449D01*
X027495Y009195D02*
Y009297D01*
X027343D01*
Y009195D01*
X027419Y009297D02*
Y009246D01*
X027470Y009144D02*
X027495Y009119D01*
Y009068D01*
X027470Y009043D01*
X027445D01*
X027419Y009068D01*
Y009093D01*
Y009068D01*
X027394Y009043D01*
X027368D01*
X027343Y009068D01*
Y009119D01*
X027368Y009144D01*
X027470Y010846D02*
Y010947D01*
X027394D01*
Y010897D01*
Y010947D01*
X027318D01*
X027470Y010795D02*
X027343D01*
X027318Y010770D01*
Y010719D01*
X027343Y010693D01*
X027470D01*
X027445Y010541D02*
X027470Y010567D01*
Y010617D01*
X027445Y010643D01*
X027419D01*
X027394Y010617D01*
Y010567D01*
X027368Y010541D01*
X027343D01*
X027318Y010567D01*
Y010617D01*
X027343Y010643D01*
X027470Y010389D02*
Y010490D01*
X027318D01*
Y010389D01*
X027394Y010490D02*
Y010440D01*
X027318Y010236D02*
Y010338D01*
X027419Y010236D01*
X027445D01*
X027470Y010262D01*
Y010313D01*
X027445Y010338D01*
X027457Y012040D02*
Y012141D01*
X027381D01*
Y012090D01*
Y012141D01*
X027305D01*
X027457Y011989D02*
X027330D01*
X027305Y011963D01*
Y011913D01*
X027330Y011887D01*
X027457D01*
X027432Y011735D02*
X027457Y011760D01*
Y011811D01*
X027432Y011836D01*
X027407D01*
X027381Y011811D01*
Y011760D01*
X027356Y011735D01*
X027330D01*
X027305Y011760D01*
Y011811D01*
X027330Y011836D01*
X027457Y011583D02*
Y011684D01*
X027305D01*
Y011583D01*
X027381Y011684D02*
Y011633D01*
X027305Y011532D02*
Y011481D01*
Y011506D01*
X027457D01*
X027432Y011532D01*
X006629Y014097D02*
Y013945D01*
Y014021D01*
X006731D01*
Y014097D01*
Y013945D01*
X006782Y014097D02*
X006883D01*
X006833D01*
Y013945D01*
X006934D02*
X006985D01*
X006959D01*
Y014097D01*
X006934Y014072D01*
X011443Y016967D02*
Y016866D01*
X011519D01*
Y016916D01*
Y016866D01*
X011595D01*
X011443Y017094D02*
Y017043D01*
X011468Y017018D01*
X011570D01*
X011595Y017043D01*
Y017094D01*
X011570Y017120D01*
X011468D01*
X011443Y017094D01*
Y017170D02*
Y017272D01*
Y017221D01*
X011595D01*
X011443Y017424D02*
X011468Y017373D01*
X011519Y017323D01*
X011570D01*
X011595Y017348D01*
Y017399D01*
X011570Y017424D01*
X011544D01*
X011519Y017399D01*
Y017323D01*
X011443Y015964D02*
Y015862D01*
X011519D01*
Y015913D01*
Y015862D01*
X011595D01*
X011443Y016091D02*
Y016040D01*
X011468Y016015D01*
X011570D01*
X011595Y016040D01*
Y016091D01*
X011570Y016116D01*
X011468D01*
X011443Y016091D01*
Y016167D02*
Y016269D01*
Y016218D01*
X011595D01*
X011443Y016421D02*
Y016319D01*
X011519D01*
X011494Y016370D01*
Y016396D01*
X011519Y016421D01*
X011570D01*
X011595Y016396D01*
Y016345D01*
X011570Y016319D01*
X011417Y015011D02*
Y014910D01*
X011494D01*
Y014961D01*
Y014910D01*
X011570D01*
X011417Y015138D02*
Y015088D01*
X011443Y015062D01*
X011544D01*
X011570Y015088D01*
Y015138D01*
X011544Y015164D01*
X011443D01*
X011417Y015138D01*
Y015215D02*
Y015316D01*
Y015265D01*
X011570D01*
Y015443D02*
X011417D01*
X011494Y015367D01*
Y015468D01*
X011417Y013957D02*
Y013856D01*
X011494D01*
Y013906D01*
Y013856D01*
X011570D01*
X011417Y014084D02*
Y014033D01*
X011443Y014008D01*
X011544D01*
X011570Y014033D01*
Y014084D01*
X011544Y014110D01*
X011443D01*
X011417Y014084D01*
Y014160D02*
Y014262D01*
Y014211D01*
X011570D01*
X011443Y014313D02*
X011417Y014338D01*
Y014389D01*
X011443Y014414D01*
X011468D01*
X011494Y014389D01*
Y014364D01*
Y014389D01*
X011519Y014414D01*
X011544D01*
X011570Y014389D01*
Y014338D01*
X011544Y014313D01*
X011443Y012954D02*
Y012852D01*
X011519D01*
Y012903D01*
Y012852D01*
X011595D01*
X011443Y013081D02*
Y013030D01*
X011468Y013005D01*
X011570D01*
X011595Y013030D01*
Y013081D01*
X011570Y013106D01*
X011468D01*
X011443Y013081D01*
Y013157D02*
Y013259D01*
Y013208D01*
X011595D01*
Y013411D02*
Y013309D01*
X011494Y013411D01*
X011468D01*
X011443Y013386D01*
Y013335D01*
X011468Y013309D01*
X011443Y011951D02*
Y011849D01*
X011519D01*
Y011900D01*
Y011849D01*
X011595D01*
X011443Y012078D02*
Y012027D01*
X011468Y012001D01*
X011570D01*
X011595Y012027D01*
Y012078D01*
X011570Y012103D01*
X011468D01*
X011443Y012078D01*
Y012154D02*
Y012255D01*
Y012205D01*
X011595D01*
Y012306D02*
Y012357D01*
Y012332D01*
X011443D01*
X011468Y012306D01*
X015672Y020117D02*
X015723D01*
X015697D01*
Y019964D01*
X015672D01*
X015723D01*
X015900Y020091D02*
X015875Y020117D01*
X015824D01*
X015799Y020091D01*
Y020066D01*
X015824Y020041D01*
X015875D01*
X015900Y020015D01*
Y019990D01*
X015875Y019964D01*
X015824D01*
X015799Y019990D01*
X016027Y020117D02*
X015977D01*
X015951Y020091D01*
Y019990D01*
X015977Y019964D01*
X016027D01*
X016053Y019990D01*
Y020091D01*
X016027Y020117D01*
X016180Y019964D02*
Y020117D01*
X016103Y020041D01*
X016205D01*
X019609Y014653D02*
Y014501D01*
X019710D01*
X019863Y014653D02*
X019761D01*
Y014501D01*
X019863D01*
X019761Y014577D02*
X019812D01*
X019914Y014653D02*
Y014501D01*
X019990D01*
X020015Y014526D01*
Y014628D01*
X019990Y014653D01*
X019914D01*
X020066Y014501D02*
X020117D01*
X020091D01*
Y014653D01*
X020066Y014628D01*
X018910Y014653D02*
Y014501D01*
X019012D01*
X019164Y014653D02*
X019063D01*
Y014501D01*
X019164D01*
X019063Y014577D02*
X019113D01*
X019215Y014653D02*
Y014501D01*
X019291D01*
X019317Y014526D01*
Y014628D01*
X019291Y014653D01*
X019215D01*
X019469Y014501D02*
X019367D01*
X019469Y014602D01*
Y014628D01*
X019444Y014653D01*
X019393D01*
X019367Y014628D01*
X018209Y014653D02*
Y014501D01*
X018311D01*
X018463Y014653D02*
X018362D01*
Y014501D01*
X018463D01*
X018362Y014577D02*
X018412D01*
X018514Y014653D02*
Y014501D01*
X018590D01*
X018616Y014526D01*
Y014628D01*
X018590Y014653D01*
X018514D01*
X018666Y014628D02*
X018692Y014653D01*
X018742D01*
X018768Y014628D01*
Y014602D01*
X018742Y014577D01*
X018717D01*
X018742D01*
X018768Y014552D01*
Y014526D01*
X018742Y014501D01*
X018692D01*
X018666Y014526D01*
X017511Y014653D02*
Y014501D01*
X017612D01*
X017765Y014653D02*
X017663D01*
Y014501D01*
X017765D01*
X017663Y014577D02*
X017714D01*
X017815Y014653D02*
Y014501D01*
X017892D01*
X017917Y014526D01*
Y014628D01*
X017892Y014653D01*
X017815D01*
X018044Y014501D02*
Y014653D01*
X017968Y014577D01*
X018069D01*
X016810Y014653D02*
Y014501D01*
X016911D01*
X017064Y014653D02*
X016962D01*
Y014501D01*
X017064D01*
X016962Y014577D02*
X017013D01*
X017114Y014653D02*
Y014501D01*
X017191D01*
X017216Y014526D01*
Y014628D01*
X017191Y014653D01*
X017114D01*
X017368D02*
X017267D01*
Y014577D01*
X017318Y014602D01*
X017343D01*
X017368Y014577D01*
Y014526D01*
X017343Y014501D01*
X017292D01*
X017267Y014526D01*
X029096Y022162D02*
Y022314D01*
X029172D01*
X029197Y022288D01*
Y022238D01*
X029172Y022212D01*
X029096D01*
X029350Y022288D02*
X029324Y022314D01*
X029273D01*
X029248Y022288D01*
Y022263D01*
X029273Y022238D01*
X029324D01*
X029350Y022212D01*
Y022187D01*
X029324Y022162D01*
X029273D01*
X029248Y022187D01*
X029400Y022288D02*
X029426Y022314D01*
X029477D01*
X029502Y022288D01*
Y022263D01*
X029477Y022238D01*
X029451D01*
X029477D01*
X029502Y022212D01*
Y022187D01*
X029477Y022162D01*
X029426D01*
X029400Y022187D01*
X019926Y015329D02*
Y015481D01*
X020002D01*
X020028Y015456D01*
Y015405D01*
X020002Y015380D01*
X019926D01*
X019977D02*
X020028Y015329D01*
X020079D02*
X020129D01*
X020104D01*
Y015481D01*
X020079Y015456D01*
X019240Y015329D02*
Y015481D01*
X019317D01*
X019342Y015456D01*
Y015405D01*
X019317Y015380D01*
X019240D01*
X019291D02*
X019342Y015329D01*
X019494D02*
X019393D01*
X019494Y015430D01*
Y015456D01*
X019469Y015481D01*
X019418D01*
X019393Y015456D01*
X018542Y015329D02*
Y015481D01*
X018618D01*
X018644Y015456D01*
Y015405D01*
X018618Y015380D01*
X018542D01*
X018593D02*
X018644Y015329D01*
X018694Y015456D02*
X018720Y015481D01*
X018771D01*
X018796Y015456D01*
Y015430D01*
X018771Y015405D01*
X018745D01*
X018771D01*
X018796Y015380D01*
Y015354D01*
X018771Y015329D01*
X018720D01*
X018694Y015354D01*
X017856Y015342D02*
Y015494D01*
X017932D01*
X017958Y015469D01*
Y015418D01*
X017932Y015392D01*
X017856D01*
X017907D02*
X017958Y015342D01*
X018085D02*
Y015494D01*
X018009Y015418D01*
X018110D01*
X017158Y015342D02*
Y015494D01*
X017234D01*
X017259Y015469D01*
Y015418D01*
X017234Y015392D01*
X017158D01*
X017208D02*
X017259Y015342D01*
X017412Y015494D02*
X017310D01*
Y015418D01*
X017361Y015443D01*
X017386D01*
X017412Y015418D01*
Y015367D01*
X017386Y015342D01*
X017335D01*
X017310Y015367D01*
X029159Y007175D02*
X029261Y007226D01*
X029159Y007277D01*
Y007353D02*
Y007404D01*
X029185Y007429D01*
X029261D01*
Y007353D01*
X029235Y007328D01*
X029210Y007353D01*
Y007429D01*
X029159Y007582D02*
Y007506D01*
X029185Y007480D01*
X029235D01*
X029261Y007506D01*
Y007582D01*
X029286Y007633D02*
Y007734D01*
X029261Y007785D02*
Y007836D01*
Y007810D01*
X029159D01*
Y007785D01*
X029261Y007912D02*
X029159D01*
Y007988D01*
X029185Y008013D01*
X029261D01*
X007023Y017958D02*
X006998Y017983D01*
X006947D01*
X006921Y017958D01*
Y017856D01*
X006947Y017831D01*
X006998D01*
X007023Y017856D01*
X007074Y017983D02*
Y017831D01*
X007150D01*
X007175Y017856D01*
Y017882D01*
Y017907D01*
X007150Y017932D01*
X007074D01*
X007226D02*
Y017856D01*
X007252Y017831D01*
X007328D01*
Y017932D01*
X007404Y017831D02*
Y017958D01*
Y017907D01*
X007379D01*
X007429D01*
X007404D01*
Y017958D01*
X007429Y017983D01*
X007607Y017958D02*
X007582Y017983D01*
X007531D01*
X007506Y017958D01*
Y017856D01*
X007531Y017831D01*
X007582D01*
X007607Y017856D01*
Y017907D01*
X007556D01*
X005232Y021692D02*
X005207Y021666D01*
Y021615D01*
X005232Y021590D01*
X005334D01*
X005359Y021615D01*
Y021666D01*
X005334Y021692D01*
X005232Y021844D02*
X005207Y021819D01*
Y021768D01*
X005232Y021742D01*
X005334D01*
X005359Y021768D01*
Y021819D01*
X005334Y021844D01*
X005359Y021895D02*
Y021945D01*
Y021920D01*
X005207D01*
X005232Y021895D01*
Y022123D02*
X005207Y022098D01*
Y022047D01*
X005232Y022022D01*
X005334D01*
X005359Y022047D01*
Y022098D01*
X005334Y022123D01*
X005283D01*
Y022072D01*
X008598Y021628D02*
X008572Y021653D01*
X008522D01*
X008496Y021628D01*
Y021526D01*
X008522Y021501D01*
X008572D01*
X008598Y021526D01*
X008750Y021628D02*
X008725Y021653D01*
X008674D01*
X008649Y021628D01*
Y021526D01*
X008674Y021501D01*
X008725D01*
X008750Y021526D01*
X008903Y021501D02*
X008801D01*
X008903Y021603D01*
Y021628D01*
X008877Y021653D01*
X008826D01*
X008801Y021628D01*
X009055D02*
X009030Y021653D01*
X008979D01*
X008953Y021628D01*
Y021526D01*
X008979Y021501D01*
X009030D01*
X009055Y021526D01*
Y021577D01*
X009004D01*
X011519Y022301D02*
X011493Y022327D01*
X011443D01*
X011417Y022301D01*
Y022200D01*
X011443Y022174D01*
X011493D01*
X011519Y022200D01*
X011671Y022301D02*
X011646Y022327D01*
X011595D01*
X011570Y022301D01*
Y022200D01*
X011595Y022174D01*
X011646D01*
X011671Y022200D01*
X011722Y022301D02*
X011747Y022327D01*
X011798D01*
X011824Y022301D01*
Y022276D01*
X011798Y022250D01*
X011773D01*
X011798D01*
X011824Y022225D01*
Y022200D01*
X011798Y022174D01*
X011747D01*
X011722Y022200D01*
X011976Y022301D02*
X011951Y022327D01*
X011900D01*
X011874Y022301D01*
Y022200D01*
X011900Y022174D01*
X011951D01*
X011976Y022200D01*
Y022250D01*
X011925D01*
X013995Y020764D02*
X013970Y020790D01*
X013919D01*
X013894Y020764D01*
Y020663D01*
X013919Y020638D01*
X013970D01*
X013995Y020663D01*
X014148Y020764D02*
X014122Y020790D01*
X014072D01*
X014046Y020764D01*
Y020663D01*
X014072Y020638D01*
X014122D01*
X014148Y020663D01*
X014275Y020638D02*
Y020790D01*
X014199Y020714D01*
X014300D01*
X014452Y020764D02*
X014427Y020790D01*
X014376D01*
X014351Y020764D01*
Y020663D01*
X014376Y020638D01*
X014427D01*
X014452Y020663D01*
Y020714D01*
X014402D01*
X017996Y022098D02*
X018021Y022123D01*
Y022174D01*
X017996Y022200D01*
X017894D01*
X017869Y022174D01*
Y022123D01*
X017894Y022098D01*
X017996Y021946D02*
X018021Y021971D01*
Y022022D01*
X017996Y022047D01*
X017894D01*
X017869Y022022D01*
Y021971D01*
X017894Y021946D01*
X018021Y021793D02*
Y021895D01*
X017945D01*
X017970Y021844D01*
Y021819D01*
X017945Y021793D01*
X017894D01*
X017869Y021819D01*
Y021870D01*
X017894Y021895D01*
X017996Y021641D02*
X018021Y021666D01*
Y021717D01*
X017996Y021743D01*
X017894D01*
X017869Y021717D01*
Y021666D01*
X017894Y021641D01*
X017945D01*
Y021692D01*
X020980Y020980D02*
X020955Y021006D01*
X020904D01*
X020879Y020980D01*
Y020879D01*
X020904Y020853D01*
X020955D01*
X020980Y020879D01*
X021133Y020980D02*
X021107Y021006D01*
X021057D01*
X021031Y020980D01*
Y020879D01*
X021057Y020853D01*
X021107D01*
X021133Y020879D01*
X021285Y021006D02*
X021234Y020980D01*
X021184Y020930D01*
Y020879D01*
X021209Y020853D01*
X021260D01*
X021285Y020879D01*
Y020904D01*
X021260Y020930D01*
X021184D01*
X021437Y020980D02*
X021412Y021006D01*
X021361D01*
X021336Y020980D01*
Y020879D01*
X021361Y020853D01*
X021412D01*
X021437Y020879D01*
Y020930D01*
X021387D01*
X006045Y012408D02*
X005918D01*
X005969D01*
Y012382D01*
Y012433D01*
Y012408D01*
X005918D01*
X005893Y012433D01*
X006045Y012535D02*
Y012586D01*
X006020Y012611D01*
X005969D01*
X005944Y012586D01*
Y012535D01*
X005969Y012509D01*
X006020D01*
X006045Y012535D01*
X005944Y012662D02*
X006045D01*
X005994D01*
X005969Y012687D01*
X005944Y012713D01*
Y012738D01*
X006045Y012814D02*
Y012865D01*
Y012840D01*
X005893D01*
X005918Y012814D01*
X006045Y013411D02*
X005918D01*
X005969D01*
Y013386D01*
Y013437D01*
Y013411D01*
X005918D01*
X005893Y013437D01*
X006045Y013538D02*
Y013589D01*
X006020Y013614D01*
X005969D01*
X005944Y013589D01*
Y013538D01*
X005969Y013513D01*
X006020D01*
X006045Y013538D01*
X005944Y013665D02*
X006045D01*
X005994D01*
X005969Y013691D01*
X005944Y013716D01*
Y013741D01*
X006045Y013919D02*
Y013817D01*
X005944Y013919D01*
X005918D01*
X005893Y013894D01*
Y013843D01*
X005918Y013817D01*
X006071Y014402D02*
X005944D01*
X005994D01*
Y014376D01*
Y014427D01*
Y014402D01*
X005944D01*
X005918Y014427D01*
X006071Y014529D02*
Y014580D01*
X006045Y014605D01*
X005994D01*
X005969Y014580D01*
Y014529D01*
X005994Y014503D01*
X006045D01*
X006071Y014529D01*
X005969Y014656D02*
X006071D01*
X006020D01*
X005994Y014681D01*
X005969Y014706D01*
Y014732D01*
X005944Y014808D02*
X005918Y014833D01*
Y014884D01*
X005944Y014910D01*
X005969D01*
X005994Y014884D01*
Y014859D01*
Y014884D01*
X006020Y014910D01*
X006045D01*
X006071Y014884D01*
Y014833D01*
X006045Y014808D01*
X006058Y015392D02*
X005931D01*
X005982D01*
Y015367D01*
Y015418D01*
Y015392D01*
X005931D01*
X005906Y015418D01*
X006058Y015519D02*
Y015570D01*
X006033Y015596D01*
X005982D01*
X005956Y015570D01*
Y015519D01*
X005982Y015494D01*
X006033D01*
X006058Y015519D01*
X005956Y015646D02*
X006058D01*
X006007D01*
X005982Y015672D01*
X005956Y015697D01*
Y015722D01*
X006058Y015875D02*
X005906D01*
X005982Y015799D01*
Y015900D01*
X006083Y016370D02*
X005956D01*
X006007D01*
Y016345D01*
Y016396D01*
Y016370D01*
X005956D01*
X005931Y016396D01*
X006083Y016497D02*
Y016548D01*
X006058Y016573D01*
X006007D01*
X005982Y016548D01*
Y016497D01*
X006007Y016472D01*
X006058D01*
X006083Y016497D01*
X005982Y016624D02*
X006083D01*
X006033D01*
X006007Y016650D01*
X005982Y016675D01*
Y016700D01*
X005931Y016878D02*
Y016777D01*
X006007D01*
X005982Y016827D01*
Y016853D01*
X006007Y016878D01*
X006058D01*
X006083Y016853D01*
Y016802D01*
X006058Y016777D01*
X006045Y017386D02*
X005918D01*
X005969D01*
Y017361D01*
Y017412D01*
Y017386D01*
X005918D01*
X005893Y017412D01*
X006045Y017513D02*
Y017564D01*
X006020Y017589D01*
X005969D01*
X005944Y017564D01*
Y017513D01*
X005969Y017488D01*
X006020D01*
X006045Y017513D01*
X005944Y017640D02*
X006045D01*
X005994D01*
X005969Y017666D01*
X005944Y017691D01*
Y017716D01*
X005893Y017894D02*
X005918Y017843D01*
X005969Y017793D01*
X006020D01*
X006045Y017818D01*
Y017869D01*
X006020Y017894D01*
X005994D01*
X005969Y017869D01*
Y017793D01*
X007315Y022682D02*
X007290Y022708D01*
X007239D01*
X007214Y022682D01*
Y022581D01*
X007239Y022555D01*
X007290D01*
X007315Y022581D01*
Y022631D01*
X007264D01*
X007366Y022555D02*
Y022657D01*
X007417Y022708D01*
X007468Y022657D01*
Y022555D01*
Y022631D01*
X007366D01*
X007518Y022708D02*
X007620D01*
X007569D01*
Y022555D01*
X007772Y022708D02*
X007671D01*
Y022555D01*
X007772D01*
X007671Y022631D02*
X007721D01*
X007823Y022555D02*
X007874D01*
X007848D01*
Y022708D01*
X007823Y022682D01*
X008509Y022708D02*
X008484Y022733D01*
X008433D01*
X008407Y022708D01*
Y022606D01*
X008433Y022581D01*
X008484D01*
X008509Y022606D01*
Y022657D01*
X008458D01*
X008560Y022581D02*
Y022682D01*
X008611Y022733D01*
X008661Y022682D01*
Y022581D01*
Y022657D01*
X008560D01*
X008712Y022733D02*
X008814D01*
X008763D01*
Y022581D01*
X008966Y022733D02*
X008864D01*
Y022581D01*
X008966D01*
X008864Y022657D02*
X008915D01*
X009118Y022581D02*
X009017D01*
X009118Y022682D01*
Y022708D01*
X009093Y022733D01*
X009042D01*
X009017Y022708D01*
X023406D02*
X023381Y022733D01*
X023330D01*
X023304Y022708D01*
Y022606D01*
X023330Y022581D01*
X023381D01*
X023406Y022606D01*
Y022657D01*
X023355D01*
X023457Y022581D02*
Y022682D01*
X023508Y022733D01*
X023558Y022682D01*
Y022581D01*
Y022657D01*
X023457D01*
X023609Y022733D02*
X023711D01*
X023660D01*
Y022581D01*
X023863Y022733D02*
X023762D01*
Y022581D01*
X023863D01*
X023762Y022657D02*
X023812D01*
X024015Y022733D02*
X023914D01*
Y022657D01*
X023965Y022682D01*
X023990D01*
X024015Y022657D01*
Y022606D01*
X023990Y022581D01*
X023939D01*
X023914Y022606D01*
X024663Y022729D02*
X024638Y022755D01*
X024587D01*
X024562Y022729D01*
Y022628D01*
X024587Y022602D01*
X024638D01*
X024663Y022628D01*
Y022679D01*
X024613D01*
X024714Y022602D02*
Y022704D01*
X024765Y022755D01*
X024816Y022704D01*
Y022602D01*
Y022679D01*
X024714D01*
X024867Y022755D02*
X024968D01*
X024917D01*
Y022602D01*
X025120Y022755D02*
X025019D01*
Y022602D01*
X025120D01*
X025019Y022679D02*
X025070D01*
X025273Y022755D02*
X025222Y022729D01*
X025171Y022679D01*
Y022628D01*
X025197Y022602D01*
X025247D01*
X025273Y022628D01*
Y022653D01*
X025247Y022679D01*
X025171D01*
X007150Y015202D02*
Y015049D01*
Y015126D01*
X007252D01*
Y015202D01*
Y015049D01*
X007302D02*
X007353D01*
X007328D01*
Y015202D01*
X007302Y015176D01*
X007531D02*
X007506Y015202D01*
X007455D01*
X007429Y015176D01*
Y015075D01*
X007455Y015049D01*
X007506D01*
X007531Y015075D01*
Y015126D01*
X007480D01*
X006185Y022784D02*
X006077Y022892D01*
X006131Y022945D01*
X006167D01*
X006203Y022909D01*
Y022874D01*
X006149Y022820D01*
X006185Y022856D02*
X006257D01*
X006293Y022892D02*
X006329Y022927D01*
X006311Y022909D01*
X006203Y023017D01*
Y022981D01*
X006364Y023143D02*
X006329D01*
X006293Y023107D01*
Y023071D01*
X006364Y022999D01*
X006400D01*
X006436Y023035D01*
Y023071D01*
X006400Y023107D01*
X006364Y023071D01*
X008623Y022098D02*
Y022250D01*
X008699D01*
X008725Y022225D01*
Y022174D01*
X008699Y022149D01*
X008623D01*
X008674D02*
X008725Y022098D01*
X008877D02*
X008776D01*
X008877Y022200D01*
Y022225D01*
X008852Y022250D01*
X008801D01*
X008776Y022225D01*
X009030D02*
X009004Y022250D01*
X008953D01*
X008928Y022225D01*
Y022123D01*
X008953Y022098D01*
X009004D01*
X009030Y022123D01*
Y022174D01*
X008979D01*
X011544Y022936D02*
Y023089D01*
X011620D01*
X011646Y023063D01*
Y023012D01*
X011620Y022987D01*
X011544D01*
X011595D02*
X011646Y022936D01*
X011697Y023063D02*
X011722Y023089D01*
X011773D01*
X011798Y023063D01*
Y023038D01*
X011773Y023012D01*
X011747D01*
X011773D01*
X011798Y022987D01*
Y022962D01*
X011773Y022936D01*
X011722D01*
X011697Y022962D01*
X011951Y023063D02*
X011925Y023089D01*
X011874D01*
X011849Y023063D01*
Y022962D01*
X011874Y022936D01*
X011925D01*
X011951Y022962D01*
Y023012D01*
X011900D01*
X015875Y021996D02*
X015767Y022104D01*
X015821Y022158D01*
X015857D01*
X015893Y022122D01*
Y022086D01*
X015839Y022032D01*
X015875Y022068D02*
X015947D01*
X016037Y022158D02*
X015929Y022266D01*
Y022158D01*
X016001Y022230D01*
X016073Y022373D02*
X016037D01*
X016001Y022338D01*
Y022302D01*
X016073Y022230D01*
X016108D01*
X016144Y022266D01*
Y022302D01*
X016108Y022338D01*
X016073Y022302D01*
X020104Y022606D02*
Y022758D01*
X020180D01*
X020206Y022733D01*
Y022682D01*
X020180Y022657D01*
X020104D01*
X020155D02*
X020206Y022606D01*
X020358Y022758D02*
X020256D01*
Y022682D01*
X020307Y022708D01*
X020333D01*
X020358Y022682D01*
Y022631D01*
X020333Y022606D01*
X020282D01*
X020256Y022631D01*
X020510Y022733D02*
X020485Y022758D01*
X020434D01*
X020409Y022733D01*
Y022631D01*
X020434Y022606D01*
X020485D01*
X020510Y022631D01*
Y022682D01*
X020460D01*
X022949Y022073D02*
X023101D01*
Y021996D01*
X023076Y021971D01*
X023025D01*
X023000Y021996D01*
Y022073D01*
Y022022D02*
X022949Y021971D01*
X023101Y021819D02*
X023076Y021869D01*
X023025Y021920D01*
X022974D01*
X022949Y021895D01*
Y021844D01*
X022974Y021819D01*
X023000D01*
X023025Y021844D01*
Y021920D01*
X023076Y021666D02*
X023101Y021692D01*
Y021743D01*
X023076Y021768D01*
X022974D01*
X022949Y021743D01*
Y021692D01*
X022974Y021666D01*
X023025D01*
Y021717D01*
X008306Y014338D02*
X008280Y014364D01*
X008230D01*
X008204Y014338D01*
Y014237D01*
X008230Y014211D01*
X008280D01*
X008306Y014237D01*
X008458Y014338D02*
X008433Y014364D01*
X008382D01*
X008357Y014338D01*
Y014237D01*
X008382Y014211D01*
X008433D01*
X008458Y014237D01*
X008509Y014364D02*
X008610D01*
X008560D01*
Y014211D01*
X008661D02*
X008712D01*
X008687D01*
Y014364D01*
X008661Y014338D01*
X006718Y011316D02*
X006693Y011341D01*
X006642D01*
X006617Y011316D01*
Y011214D01*
X006642Y011189D01*
X006693D01*
X006718Y011214D01*
X006871Y011189D02*
X006769D01*
X006871Y011290D01*
Y011316D01*
X006845Y011341D01*
X006794D01*
X006769Y011316D01*
X007023D02*
X006998Y011341D01*
X006947D01*
X006921Y011316D01*
Y011290D01*
X006947Y011265D01*
X006998D01*
X007023Y011239D01*
Y011214D01*
X006998Y011189D01*
X006947D01*
X006921Y011214D01*
X006731Y010198D02*
X006706Y010223D01*
X006655D01*
X006629Y010198D01*
Y010096D01*
X006655Y010071D01*
X006706D01*
X006731Y010096D01*
X006782Y010198D02*
X006807Y010223D01*
X006858D01*
X006883Y010198D01*
Y010173D01*
X006858Y010147D01*
X006833D01*
X006858D01*
X006883Y010122D01*
Y010096D01*
X006858Y010071D01*
X006807D01*
X006782Y010096D01*
X007036Y010198D02*
X007010Y010223D01*
X006959D01*
X006934Y010198D01*
Y010173D01*
X006959Y010147D01*
X007010D01*
X007036Y010122D01*
Y010096D01*
X007010Y010071D01*
X006959D01*
X006934Y010096D01*
X006744Y009627D02*
X006718Y009652D01*
X006667D01*
X006642Y009627D01*
Y009525D01*
X006667Y009500D01*
X006718D01*
X006744Y009525D01*
X006871Y009500D02*
Y009652D01*
X006794Y009576D01*
X006896D01*
X007048Y009627D02*
X007023Y009652D01*
X006972D01*
X006947Y009627D01*
Y009601D01*
X006972Y009576D01*
X007023D01*
X007048Y009550D01*
Y009525D01*
X007023Y009500D01*
X006972D01*
X006947Y009525D01*
X015778Y012951D02*
X015753Y012977D01*
X015702D01*
X015677Y012951D01*
Y012850D01*
X015702Y012824D01*
X015753D01*
X015778Y012850D01*
X015931Y012977D02*
X015829D01*
Y012901D01*
X015880Y012926D01*
X015905D01*
X015931Y012901D01*
Y012850D01*
X015905Y012824D01*
X015855D01*
X015829Y012850D01*
X016083Y012951D02*
X016058Y012977D01*
X016007D01*
X015982Y012951D01*
Y012926D01*
X016007Y012901D01*
X016058D01*
X016083Y012875D01*
Y012850D01*
X016058Y012824D01*
X016007D01*
X015982Y012850D01*
X006756Y009017D02*
X006731Y009042D01*
X006680D01*
X006655Y009017D01*
Y008915D01*
X006680Y008890D01*
X006731D01*
X006756Y008915D01*
X006909Y009042D02*
X006858Y009017D01*
X006807Y008966D01*
Y008915D01*
X006833Y008890D01*
X006883D01*
X006909Y008915D01*
Y008941D01*
X006883Y008966D01*
X006807D01*
X007061Y009017D02*
X007036Y009042D01*
X006985D01*
X006960Y009017D01*
Y008992D01*
X006985Y008966D01*
X007036D01*
X007061Y008941D01*
Y008915D01*
X007036Y008890D01*
X006985D01*
X006960Y008915D01*
X006731Y010744D02*
X006706Y010770D01*
X006655D01*
X006629Y010744D01*
Y010643D01*
X006655Y010617D01*
X006706D01*
X006731Y010643D01*
X006782Y010744D02*
X006807Y010770D01*
X006858D01*
X006883Y010744D01*
Y010719D01*
X006858Y010693D01*
X006883Y010668D01*
Y010643D01*
X006858Y010617D01*
X006807D01*
X006782Y010643D01*
Y010668D01*
X006807Y010693D01*
X006782Y010719D01*
Y010744D01*
X006807Y010693D02*
X006858D01*
X007036Y010744D02*
X007010Y010770D01*
X006959D01*
X006934Y010744D01*
Y010719D01*
X006959Y010693D01*
X007010D01*
X007036Y010668D01*
Y010643D01*
X007010Y010617D01*
X006959D01*
X006934Y010643D01*
X014051Y012977D02*
X014026Y013002D01*
X013975D01*
X013950Y012977D01*
Y012875D01*
X013975Y012850D01*
X014026D01*
X014051Y012875D01*
X014102Y012850D02*
X014153D01*
X014127D01*
Y013002D01*
X014102Y012977D01*
X014229Y012850D02*
X014280D01*
X014254D01*
Y013002D01*
X014229Y012977D01*
X014458D02*
X014432Y013002D01*
X014381D01*
X014356Y012977D01*
Y012951D01*
X014381Y012926D01*
X014432D01*
X014458Y012901D01*
Y012875D01*
X014432Y012850D01*
X014381D01*
X014356Y012875D01*
X010617Y008471D02*
X010592Y008496D01*
X010541D01*
X010516Y008471D01*
Y008369D01*
X010541Y008344D01*
X010592D01*
X010617Y008369D01*
X010668Y008344D02*
X010719D01*
X010693D01*
Y008496D01*
X010668Y008471D01*
X010896Y008496D02*
X010846Y008471D01*
X010795Y008420D01*
Y008369D01*
X010820Y008344D01*
X010871D01*
X010896Y008369D01*
Y008395D01*
X010871Y008420D01*
X010795D01*
X011049Y008471D02*
X011023Y008496D01*
X010973D01*
X010947Y008471D01*
Y008445D01*
X010973Y008420D01*
X011023D01*
X011049Y008395D01*
Y008369D01*
X011023Y008344D01*
X010973D01*
X010947Y008369D01*
X018580Y006236D02*
X018605Y006261D01*
Y006312D01*
X018580Y006337D01*
X018478D01*
X018453Y006312D01*
Y006261D01*
X018478Y006236D01*
X018453Y006185D02*
Y006134D01*
Y006160D01*
X018605D01*
X018580Y006185D01*
X018605Y006058D02*
Y005956D01*
X018580D01*
X018478Y006058D01*
X018453D01*
X018580Y005804D02*
X018605Y005829D01*
Y005880D01*
X018580Y005906D01*
X018555D01*
X018529Y005880D01*
Y005829D01*
X018504Y005804D01*
X018478D01*
X018453Y005829D01*
Y005880D01*
X018478Y005906D01*
X010645Y007556D02*
X010620Y007582D01*
X010569D01*
X010544Y007556D01*
Y007455D01*
X010569Y007429D01*
X010620D01*
X010645Y007455D01*
X010696Y007429D02*
X010747D01*
X010721D01*
Y007582D01*
X010696Y007556D01*
X010823D02*
X010848Y007582D01*
X010899D01*
X010924Y007556D01*
Y007531D01*
X010899Y007506D01*
X010924Y007480D01*
Y007455D01*
X010899Y007429D01*
X010848D01*
X010823Y007455D01*
Y007480D01*
X010848Y007506D01*
X010823Y007531D01*
Y007556D01*
X010848Y007506D02*
X010899D01*
X011077Y007556D02*
X011051Y007582D01*
X011001D01*
X010975Y007556D01*
Y007531D01*
X011001Y007506D01*
X011051D01*
X011077Y007480D01*
Y007455D01*
X011051Y007429D01*
X011001D01*
X010975Y007455D01*
X018593Y007671D02*
X018618Y007696D01*
Y007747D01*
X018593Y007772D01*
X018491D01*
X018466Y007747D01*
Y007696D01*
X018491Y007671D01*
X018466Y007620D02*
Y007569D01*
Y007595D01*
X018618D01*
X018593Y007620D01*
X018491Y007493D02*
X018466Y007468D01*
Y007417D01*
X018491Y007392D01*
X018593D01*
X018618Y007417D01*
Y007468D01*
X018593Y007493D01*
X018567D01*
X018542Y007468D01*
Y007392D01*
X018593Y007239D02*
X018618Y007265D01*
Y007315D01*
X018593Y007341D01*
X018567D01*
X018542Y007315D01*
Y007265D01*
X018517Y007239D01*
X018491D01*
X018466Y007265D01*
Y007315D01*
X018491Y007341D01*
X009469Y011669D02*
X009418D01*
X009393Y011643D01*
Y011542D01*
X009418Y011516D01*
X009469D01*
X009494Y011542D01*
Y011643D01*
X009469Y011669D01*
X009545Y011516D02*
X009596D01*
X009571D01*
Y011669D01*
X009545Y011643D01*
X013525Y011633D02*
X013475D01*
X013449Y011608D01*
Y011506D01*
X013475Y011481D01*
X013525D01*
X013551Y011506D01*
Y011608D01*
X013525Y011633D01*
X013703Y011481D02*
X013602D01*
X013703Y011582D01*
Y011608D01*
X013678Y011633D01*
X013627D01*
X013602Y011608D01*
X014574Y011669D02*
X014524D01*
X014498Y011643D01*
Y011542D01*
X014524Y011516D01*
X014574D01*
X014600Y011542D01*
Y011643D01*
X014574Y011669D01*
X014727Y011516D02*
Y011669D01*
X014651Y011593D01*
X014752D01*
X011112Y010706D02*
X011062D01*
X011036Y010681D01*
Y010579D01*
X011062Y010554D01*
X011112D01*
X011138Y010579D01*
Y010681D01*
X011112Y010706D01*
X011290D02*
X011189D01*
Y010630D01*
X011239Y010655D01*
X011265D01*
X011290Y010630D01*
Y010579D01*
X011265Y010554D01*
X011214D01*
X011189Y010579D01*
X008009Y011714D02*
Y011867D01*
X008085D01*
X008110Y011841D01*
Y011791D01*
X008085Y011765D01*
X008009D01*
X008059D02*
X008110Y011714D01*
X008161Y011867D02*
X008263D01*
Y011841D01*
X008161Y011740D01*
Y011714D01*
X008415Y011841D02*
X008389Y011867D01*
X008339D01*
X008313Y011841D01*
Y011816D01*
X008339Y011791D01*
X008389D01*
X008415Y011765D01*
Y011740D01*
X008389Y011714D01*
X008339D01*
X008313Y011740D01*
X008009Y010584D02*
Y010737D01*
X008085D01*
X008110Y010711D01*
Y010660D01*
X008085Y010635D01*
X008009D01*
X008059D02*
X008110Y010584D01*
X008161D02*
X008212D01*
X008186D01*
Y010737D01*
X008161Y010711D01*
X008288D02*
X008313Y010737D01*
X008364D01*
X008389Y010711D01*
Y010610D01*
X008364Y010584D01*
X008313D01*
X008288Y010610D01*
Y010711D01*
X008542D02*
X008516Y010737D01*
X008466D01*
X008440Y010711D01*
Y010686D01*
X008466Y010660D01*
X008516D01*
X008542Y010635D01*
Y010610D01*
X008516Y010584D01*
X008466D01*
X008440Y010610D01*
X016561Y006871D02*
X016713D01*
Y006795D01*
X016688Y006769D01*
X016637D01*
X016612Y006795D01*
Y006871D01*
Y006820D02*
X016561Y006769D01*
Y006718D02*
Y006668D01*
Y006693D01*
X016713D01*
X016688Y006718D01*
X016561Y006591D02*
Y006541D01*
Y006566D01*
X016713D01*
X016688Y006591D01*
Y006363D02*
X016713Y006388D01*
Y006439D01*
X016688Y006464D01*
X016662D01*
X016637Y006439D01*
Y006388D01*
X016612Y006363D01*
X016586D01*
X016561Y006388D01*
Y006439D01*
X016586Y006464D01*
X008009Y010019D02*
Y010171D01*
X008085D01*
X008110Y010146D01*
Y010095D01*
X008085Y010070D01*
X008009D01*
X008059D02*
X008110Y010019D01*
X008161D02*
X008212D01*
X008186D01*
Y010171D01*
X008161Y010146D01*
X008288D02*
X008313Y010171D01*
X008364D01*
X008389Y010146D01*
Y010121D01*
X008364Y010095D01*
X008339D01*
X008364D01*
X008389Y010070D01*
Y010044D01*
X008364Y010019D01*
X008313D01*
X008288Y010044D01*
X008542Y010146D02*
X008516Y010171D01*
X008466D01*
X008440Y010146D01*
Y010121D01*
X008466Y010095D01*
X008516D01*
X008542Y010070D01*
Y010044D01*
X008516Y010019D01*
X008466D01*
X008440Y010044D01*
X014638Y012857D02*
Y013010D01*
X014714D01*
X014740Y012984D01*
Y012934D01*
X014714Y012908D01*
X014638D01*
X014689D02*
X014740Y012857D01*
X014790D02*
X014841D01*
X014816D01*
Y013010D01*
X014790Y012984D01*
X014917Y013010D02*
X015019D01*
Y012984D01*
X014917Y012883D01*
Y012857D01*
X015171Y012984D02*
X015146Y013010D01*
X015095D01*
X015070Y012984D01*
Y012959D01*
X015095Y012934D01*
X015146D01*
X015171Y012908D01*
Y012883D01*
X015146Y012857D01*
X015095D01*
X015070Y012883D01*
X014638Y012388D02*
Y012540D01*
X014714D01*
X014740Y012515D01*
Y012464D01*
X014714Y012438D01*
X014638D01*
X014689D02*
X014740Y012388D01*
X014790D02*
X014841D01*
X014816D01*
Y012540D01*
X014790Y012515D01*
X014917D02*
X014943Y012540D01*
X014994D01*
X015019Y012515D01*
Y012489D01*
X014994Y012464D01*
X015019Y012438D01*
Y012413D01*
X014994Y012388D01*
X014943D01*
X014917Y012413D01*
Y012438D01*
X014943Y012464D01*
X014917Y012489D01*
Y012515D01*
X014943Y012464D02*
X014994D01*
X015171Y012515D02*
X015146Y012540D01*
X015095D01*
X015070Y012515D01*
Y012489D01*
X015095Y012464D01*
X015146D01*
X015171Y012438D01*
Y012413D01*
X015146Y012388D01*
X015095D01*
X015070Y012413D01*
X008009Y009454D02*
Y009606D01*
X008085D01*
X008110Y009581D01*
Y009530D01*
X008085Y009505D01*
X008009D01*
X008059D02*
X008110Y009454D01*
X008161D02*
X008212D01*
X008186D01*
Y009606D01*
X008161Y009581D01*
X008288Y009479D02*
X008313Y009454D01*
X008364D01*
X008389Y009479D01*
Y009581D01*
X008364Y009606D01*
X008313D01*
X008288Y009581D01*
Y009555D01*
X008313Y009530D01*
X008389D01*
X008542Y009581D02*
X008516Y009606D01*
X008466D01*
X008440Y009581D01*
Y009555D01*
X008466Y009530D01*
X008516D01*
X008542Y009505D01*
Y009479D01*
X008516Y009454D01*
X008466D01*
X008440Y009479D01*
X008009Y011149D02*
Y011302D01*
X008085D01*
X008110Y011276D01*
Y011226D01*
X008085Y011200D01*
X008009D01*
X008059D02*
X008110Y011149D01*
X008263D02*
X008161D01*
X008263Y011251D01*
Y011276D01*
X008237Y011302D01*
X008186D01*
X008161Y011276D01*
X008415Y011302D02*
X008313D01*
Y011226D01*
X008364Y011251D01*
X008389D01*
X008415Y011226D01*
Y011175D01*
X008389Y011149D01*
X008339D01*
X008313Y011175D01*
X008567Y011276D02*
X008542Y011302D01*
X008491D01*
X008466Y011276D01*
Y011251D01*
X008491Y011226D01*
X008542D01*
X008567Y011200D01*
Y011175D01*
X008542Y011149D01*
X008491D01*
X008466Y011175D01*
X024181Y005677D02*
X024232Y005575D01*
X024282Y005677D01*
X024359D02*
X024409D01*
X024435Y005651D01*
Y005575D01*
X024359D01*
X024333Y005601D01*
X024359Y005626D01*
X024435D01*
X024587Y005677D02*
X024511D01*
X024486Y005651D01*
Y005601D01*
X024511Y005575D01*
X024587D01*
X024638Y005550D02*
X024739D01*
X024790Y005575D02*
X024866D01*
X024892Y005601D01*
X024866Y005626D01*
X024816D01*
X024790Y005651D01*
X024816Y005677D01*
X024892D01*
X025019Y005575D02*
X024968D01*
X024943Y005601D01*
Y005651D01*
X024968Y005677D01*
X025019D01*
X025044Y005651D01*
Y005626D01*
X024943D01*
X025095Y005575D02*
Y005677D01*
X025171D01*
X025196Y005651D01*
Y005575D01*
X025247D02*
X025323D01*
X025349Y005601D01*
X025323Y005626D01*
X025273D01*
X025247Y005651D01*
X025273Y005677D01*
X025349D01*
X025425Y005575D02*
X025476D01*
X025501Y005601D01*
Y005651D01*
X025476Y005677D01*
X025425D01*
X025400Y005651D01*
Y005601D01*
X025425Y005575D01*
X025552Y005677D02*
Y005575D01*
Y005626D01*
X025577Y005651D01*
X025603Y005677D01*
X025628D01*
X029147Y009969D02*
X029248Y010020D01*
X029147Y010071D01*
X029096Y010122D02*
X029248D01*
Y010198D01*
X029223Y010223D01*
X029197D01*
X029172D01*
X029147Y010198D01*
Y010122D01*
Y010300D02*
Y010350D01*
X029172Y010376D01*
X029248D01*
Y010300D01*
X029223Y010274D01*
X029197Y010300D01*
Y010376D01*
X029121Y010452D02*
X029147D01*
Y010427D01*
Y010477D01*
Y010452D01*
X029223D01*
X029248Y010477D01*
X029121Y010579D02*
X029147D01*
Y010554D01*
Y010604D01*
Y010579D01*
X029223D01*
X029248Y010604D01*
X029273Y010680D02*
Y010782D01*
X029248Y010833D02*
Y010884D01*
Y010858D01*
X029147D01*
Y010833D01*
X029248Y010960D02*
X029147D01*
Y011036D01*
X029172Y011061D01*
X029248D01*
X012941Y008070D02*
X012992Y007968D01*
X013043Y008070D01*
X013094Y008120D02*
Y007968D01*
X013170D01*
X013195Y007993D01*
Y008019D01*
Y008044D01*
X013170Y008070D01*
X013094D01*
X013271D02*
X013322D01*
X013348Y008044D01*
Y007968D01*
X013271D01*
X013246Y007993D01*
X013271Y008019D01*
X013348D01*
X013424Y008095D02*
Y008070D01*
X013398D01*
X013449D01*
X013424D01*
Y007993D01*
X013449Y007968D01*
X013551Y008095D02*
Y008070D01*
X013525D01*
X013576D01*
X013551D01*
Y007993D01*
X013576Y007968D01*
X013652Y007943D02*
X013754D01*
X013805Y007968D02*
X013881D01*
X013906Y007993D01*
X013881Y008019D01*
X013830D01*
X013805Y008044D01*
X013830Y008070D01*
X013906D01*
X014033Y007968D02*
X013982D01*
X013957Y007993D01*
Y008044D01*
X013982Y008070D01*
X014033D01*
X014059Y008044D01*
Y008019D01*
X013957D01*
X014109Y007968D02*
Y008070D01*
X014185D01*
X014211Y008044D01*
Y007968D01*
X014262D02*
X014338D01*
X014363Y007993D01*
X014338Y008019D01*
X014287D01*
X014262Y008044D01*
X014287Y008070D01*
X014363D01*
X014439Y007968D02*
X014490D01*
X014516Y007993D01*
Y008044D01*
X014490Y008070D01*
X014439D01*
X014414Y008044D01*
Y007993D01*
X014439Y007968D01*
X014566Y008070D02*
Y007968D01*
Y008019D01*
X014592Y008044D01*
X014617Y008070D01*
X014643D01*
X029147Y008611D02*
X029248Y008661D01*
X029147Y008712D01*
X029096Y008865D02*
X029248D01*
Y008788D01*
X029223Y008763D01*
X029172D01*
X029147Y008788D01*
Y008865D01*
Y009017D02*
Y008941D01*
X029172Y008915D01*
X029223D01*
X029248Y008941D01*
Y009017D01*
X029273Y009068D02*
Y009169D01*
X029248Y009220D02*
Y009271D01*
Y009245D01*
X029147D01*
Y009220D01*
X029248Y009347D02*
X029147D01*
Y009423D01*
X029172Y009449D01*
X029248D01*
X019647Y008120D02*
X019698Y008019D01*
X019748Y008120D01*
X019901Y008171D02*
Y008019D01*
X019825D01*
X019799Y008044D01*
Y008095D01*
X019825Y008120D01*
X019901D01*
X020053D02*
X019977D01*
X019952Y008095D01*
Y008044D01*
X019977Y008019D01*
X020053D01*
X020104Y007993D02*
X020206D01*
X020256Y008019D02*
X020332D01*
X020358Y008044D01*
X020332Y008070D01*
X020282D01*
X020256Y008095D01*
X020282Y008120D01*
X020358D01*
X020485Y008019D02*
X020434D01*
X020409Y008044D01*
Y008095D01*
X020434Y008120D01*
X020485D01*
X020510Y008095D01*
Y008070D01*
X020409D01*
X020561Y008019D02*
Y008120D01*
X020637D01*
X020663Y008095D01*
Y008019D01*
X020713D02*
X020790D01*
X020815Y008044D01*
X020790Y008070D01*
X020739D01*
X020713Y008095D01*
X020739Y008120D01*
X020815D01*
X020891Y008019D02*
X020942D01*
X020967Y008044D01*
Y008095D01*
X020942Y008120D01*
X020891D01*
X020866Y008095D01*
Y008044D01*
X020891Y008019D01*
X021018Y008120D02*
Y008019D01*
Y008070D01*
X021043Y008095D01*
X021069Y008120D01*
X021094D01*
X029070Y011646D02*
Y011544D01*
X029147D01*
X029121Y011595D01*
Y011620D01*
X029147Y011646D01*
X029197D01*
X029223Y011620D01*
Y011570D01*
X029197Y011544D01*
X029070Y011697D02*
X029172D01*
X029223Y011747D01*
X029172Y011798D01*
X029070D01*
X029223Y011849D02*
Y011900D01*
Y011874D01*
X029070D01*
X029096Y011849D01*
X029248Y011976D02*
Y012078D01*
X029070Y012204D02*
Y012154D01*
X029096Y012128D01*
X029197D01*
X029223Y012154D01*
Y012204D01*
X029197Y012230D01*
X029096D01*
X029070Y012204D01*
Y012281D02*
X029197D01*
X029223Y012306D01*
Y012357D01*
X029197Y012382D01*
X029070D01*
Y012433D02*
Y012535D01*
Y012484D01*
X029223D01*
X027409Y023292D02*
X027384Y023317D01*
X027333D01*
X027308Y023292D01*
Y023190D01*
X027333Y023165D01*
X027384D01*
X027409Y023190D01*
X027561Y023292D02*
X027536Y023317D01*
X027485D01*
X027460Y023292D01*
Y023190D01*
X027485Y023165D01*
X027536D01*
X027561Y023190D01*
X027612Y023165D02*
X027663D01*
X027638D01*
Y023317D01*
X027612Y023292D01*
X027739Y023165D02*
Y023317D01*
X027815D01*
X027841Y023292D01*
Y023241D01*
X027815Y023216D01*
X027739D01*
X017818Y016622D02*
X017793Y016647D01*
X017742D01*
X017716Y016622D01*
Y016520D01*
X017742Y016495D01*
X017793D01*
X017818Y016520D01*
X017970Y016622D02*
X017945Y016647D01*
X017894D01*
X017869Y016622D01*
Y016520D01*
X017894Y016495D01*
X017945D01*
X017970Y016520D01*
X018123Y016495D02*
X018021D01*
X018123Y016596D01*
Y016622D01*
X018097Y016647D01*
X018047D01*
X018021Y016622D01*
X018174Y016495D02*
Y016647D01*
X018250D01*
X018275Y016622D01*
Y016571D01*
X018250Y016546D01*
X018174D01*
X026251Y012662D02*
X026225Y012687D01*
X026175D01*
X026149Y012662D01*
Y012560D01*
X026175Y012535D01*
X026225D01*
X026251Y012560D01*
X026403Y012662D02*
X026378Y012687D01*
X026327D01*
X026302Y012662D01*
Y012560D01*
X026327Y012535D01*
X026378D01*
X026403Y012560D01*
X026454Y012662D02*
X026479Y012687D01*
X026530D01*
X026556Y012662D01*
Y012636D01*
X026530Y012611D01*
X026505D01*
X026530D01*
X026556Y012586D01*
Y012560D01*
X026530Y012535D01*
X026479D01*
X026454Y012560D01*
X026606Y012535D02*
Y012687D01*
X026683D01*
X026708Y012662D01*
Y012611D01*
X026683Y012586D01*
X026606D01*
X025768Y010109D02*
X025794Y010135D01*
Y010185D01*
X025768Y010211D01*
X025667D01*
X025641Y010185D01*
Y010135D01*
X025667Y010109D01*
X025768Y009957D02*
X025794Y009982D01*
Y010033D01*
X025768Y010058D01*
X025667D01*
X025641Y010033D01*
Y009982D01*
X025667Y009957D01*
X025641Y009830D02*
X025794D01*
X025717Y009906D01*
Y009805D01*
X025641Y009754D02*
X025794D01*
Y009678D01*
X025768Y009652D01*
X025717D01*
X025692Y009678D01*
Y009754D01*
X025794Y008306D02*
X025768Y008331D01*
X025717D01*
X025692Y008306D01*
Y008204D01*
X025717Y008179D01*
X025768D01*
X025794Y008204D01*
X025946Y008306D02*
X025921Y008331D01*
X025870D01*
X025844Y008306D01*
Y008204D01*
X025870Y008179D01*
X025921D01*
X025946Y008204D01*
X026098Y008331D02*
X025997D01*
Y008255D01*
X026048Y008280D01*
X026073D01*
X026098Y008255D01*
Y008204D01*
X026073Y008179D01*
X026022D01*
X025997Y008204D01*
X026149Y008179D02*
Y008331D01*
X026225D01*
X026251Y008306D01*
Y008255D01*
X026225Y008230D01*
X026149D01*
X015557Y018882D02*
X015532Y018908D01*
X015481D01*
X015456Y018882D01*
Y018781D01*
X015481Y018755D01*
X015532D01*
X015557Y018781D01*
X015710Y018882D02*
X015684Y018908D01*
X015634D01*
X015608Y018882D01*
Y018781D01*
X015634Y018755D01*
X015684D01*
X015710Y018781D01*
X015761Y018882D02*
X015786Y018908D01*
X015837D01*
X015862Y018882D01*
Y018857D01*
X015837Y018832D01*
X015862Y018806D01*
Y018781D01*
X015837Y018755D01*
X015786D01*
X015761Y018781D01*
Y018806D01*
X015786Y018832D01*
X015761Y018857D01*
Y018882D01*
X015786Y018832D02*
X015837D01*
X016015Y018882D02*
X015989Y018908D01*
X015938D01*
X015913Y018882D01*
Y018781D01*
X015938Y018755D01*
X015989D01*
X016015Y018781D01*
Y018832D01*
X015964D01*
X020472Y018745D02*
X020447Y018771D01*
X020396D01*
X020371Y018745D01*
Y018644D01*
X020396Y018618D01*
X020447D01*
X020472Y018644D01*
X020625Y018745D02*
X020599Y018771D01*
X020549D01*
X020523Y018745D01*
Y018644D01*
X020549Y018618D01*
X020599D01*
X020625Y018644D01*
X020676D02*
X020701Y018618D01*
X020752D01*
X020777Y018644D01*
Y018745D01*
X020752Y018771D01*
X020701D01*
X020676Y018745D01*
Y018720D01*
X020701Y018694D01*
X020777D01*
X020929Y018745D02*
X020904Y018771D01*
X020853D01*
X020828Y018745D01*
Y018644D01*
X020853Y018618D01*
X020904D01*
X020929Y018644D01*
Y018694D01*
X020879D01*
X005944Y020853D02*
X005969Y020879D01*
Y020930D01*
X005944Y020955D01*
X005842D01*
X005817Y020930D01*
Y020879D01*
X005842Y020853D01*
X005817Y020803D02*
Y020752D01*
Y020777D01*
X005969D01*
X005944Y020803D01*
Y020574D02*
X005969Y020600D01*
Y020650D01*
X005944Y020676D01*
X005842D01*
X005817Y020650D01*
Y020600D01*
X005842Y020574D01*
X005893D01*
Y020625D01*
X006579Y021933D02*
X006604Y021958D01*
Y022009D01*
X006579Y022035D01*
X006477D01*
X006452Y022009D01*
Y021958D01*
X006477Y021933D01*
X006452Y021781D02*
Y021882D01*
X006553Y021781D01*
X006579D01*
X006604Y021806D01*
Y021857D01*
X006579Y021882D01*
Y021628D02*
X006604Y021654D01*
Y021704D01*
X006579Y021730D01*
X006477D01*
X006452Y021704D01*
Y021654D01*
X006477Y021628D01*
X006528D01*
Y021679D01*
X010376Y020777D02*
X010401Y020803D01*
Y020853D01*
X010376Y020879D01*
X010274D01*
X010249Y020853D01*
Y020803D01*
X010274Y020777D01*
X010376Y020726D02*
X010401Y020701D01*
Y020650D01*
X010376Y020625D01*
X010350D01*
X010325Y020650D01*
Y020676D01*
Y020650D01*
X010300Y020625D01*
X010274D01*
X010249Y020650D01*
Y020701D01*
X010274Y020726D01*
X010376Y020473D02*
X010401Y020498D01*
Y020549D01*
X010376Y020574D01*
X010274D01*
X010249Y020549D01*
Y020498D01*
X010274Y020473D01*
X010325D01*
Y020523D01*
X010427Y022860D02*
X010452Y022885D01*
Y022936D01*
X010427Y022962D01*
X010325D01*
X010300Y022936D01*
Y022885D01*
X010325Y022860D01*
X010300Y022733D02*
X010452D01*
X010376Y022809D01*
Y022708D01*
X010427Y022555D02*
X010452Y022581D01*
Y022632D01*
X010427Y022657D01*
X010325D01*
X010300Y022632D01*
Y022581D01*
X010325Y022555D01*
X010376D01*
Y022606D01*
X012852Y019787D02*
X012878Y019812D01*
Y019863D01*
X012852Y019888D01*
X012751D01*
X012725Y019863D01*
Y019812D01*
X012751Y019787D01*
X012878Y019634D02*
Y019736D01*
X012802D01*
X012827Y019685D01*
Y019660D01*
X012802Y019634D01*
X012751D01*
X012725Y019660D01*
Y019710D01*
X012751Y019736D01*
X012852Y019482D02*
X012878Y019507D01*
Y019558D01*
X012852Y019583D01*
X012751D01*
X012725Y019558D01*
Y019507D01*
X012751Y019482D01*
X012802D01*
Y019533D01*
X013017Y021057D02*
X013043Y021082D01*
Y021133D01*
X013017Y021158D01*
X012916D01*
X012890Y021133D01*
Y021082D01*
X012916Y021057D01*
X013043Y020904D02*
X013017Y020955D01*
X012967Y021006D01*
X012916D01*
X012890Y020980D01*
Y020930D01*
X012916Y020904D01*
X012941D01*
X012967Y020930D01*
Y021006D01*
X013017Y020752D02*
X013043Y020777D01*
Y020828D01*
X013017Y020853D01*
X012916D01*
X012890Y020828D01*
Y020777D01*
X012916Y020752D01*
X012967D01*
Y020803D01*
X013881Y021984D02*
X013906Y022009D01*
Y022060D01*
X013881Y022085D01*
X013779D01*
X013754Y022060D01*
Y022009D01*
X013779Y021984D01*
X013906Y021933D02*
Y021831D01*
X013881D01*
X013779Y021933D01*
X013754D01*
X013881Y021679D02*
X013906Y021704D01*
Y021755D01*
X013881Y021781D01*
X013779D01*
X013754Y021755D01*
Y021704D01*
X013779Y021679D01*
X013830D01*
Y021730D01*
X015151Y021971D02*
X015176Y021996D01*
Y022047D01*
X015151Y022073D01*
X015049D01*
X015024Y022047D01*
Y021996D01*
X015049Y021971D01*
X015151Y021920D02*
X015176Y021895D01*
Y021844D01*
X015151Y021819D01*
X015126D01*
X015100Y021844D01*
X015075Y021819D01*
X015049D01*
X015024Y021844D01*
Y021895D01*
X015049Y021920D01*
X015075D01*
X015100Y021895D01*
X015126Y021920D01*
X015151D01*
X015100Y021895D02*
Y021844D01*
X015151Y021666D02*
X015176Y021692D01*
Y021743D01*
X015151Y021768D01*
X015049D01*
X015024Y021743D01*
Y021692D01*
X015049Y021666D01*
X015100D01*
Y021717D01*
X017196Y021971D02*
X017221Y021996D01*
Y022047D01*
X017196Y022073D01*
X017094D01*
X017069Y022047D01*
Y021996D01*
X017094Y021971D01*
Y021920D02*
X017069Y021895D01*
Y021844D01*
X017094Y021819D01*
X017196D01*
X017221Y021844D01*
Y021895D01*
X017196Y021920D01*
X017170D01*
X017145Y021895D01*
Y021819D01*
X017196Y021666D02*
X017221Y021692D01*
Y021743D01*
X017196Y021768D01*
X017094D01*
X017069Y021743D01*
Y021692D01*
X017094Y021666D01*
X017145D01*
Y021717D01*
X017704Y020714D02*
X017729Y020739D01*
Y020790D01*
X017704Y020815D01*
X017602D01*
X017577Y020790D01*
Y020739D01*
X017602Y020714D01*
X017577Y020663D02*
Y020612D01*
Y020638D01*
X017729D01*
X017704Y020663D01*
Y020536D02*
X017729Y020511D01*
Y020460D01*
X017704Y020434D01*
X017602D01*
X017577Y020460D01*
Y020511D01*
X017602Y020536D01*
X017704D01*
Y020282D02*
X017729Y020307D01*
Y020358D01*
X017704Y020384D01*
X017602D01*
X017577Y020358D01*
Y020307D01*
X017602Y020282D01*
X017653D01*
Y020333D01*
X022415Y020841D02*
X022441Y020866D01*
Y020917D01*
X022415Y020942D01*
X022314D01*
X022288Y020917D01*
Y020866D01*
X022314Y020841D01*
X022288Y020790D02*
Y020739D01*
Y020765D01*
X022441D01*
X022415Y020790D01*
X022288Y020663D02*
Y020612D01*
Y020638D01*
X022441D01*
X022415Y020663D01*
Y020434D02*
X022441Y020460D01*
Y020511D01*
X022415Y020536D01*
X022314D01*
X022288Y020511D01*
Y020460D01*
X022314Y020434D01*
X022365D01*
Y020485D01*
X021958Y022022D02*
X021984Y022047D01*
Y022098D01*
X021958Y022123D01*
X021857D01*
X021831Y022098D01*
Y022047D01*
X021857Y022022D01*
X021831Y021971D02*
Y021920D01*
Y021946D01*
X021984D01*
X021958Y021971D01*
X021831Y021743D02*
Y021844D01*
X021933Y021743D01*
X021958D01*
X021984Y021768D01*
Y021819D01*
X021958Y021844D01*
Y021590D02*
X021984Y021616D01*
Y021666D01*
X021958Y021692D01*
X021857D01*
X021831Y021666D01*
Y021616D01*
X021857Y021590D01*
X021907D01*
Y021641D01*
X026581Y022835D02*
X026556Y022860D01*
X026505D01*
X026480Y022835D01*
Y022733D01*
X026505Y022708D01*
X026556D01*
X026581Y022733D01*
X026733Y022860D02*
X026632D01*
Y022784D01*
X026683Y022809D01*
X026708D01*
X026733Y022784D01*
Y022733D01*
X026708Y022708D01*
X026657D01*
X026632Y022733D01*
X025095Y012611D02*
X025070Y012636D01*
X025019D01*
X024994Y012611D01*
Y012509D01*
X025019Y012484D01*
X025070D01*
X025095Y012509D01*
X025146Y012484D02*
X025197D01*
X025171D01*
Y012636D01*
X025146Y012611D01*
X025146Y010935D02*
X025121Y010960D01*
X025070D01*
X025044Y010935D01*
Y010833D01*
X025070Y010808D01*
X025121D01*
X025146Y010833D01*
X025298Y010808D02*
X025197D01*
X025298Y010909D01*
Y010935D01*
X025273Y010960D01*
X025222D01*
X025197Y010935D01*
X025235Y009093D02*
X025260Y009119D01*
Y009169D01*
X025235Y009195D01*
X025133D01*
X025108Y009169D01*
Y009119D01*
X025133Y009093D01*
X025235Y009042D02*
X025260Y009017D01*
Y008966D01*
X025235Y008941D01*
X025209D01*
X025184Y008966D01*
Y008992D01*
Y008966D01*
X025159Y008941D01*
X025133D01*
X025108Y008966D01*
Y009017D01*
X025133Y009042D01*
X017666Y006058D02*
X017640Y006083D01*
X017589D01*
X017564Y006058D01*
Y005956D01*
X017589Y005931D01*
X017640D01*
X017666Y005956D01*
X017716Y005931D02*
X017767D01*
X017742D01*
Y006083D01*
X017716Y006058D01*
X017843D02*
X017869Y006083D01*
X017920D01*
X017945Y006058D01*
Y006032D01*
X017920Y006007D01*
X017894D01*
X017920D01*
X017945Y005982D01*
Y005956D01*
X017920Y005931D01*
X017869D01*
X017843Y005956D01*
X017780Y007506D02*
X017805Y007531D01*
Y007582D01*
X017780Y007607D01*
X017678D01*
X017653Y007582D01*
Y007531D01*
X017678Y007506D01*
X017653Y007455D02*
Y007404D01*
Y007430D01*
X017805D01*
X017780Y007455D01*
X017805Y007226D02*
Y007328D01*
X017729D01*
X017755Y007277D01*
Y007252D01*
X017729Y007226D01*
X017678D01*
X017653Y007252D01*
Y007303D01*
X017678Y007328D01*
X009525Y008572D02*
X009500Y008598D01*
X009449D01*
X009423Y008572D01*
Y008471D01*
X009449Y008446D01*
X009500D01*
X009525Y008471D01*
X009576Y008446D02*
X009627D01*
X009601D01*
Y008598D01*
X009576Y008572D01*
X009804Y008446D02*
X009703D01*
X009804Y008547D01*
Y008572D01*
X009779Y008598D01*
X009728D01*
X009703Y008572D01*
X009627Y006934D02*
X009601Y006960D01*
X009550D01*
X009525Y006934D01*
Y006833D01*
X009550Y006807D01*
X009601D01*
X009627Y006833D01*
X009677Y006807D02*
X009728D01*
X009703D01*
Y006960D01*
X009677Y006934D01*
X009880Y006807D02*
Y006960D01*
X009804Y006883D01*
X009906D01*
X008026Y019571D02*
X008001Y019596D01*
X007950D01*
X007925Y019571D01*
Y019469D01*
X007950Y019444D01*
X008001D01*
X008026Y019469D01*
X008077Y019444D02*
X008128D01*
X008103D01*
Y019596D01*
X008077Y019571D01*
X008204D02*
X008230Y019596D01*
X008280D01*
X008306Y019571D01*
Y019545D01*
X008280Y019520D01*
X008255D01*
X008280D01*
X008306Y019494D01*
Y019469D01*
X008280Y019444D01*
X008230D01*
X008204Y019469D01*
X008458Y019571D02*
X008433Y019596D01*
X008382D01*
X008356Y019571D01*
Y019469D01*
X008382Y019444D01*
X008433D01*
X008458Y019469D01*
Y019520D01*
X008407D01*
X008268Y017704D02*
X008242Y017729D01*
X008191D01*
X008166Y017704D01*
Y017602D01*
X008191Y017577D01*
X008242D01*
X008268Y017602D01*
X008420Y017704D02*
X008395Y017729D01*
X008344D01*
X008318Y017704D01*
Y017602D01*
X008344Y017577D01*
X008395D01*
X008420Y017602D01*
X008471Y017729D02*
X008572D01*
Y017704D01*
X008471Y017602D01*
Y017577D01*
X008725Y017704D02*
X008699Y017729D01*
X008649D01*
X008623Y017704D01*
Y017602D01*
X008649Y017577D01*
X008699D01*
X008725Y017602D01*
Y017653D01*
X008674D01*
X010909Y005778D02*
X011011D01*
X010960Y005829D02*
Y005728D01*
X011062Y005702D02*
X011112D01*
X011087D01*
Y005855D01*
X011062Y005829D01*
X011290Y005855D02*
X011189D01*
Y005778D01*
X011239Y005804D01*
X011265D01*
X011290Y005778D01*
Y005728D01*
X011265Y005702D01*
X011214D01*
X011189Y005728D01*
X011341Y005855D02*
Y005753D01*
X011392Y005702D01*
X011443Y005753D01*
Y005855D01*
X011493Y005677D02*
X011595D01*
X011722Y005855D02*
X011671D01*
X011646Y005829D01*
Y005728D01*
X011671Y005702D01*
X011722D01*
X011747Y005728D01*
Y005829D01*
X011722Y005855D01*
X011798D02*
Y005728D01*
X011823Y005702D01*
X011874D01*
X011900Y005728D01*
Y005855D01*
X011950D02*
X012052D01*
X012001D01*
Y005702D01*
X009601Y005778D02*
X009703D01*
X009754Y005702D02*
X009804D01*
X009779D01*
Y005855D01*
X009754Y005829D01*
X009982Y005855D02*
X009881D01*
Y005778D01*
X009931Y005804D01*
X009957D01*
X009982Y005778D01*
Y005728D01*
X009957Y005702D01*
X009906D01*
X009881Y005728D01*
X010033Y005855D02*
Y005753D01*
X010084Y005702D01*
X010134Y005753D01*
Y005855D01*
X010185Y005677D02*
X010287D01*
X010414Y005855D02*
X010363D01*
X010338Y005829D01*
Y005728D01*
X010363Y005702D01*
X010414D01*
X010439Y005728D01*
Y005829D01*
X010414Y005855D01*
X010490D02*
Y005728D01*
X010515Y005702D01*
X010566D01*
X010591Y005728D01*
Y005855D01*
X010642D02*
X010744D01*
X010693D01*
Y005702D01*
X006337Y005880D02*
X006236D01*
Y005804D01*
X006286Y005829D01*
X006312D01*
X006337Y005804D01*
Y005753D01*
X006312Y005728D01*
X006261D01*
X006236Y005753D01*
X006388Y005880D02*
Y005778D01*
X006439Y005728D01*
X006490Y005778D01*
Y005880D01*
X006642Y005728D02*
X006540D01*
X006642Y005829D01*
Y005855D01*
X006617Y005880D01*
X006566D01*
X006540Y005855D01*
X006693Y005702D02*
X006794D01*
X006921Y005880D02*
X006870D01*
X006845Y005855D01*
Y005753D01*
X006870Y005728D01*
X006921D01*
X006947Y005753D01*
Y005855D01*
X006921Y005880D01*
X006997D02*
Y005753D01*
X007023Y005728D01*
X007074D01*
X007099Y005753D01*
Y005880D01*
X007150D02*
X007251D01*
X007201D01*
Y005728D01*
X027877Y022581D02*
X027927D01*
X027902D01*
Y022733D01*
X027877Y022708D01*
X028105Y022733D02*
X028003D01*
Y022657D01*
X028054Y022682D01*
X028080D01*
X028105Y022657D01*
Y022606D01*
X028080Y022581D01*
X028029D01*
X028003Y022606D01*
X028156Y022733D02*
Y022631D01*
X028207Y022581D01*
X028257Y022631D01*
Y022733D01*
X028410Y022581D02*
X028308D01*
X028410Y022682D01*
Y022708D01*
X028384Y022733D01*
X028334D01*
X028308Y022708D01*
X028461Y022555D02*
X028562D01*
X028689Y022733D02*
X028638D01*
X028613Y022708D01*
Y022606D01*
X028638Y022581D01*
X028689D01*
X028714Y022606D01*
Y022708D01*
X028689Y022733D01*
X028765D02*
Y022606D01*
X028791Y022581D01*
X028841D01*
X028867Y022606D01*
Y022733D01*
X028918D02*
X029019D01*
X028968D01*
Y022581D01*
X006121Y008153D02*
X006096D01*
Y008179D01*
Y008128D01*
Y008153D01*
X006020D01*
X005994Y008128D01*
Y008026D02*
Y007976D01*
X006020Y007950D01*
X006071D01*
X006096Y007976D01*
Y008026D01*
X006071Y008052D01*
X006020D01*
X005994Y008026D01*
X005969Y007899D02*
Y007798D01*
X006096Y007722D02*
Y007671D01*
X006071Y007646D01*
X005994D01*
Y007722D01*
X006020Y007747D01*
X006045Y007722D01*
Y007646D01*
X006147Y007493D02*
X005994D01*
Y007569D01*
X006020Y007595D01*
X006071D01*
X006096Y007569D01*
Y007493D01*
Y007341D02*
Y007417D01*
X006071Y007442D01*
X006020D01*
X005994Y007417D01*
Y007341D01*
X014249Y009398D02*
X014224Y009423D01*
X014173D01*
X014148Y009398D01*
Y009296D01*
X014173Y009271D01*
X014224D01*
X014249Y009296D01*
X014402Y009271D02*
X014300D01*
X014402Y009373D01*
Y009398D01*
X014376Y009423D01*
X014326D01*
X014300Y009398D01*
X014453Y009271D02*
X014503D01*
X014478D01*
Y009423D01*
X014453Y009398D01*
X014681D02*
X014656Y009423D01*
X014605D01*
X014579Y009398D01*
Y009373D01*
X014605Y009347D01*
X014656D01*
X014681Y009322D01*
Y009296D01*
X014656Y009271D01*
X014605D01*
X014579Y009296D01*
X010566Y009220D02*
X010541Y009246D01*
X010490D01*
X010465Y009220D01*
Y009119D01*
X010490Y009093D01*
X010541D01*
X010566Y009119D01*
X010719Y009093D02*
X010617D01*
X010719Y009195D01*
Y009220D01*
X010693Y009246D01*
X010643D01*
X010617Y009220D01*
X010871Y009093D02*
X010770D01*
X010871Y009195D01*
Y009220D01*
X010846Y009246D01*
X010795D01*
X010770Y009220D01*
X011023D02*
X010998Y009246D01*
X010947D01*
X010922Y009220D01*
Y009195D01*
X010947Y009169D01*
X010998D01*
X011023Y009144D01*
Y009119D01*
X010998Y009093D01*
X010947D01*
X010922Y009119D01*
X007353Y014745D02*
X007328Y014770D01*
X007277D01*
X007252Y014745D01*
Y014643D01*
X007277Y014618D01*
X007328D01*
X007353Y014643D01*
X007404Y014770D02*
Y014618D01*
X007480D01*
X007506Y014643D01*
Y014668D01*
Y014694D01*
X007480Y014719D01*
X007404D01*
X007556D02*
Y014643D01*
X007582Y014618D01*
X007658D01*
Y014719D01*
X007734Y014618D02*
Y014745D01*
Y014694D01*
X007709D01*
X007760D01*
X007734D01*
Y014745D01*
X007760Y014770D01*
X007937Y014745D02*
X007912Y014770D01*
X007861D01*
X007836Y014745D01*
Y014643D01*
X007861Y014618D01*
X007912D01*
X007937Y014643D01*
Y014694D01*
X007886D01*
X008090Y014618D02*
X007988D01*
X008090Y014719D01*
Y014745D01*
X008064Y014770D01*
X008013D01*
X007988Y014745D01*
X026988Y007391D02*
X027140D01*
Y007315D01*
X027114Y007290D01*
X027064D01*
X027038Y007315D01*
Y007391D01*
Y007341D02*
X026988Y007290D01*
Y007163D02*
Y007214D01*
X027013Y007239D01*
X027064D01*
X027089Y007214D01*
Y007163D01*
X027064Y007137D01*
X027038D01*
Y007239D01*
X026988Y007087D02*
Y007011D01*
X027013Y006985D01*
X027038Y007011D01*
Y007061D01*
X027064Y007087D01*
X027089Y007061D01*
Y006985D01*
X027140Y006680D02*
Y006782D01*
X027064D01*
X027089Y006731D01*
Y006706D01*
X027064Y006680D01*
X027013D01*
X026988Y006706D01*
Y006757D01*
X027013Y006782D01*
X027140Y006630D02*
X026988D01*
X027038Y006579D01*
X026988Y006528D01*
X027140D01*
X005931Y018517D02*
Y018415D01*
X005982Y018364D01*
X006032Y018415D01*
Y018517D01*
X006083D02*
Y018364D01*
X006185D01*
X006236D02*
Y018466D01*
X006286Y018517D01*
X006337Y018466D01*
Y018364D01*
Y018440D01*
X006236D01*
X006388Y018364D02*
X006439D01*
X006413D01*
Y018517D01*
X006388Y018491D01*
X006515D02*
X006540Y018517D01*
X006591D01*
X006616Y018491D01*
Y018390D01*
X006591Y018364D01*
X006540D01*
X006515Y018390D01*
Y018491D01*
X006769Y018517D02*
X006718Y018491D01*
X006667Y018440D01*
Y018390D01*
X006693Y018364D01*
X006743D01*
X006769Y018390D01*
Y018415D01*
X006743Y018440D01*
X006667D01*
X006820D02*
X006921D01*
X006972Y018364D02*
X007023D01*
X006997D01*
Y018517D01*
X006972Y018491D01*
X007200Y018517D02*
X007099D01*
Y018440D01*
X007150Y018466D01*
X007175D01*
X007200Y018440D01*
Y018390D01*
X007175Y018364D01*
X007124D01*
X007099Y018390D01*
X007353Y018364D02*
X007251D01*
X007353Y018466D01*
Y018491D01*
X007327Y018517D01*
X007277D01*
X007251Y018491D01*
X007480Y018364D02*
Y018517D01*
X007404Y018440D01*
X007505D01*
X007658Y018364D02*
X007556D01*
X007658Y018466D01*
Y018491D01*
X007632Y018517D01*
X007581D01*
X007556Y018491D01*
X018618Y019431D02*
X018517D01*
X018466Y019380D01*
X018517Y019329D01*
X018618D01*
Y019279D02*
X018466D01*
Y019177D01*
Y019126D02*
X018567D01*
X018618Y019076D01*
X018567Y019025D01*
X018466D01*
X018542D01*
Y019126D01*
X018466Y018974D02*
Y018923D01*
Y018949D01*
X018618D01*
X018593Y018974D01*
Y018847D02*
X018618Y018822D01*
Y018771D01*
X018593Y018745D01*
X018491D01*
X018466Y018771D01*
Y018822D01*
X018491Y018847D01*
X018593D01*
X018618Y018593D02*
X018593Y018644D01*
X018542Y018695D01*
X018491D01*
X018466Y018669D01*
Y018618D01*
X018491Y018593D01*
X018517D01*
X018542Y018618D01*
Y018695D01*
Y018542D02*
Y018441D01*
X018466Y018390D02*
Y018339D01*
Y018365D01*
X018618D01*
X018593Y018390D01*
X018618Y018161D02*
Y018263D01*
X018542D01*
X018567Y018212D01*
Y018187D01*
X018542Y018161D01*
X018491D01*
X018466Y018187D01*
Y018238D01*
X018491Y018263D01*
X018466Y018009D02*
Y018111D01*
X018567Y018009D01*
X018593D01*
X018618Y018034D01*
Y018085D01*
X018593Y018111D01*
X018466Y017882D02*
X018618D01*
X018542Y017958D01*
Y017857D01*
X018466Y017704D02*
Y017806D01*
X018567Y017704D01*
X018593D01*
X018618Y017730D01*
Y017781D01*
X018593Y017806D01*
X009385Y018517D02*
Y018415D01*
X009436Y018364D01*
X009487Y018415D01*
Y018517D01*
X009538D02*
Y018364D01*
X009639D01*
X009690D02*
Y018466D01*
X009741Y018517D01*
X009792Y018466D01*
Y018364D01*
Y018440D01*
X009690D01*
X009842Y018364D02*
X009893D01*
X009868D01*
Y018517D01*
X009842Y018491D01*
X009969D02*
X009995Y018517D01*
X010045D01*
X010071Y018491D01*
Y018390D01*
X010045Y018364D01*
X009995D01*
X009969Y018390D01*
Y018491D01*
X010223Y018517D02*
X010172Y018491D01*
X010122Y018440D01*
Y018390D01*
X010147Y018364D01*
X010198D01*
X010223Y018390D01*
Y018415D01*
X010198Y018440D01*
X010122D01*
X010274D02*
X010376D01*
X010426Y018364D02*
X010477D01*
X010452D01*
Y018517D01*
X010426Y018491D01*
X010655Y018517D02*
X010553D01*
Y018440D01*
X010604Y018466D01*
X010629D01*
X010655Y018440D01*
Y018390D01*
X010629Y018364D01*
X010579D01*
X010553Y018390D01*
X010807Y018364D02*
X010706D01*
X010807Y018466D01*
Y018491D01*
X010782Y018517D01*
X010731D01*
X010706Y018491D01*
X010934Y018364D02*
Y018517D01*
X010858Y018440D01*
X010960D01*
X011112Y018364D02*
X011010D01*
X011112Y018466D01*
Y018491D01*
X011087Y018517D01*
X011036D01*
X011010Y018491D01*
X016688Y019431D02*
X016586D01*
X016535Y019380D01*
X016586Y019329D01*
X016688D01*
Y019279D02*
X016535D01*
Y019177D01*
Y019126D02*
X016637D01*
X016688Y019076D01*
X016637Y019025D01*
X016535D01*
X016612D01*
Y019126D01*
X016535Y018974D02*
Y018923D01*
Y018949D01*
X016688D01*
X016662Y018974D01*
Y018847D02*
X016688Y018822D01*
Y018771D01*
X016662Y018745D01*
X016561D01*
X016535Y018771D01*
Y018822D01*
X016561Y018847D01*
X016662D01*
X016688Y018593D02*
X016662Y018644D01*
X016612Y018695D01*
X016561D01*
X016535Y018669D01*
Y018618D01*
X016561Y018593D01*
X016586D01*
X016612Y018618D01*
Y018695D01*
Y018542D02*
Y018441D01*
X016535Y018390D02*
Y018339D01*
Y018365D01*
X016688D01*
X016662Y018390D01*
X016688Y018161D02*
Y018263D01*
X016612D01*
X016637Y018212D01*
Y018187D01*
X016612Y018161D01*
X016561D01*
X016535Y018187D01*
Y018238D01*
X016561Y018263D01*
X016535Y018009D02*
Y018111D01*
X016637Y018009D01*
X016662D01*
X016688Y018034D01*
Y018085D01*
X016662Y018111D01*
X016535Y017882D02*
X016688D01*
X016612Y017958D01*
Y017857D01*
X016535Y017704D02*
Y017806D01*
X016637Y017704D01*
X016662D01*
X016688Y017730D01*
Y017781D01*
X016662Y017806D01*
X021488Y019380D02*
X021387D01*
X021336Y019329D01*
X021387Y019279D01*
X021488D01*
Y019228D02*
X021336D01*
Y019126D01*
Y019075D02*
X021438D01*
X021488Y019025D01*
X021438Y018974D01*
X021336D01*
X021412D01*
Y019075D01*
X021336Y018923D02*
Y018872D01*
Y018898D01*
X021488D01*
X021463Y018923D01*
Y018796D02*
X021488Y018771D01*
Y018720D01*
X021463Y018695D01*
X021361D01*
X021336Y018720D01*
Y018771D01*
X021361Y018796D01*
X021463D01*
X021488Y018542D02*
X021463Y018593D01*
X021412Y018644D01*
X021361D01*
X021336Y018618D01*
Y018568D01*
X021361Y018542D01*
X021387D01*
X021412Y018568D01*
Y018644D01*
Y018491D02*
Y018390D01*
X021336Y018339D02*
Y018288D01*
Y018314D01*
X021488D01*
X021463Y018339D01*
X021488Y018111D02*
Y018212D01*
X021412D01*
X021438Y018161D01*
Y018136D01*
X021412Y018111D01*
X021361D01*
X021336Y018136D01*
Y018187D01*
X021361Y018212D01*
X021336Y017958D02*
Y018060D01*
X021438Y017958D01*
X021463D01*
X021488Y017984D01*
Y018034D01*
X021463Y018060D01*
X021336Y017831D02*
X021488D01*
X021412Y017907D01*
Y017806D01*
X021336Y017654D02*
Y017755D01*
X021438Y017654D01*
X021463D01*
X021488Y017679D01*
Y017730D01*
X021463Y017755D01*
X013805Y019469D02*
X013703D01*
X013652Y019418D01*
X013703Y019368D01*
X013805D01*
Y019317D02*
X013652D01*
Y019215D01*
Y019164D02*
X013754D01*
X013805Y019114D01*
X013754Y019063D01*
X013652D01*
X013729D01*
Y019164D01*
X013652Y019012D02*
Y018961D01*
Y018987D01*
X013805D01*
X013779Y019012D01*
Y018885D02*
X013805Y018860D01*
Y018809D01*
X013779Y018784D01*
X013678D01*
X013652Y018809D01*
Y018860D01*
X013678Y018885D01*
X013779D01*
X013805Y018631D02*
X013779Y018682D01*
X013729Y018733D01*
X013678D01*
X013652Y018707D01*
Y018657D01*
X013678Y018631D01*
X013703D01*
X013729Y018657D01*
Y018733D01*
Y018580D02*
Y018479D01*
X013652Y018428D02*
Y018377D01*
Y018403D01*
X013805D01*
X013779Y018428D01*
X013805Y018200D02*
Y018301D01*
X013729D01*
X013754Y018250D01*
Y018225D01*
X013729Y018200D01*
X013678D01*
X013652Y018225D01*
Y018276D01*
X013678Y018301D01*
X013652Y018047D02*
Y018149D01*
X013754Y018047D01*
X013779D01*
X013805Y018073D01*
Y018123D01*
X013779Y018149D01*
X013652Y017920D02*
X013805D01*
X013729Y017996D01*
Y017895D01*
X013652Y017742D02*
Y017844D01*
X013754Y017742D01*
X013779D01*
X013805Y017768D01*
Y017819D01*
X013779Y017844D01*
X005575Y017488D02*
X005423D01*
Y017564D01*
X005448Y017589D01*
X005499D01*
X005525Y017564D01*
Y017488D01*
Y017539D02*
X005575Y017589D01*
X005474Y017640D02*
X005575Y017742D01*
X005525Y017691D01*
X005474Y017742D01*
X005575Y017640D01*
Y016472D02*
X005423D01*
Y016548D01*
X005448Y016573D01*
X005499D01*
X005525Y016548D01*
Y016472D01*
Y016523D02*
X005575Y016573D01*
X005474Y016624D02*
X005575Y016726D01*
X005525Y016675D01*
X005474Y016726D01*
X005575Y016624D01*
Y015456D02*
X005423D01*
Y015532D01*
X005448Y015557D01*
X005499D01*
X005525Y015532D01*
Y015456D01*
Y015507D02*
X005575Y015557D01*
X005474Y015608D02*
X005575Y015710D01*
X005525Y015659D01*
X005474Y015710D01*
X005575Y015608D01*
Y014440D02*
X005423D01*
Y014516D01*
X005448Y014541D01*
X005499D01*
X005525Y014516D01*
Y014440D01*
Y014491D02*
X005575Y014541D01*
X005474Y014592D02*
X005575Y014694D01*
X005525Y014643D01*
X005474Y014694D01*
X005575Y014592D01*
Y013424D02*
X005423D01*
Y013500D01*
X005448Y013525D01*
X005499D01*
X005525Y013500D01*
Y013424D01*
Y013475D02*
X005575Y013525D01*
X005474Y013576D02*
X005575Y013678D01*
X005525Y013627D01*
X005474Y013678D01*
X005575Y013576D01*
Y012408D02*
X005423D01*
Y012484D01*
X005448Y012509D01*
X005499D01*
X005525Y012484D01*
Y012408D01*
Y012459D02*
X005575Y012509D01*
X005474Y012560D02*
X005575Y012662D01*
X005525Y012611D01*
X005474Y012662D01*
X005575Y012560D01*
X011798Y016980D02*
Y017081D01*
Y017031D01*
X011951D01*
X011849Y017132D02*
X011951Y017234D01*
X011900Y017183D01*
X011849Y017234D01*
X011951Y017132D01*
X011798Y014948D02*
Y015049D01*
Y014999D01*
X011951D01*
X011849Y015100D02*
X011951Y015202D01*
X011900Y015151D01*
X011849Y015202D01*
X011951Y015100D01*
X011798Y013932D02*
Y014033D01*
Y013983D01*
X011951D01*
X011849Y014084D02*
X011951Y014186D01*
X011900Y014135D01*
X011849Y014186D01*
X011951Y014084D01*
X011798Y015964D02*
Y016065D01*
Y016015D01*
X011951D01*
X011849Y016116D02*
X011951Y016218D01*
X011900Y016167D01*
X011849Y016218D01*
X011951Y016116D01*
X011798Y012916D02*
Y013017D01*
Y012967D01*
X011951D01*
X011849Y013068D02*
X011951Y013170D01*
X011900Y013119D01*
X011849Y013170D01*
X011951Y013068D01*
X011798Y011900D02*
Y012001D01*
Y011951D01*
X011951D01*
X011849Y012052D02*
X011951Y012154D01*
X011900Y012103D01*
X011849Y012154D01*
X011951Y012052D01*
D67*
X020371Y022149D02*
Y022390D01*
X020650Y022136D02*
Y022390D01*
X019774D02*
X020650D01*
X019774Y022136D02*
Y022390D01*
Y022136D02*
X020650D01*
X020612Y021679D02*
Y021920D01*
X020891Y021666D02*
Y021920D01*
X020015D02*
X020891D01*
X020015Y021666D02*
Y021920D01*
Y021666D02*
X020891D01*
X018771Y022301D02*
X019012D01*
X018771Y022581D02*
X019025D01*
X018771Y021704D02*
Y022581D01*
Y021704D02*
X019025D01*
Y022581D01*
X019050Y022835D02*
Y023076D01*
X019329Y022822D02*
Y023076D01*
X018453D02*
X019329D01*
X018453Y022822D02*
Y023076D01*
Y022822D02*
X019329D01*
X015189Y020904D02*
X015430D01*
X015189Y021184D02*
X015443D01*
X015189Y020307D02*
Y021184D01*
Y020307D02*
X015443D01*
Y021184D01*
X014440Y020320D02*
Y020561D01*
X014160Y020320D02*
Y020574D01*
Y020320D02*
X015037D01*
Y020574D01*
X014160D02*
X015037D01*
X013805Y022835D02*
Y023076D01*
X013526Y022835D02*
Y023089D01*
Y022835D02*
X014402D01*
Y023089D01*
X013526D02*
X014402D01*
X013056Y022847D02*
Y023089D01*
X013335Y022835D02*
Y023089D01*
X012459D02*
X013335D01*
X012459Y022835D02*
Y023089D01*
Y022835D02*
X013335D01*
X010198Y021387D02*
Y021628D01*
X009919Y021387D02*
Y021641D01*
Y021387D02*
X010795D01*
Y021641D01*
X009919D02*
X010795D01*
X009741Y021819D02*
Y022060D01*
X009461Y021819D02*
Y022073D01*
Y021819D02*
X010338D01*
Y022073D01*
X009461D02*
X010338D01*
X007315Y021819D02*
X007557D01*
X007303Y021539D02*
X007557D01*
Y022415D01*
X007303D02*
X007557D01*
X007303Y021539D02*
Y022415D01*
X007747Y021819D02*
X007988D01*
X007734Y021539D02*
X007988D01*
Y022415D01*
X007734D02*
X007988D01*
X007734Y021539D02*
Y022415D01*
X020257Y018529D02*
X021018D01*
X020257Y018275D02*
Y018529D01*
Y018275D02*
X021018D01*
Y018529D01*
X011324Y021831D02*
X012086D01*
Y022085D01*
X011324D02*
X012086D01*
X011324Y021831D02*
Y022085D01*
X008395Y021717D02*
X009157D01*
Y021971D01*
X008395D02*
X009157D01*
X008395Y021717D02*
Y021971D01*
X018390Y021552D02*
Y022314D01*
X018136D02*
X018390D01*
X018136Y021552D02*
Y022314D01*
Y021552D02*
X018390D01*
X016810Y013509D02*
X017191D01*
X016810D02*
Y014398D01*
X017191D01*
Y013509D02*
Y014398D01*
X016810Y014081D02*
X017191D01*
X017510Y013509D02*
X017890D01*
X017510D02*
Y014398D01*
X017890D01*
Y013509D02*
Y014398D01*
X017510Y014081D02*
X017890D01*
X018910Y013509D02*
X019291D01*
X018910D02*
Y014398D01*
X019291D01*
Y013509D02*
Y014398D01*
X018910Y014081D02*
X019291D01*
X019610Y013509D02*
X019991D01*
X019610D02*
Y014398D01*
X019991D01*
Y013509D02*
Y014398D01*
X019610Y014081D02*
X019991D01*
X018210Y013509D02*
X018591D01*
X018210D02*
Y014398D01*
X018591D01*
Y013509D02*
Y014398D01*
X018210Y014081D02*
X018591D01*
X020879Y020498D02*
X021641D01*
Y020752D01*
X020879D02*
X021641D01*
X020879Y020498D02*
Y020752D01*
X007061Y009715D02*
Y009969D01*
X007823D01*
Y009715D02*
Y009969D01*
X007061Y009715D02*
X007823D01*
X007569D02*
Y009969D01*
X007061Y010274D02*
Y010528D01*
X007823D01*
Y010274D02*
Y010528D01*
X007061Y010274D02*
X007823D01*
X007569D02*
Y010528D01*
X007061Y010833D02*
Y011087D01*
X007823D01*
Y010833D02*
Y011087D01*
X007061Y010833D02*
X007823D01*
X007569D02*
Y011087D01*
X007061Y011392D02*
Y011646D01*
X007823D01*
Y011392D02*
Y011646D01*
X007061Y011392D02*
X007823D01*
X007569D02*
Y011646D01*
X010643Y006566D02*
Y007328D01*
Y006566D02*
X010897D01*
Y007328D01*
X010643D02*
X010897D01*
X027407Y022301D02*
Y023063D01*
Y022301D02*
X027661D01*
Y023063D01*
X027407D02*
X027661D01*
X017716Y016294D02*
X018479D01*
X017716Y016040D02*
Y016294D01*
Y016040D02*
X018479D01*
Y016294D01*
X024841Y008141D02*
X025603D01*
Y008395D01*
X024841D02*
X025603D01*
X024841Y008141D02*
Y008395D01*
X024790Y009817D02*
X025552D01*
Y010071D01*
X024790D02*
X025552D01*
X024790Y009817D02*
Y010071D01*
X026848Y012484D02*
X027610D01*
Y012738D01*
X026848D02*
X027610D01*
X026848Y012484D02*
Y012738D01*
X015456Y018555D02*
X016218D01*
X015456Y018301D02*
Y018555D01*
Y018301D02*
X016218D01*
Y018555D01*
X005677Y021488D02*
Y022250D01*
X005423D02*
X005677D01*
X005423Y021488D02*
Y022250D01*
Y021488D02*
X005677D01*
X013818Y021107D02*
X014580D01*
X013818Y020853D02*
Y021107D01*
Y020853D02*
X014580D01*
Y021107D01*
X018707Y005906D02*
X019469D01*
Y006160D01*
X018707D02*
X019469D01*
X018707Y005906D02*
Y006160D01*
Y007277D02*
X019469D01*
Y007531D01*
X018707D02*
X019469D01*
X018707Y007277D02*
Y007531D01*
X008077Y017920D02*
Y018174D01*
X008839D01*
Y017920D02*
Y018174D01*
X008077Y017920D02*
X008839D01*
X007061Y009157D02*
Y009411D01*
X007823D01*
Y009157D02*
Y009411D01*
X007061Y009157D02*
X007823D01*
X007569D02*
Y009411D01*
X010414Y008242D02*
X011176D01*
X010414Y007988D02*
Y008242D01*
Y007988D02*
X011176D01*
Y008242D01*
X021270Y013418D02*
X021020D01*
Y013542D01*
X021061Y013584D01*
X021145D01*
X021186Y013542D01*
Y013418D01*
Y013501D02*
X021270Y013584D01*
Y013667D02*
X021103D01*
X021020Y013751D01*
X021103Y013834D01*
X021270D01*
X021145D01*
Y013667D01*
X021061Y014084D02*
X021020Y014042D01*
Y013959D01*
X021061Y013917D01*
X021228D01*
X021270Y013959D01*
Y014042D01*
X021228Y014084D01*
X021061Y014167D02*
X021020Y014209D01*
Y014292D01*
X021061Y014334D01*
X021228D01*
X021270Y014292D01*
Y014209D01*
X021228Y014167D01*
X021061D01*
X021270Y014417D02*
Y014500D01*
Y014459D01*
X021020D01*
X021061Y014417D01*
X021145Y014625D02*
Y014792D01*
X021061Y014875D02*
X021020Y014917D01*
Y015000D01*
X021061Y015042D01*
X021228D01*
X021270Y015000D01*
Y014917D01*
X021228Y014875D01*
X021061D01*
X021020Y015292D02*
Y015125D01*
X021145D01*
X021103Y015209D01*
Y015250D01*
X021145Y015292D01*
X021228D01*
X021270Y015250D01*
Y015167D01*
X021228Y015125D01*
X021061Y015542D02*
X021020Y015500D01*
Y015417D01*
X021061Y015375D01*
X021103D01*
X021145Y015417D01*
Y015500D01*
X021186Y015542D01*
X021228D01*
X021270Y015500D01*
Y015417D01*
X021228Y015375D01*
X021061Y015792D02*
X021020Y015750D01*
Y015667D01*
X021061Y015625D01*
X021228D01*
X021270Y015667D01*
Y015750D01*
X021228Y015792D01*
D68*
X023279Y013043D02*
X029629D01*
Y021943D01*
X023279D02*
X029629D01*
X023279Y013043D02*
Y021943D01*
X020449Y016388D02*
X022670D01*
X020449Y013018D02*
Y016388D01*
Y013018D02*
X022670D01*
Y016388D01*
X024164Y008357D02*
Y012167D01*
X016294D02*
X024164D01*
X016294Y008357D02*
Y012167D01*
Y008357D02*
X024164D01*
D69*
X026022Y009911D02*
X028804D01*
Y008911D02*
Y009911D01*
X026022Y008911D02*
X028804D01*
X026022D02*
Y009911D01*
Y011104D02*
X028804D01*
Y010104D02*
Y011104D01*
X026022Y010104D02*
X028804D01*
X026022D02*
Y011104D01*
Y012324D02*
X028804D01*
Y011324D02*
Y012324D01*
X026022Y011324D02*
X028804D01*
X026022D02*
Y012324D01*
D70*
X016040Y015977D02*
X016090D01*
Y015952D01*
X016082Y015943D01*
X016065D01*
X016057Y015952D01*
Y015977D01*
Y015960D02*
X016040Y015943D01*
Y015927D02*
Y015910D01*
Y015918D01*
X016090D01*
X016082Y015927D01*
X016040Y015852D02*
Y015885D01*
X016073Y015852D01*
X016082D01*
X016090Y015860D01*
Y015877D01*
X016082Y015885D01*
X016090Y015835D02*
Y015802D01*
Y015818D01*
X016040D01*
X015710Y016002D02*
X015760D01*
Y015977D01*
X015752Y015969D01*
X015735D01*
X015727Y015977D01*
Y016002D01*
Y015985D02*
X015710Y015969D01*
Y015952D02*
Y015935D01*
Y015944D01*
X015760D01*
X015752Y015952D01*
X015710Y015910D02*
Y015894D01*
Y015902D01*
X015760D01*
X015752Y015910D01*
X015760Y015869D02*
Y015835D01*
Y015852D01*
X015710D01*
X015392Y016002D02*
X015442D01*
Y015977D01*
X015434Y015969D01*
X015417D01*
X015409Y015977D01*
Y016002D01*
Y015985D02*
X015392Y015969D01*
Y015952D02*
Y015935D01*
Y015944D01*
X015442D01*
X015434Y015952D01*
Y015910D02*
X015442Y015902D01*
Y015885D01*
X015434Y015877D01*
X015401D01*
X015392Y015885D01*
Y015902D01*
X015401Y015910D01*
X015434D01*
X015442Y015860D02*
Y015827D01*
Y015844D01*
X015392D01*
X015062Y016002D02*
X015112D01*
Y015977D01*
X015104Y015969D01*
X015087D01*
X015079Y015977D01*
Y016002D01*
Y015985D02*
X015062Y015969D01*
X015071Y015952D02*
X015062Y015944D01*
Y015927D01*
X015071Y015919D01*
X015104D01*
X015112Y015927D01*
Y015944D01*
X015104Y015952D01*
X015096D01*
X015087Y015944D01*
Y015919D01*
X015112Y015902D02*
Y015869D01*
Y015885D01*
X015062D01*
X014745Y016002D02*
X014795D01*
Y015977D01*
X014786Y015969D01*
X014770D01*
X014761Y015977D01*
Y016002D01*
Y015985D02*
X014745Y015969D01*
X014786Y015952D02*
X014795Y015944D01*
Y015927D01*
X014786Y015919D01*
X014778D01*
X014770Y015927D01*
X014761Y015919D01*
X014753D01*
X014745Y015927D01*
Y015944D01*
X014753Y015952D01*
X014761D01*
X014770Y015944D01*
X014778Y015952D01*
X014786D01*
X014770Y015944D02*
Y015927D01*
X014795Y015902D02*
Y015869D01*
Y015885D01*
X014745D01*
X014427Y016002D02*
X014477D01*
Y015977D01*
X014469Y015969D01*
X014452D01*
X014444Y015977D01*
Y016002D01*
Y015985D02*
X014427Y015969D01*
X014477Y015952D02*
Y015919D01*
X014469D01*
X014436Y015952D01*
X014427D01*
X014477Y015902D02*
Y015869D01*
Y015885D01*
X014427D01*
X016129Y013652D02*
X016179D01*
Y013628D01*
X016171Y013619D01*
X016154D01*
X016146Y013628D01*
Y013652D01*
Y013636D02*
X016129Y013619D01*
X016179Y013569D02*
X016171Y013586D01*
X016154Y013603D01*
X016137D01*
X016129Y013594D01*
Y013578D01*
X016137Y013569D01*
X016146D01*
X016154Y013578D01*
Y013603D01*
X016179Y013553D02*
Y013519D01*
Y013536D01*
X016129D01*
X015812Y013652D02*
X015861D01*
Y013628D01*
X015853Y013619D01*
X015836D01*
X015828Y013628D01*
Y013652D01*
Y013636D02*
X015812Y013619D01*
X015861Y013569D02*
Y013603D01*
X015836D01*
X015845Y013586D01*
Y013578D01*
X015836Y013569D01*
X015820D01*
X015812Y013578D01*
Y013594D01*
X015820Y013603D01*
X015861Y013553D02*
Y013519D01*
Y013536D01*
X015812D01*
X015481Y013652D02*
X015531D01*
Y013628D01*
X015523Y013619D01*
X015506D01*
X015498Y013628D01*
Y013652D01*
Y013636D02*
X015481Y013619D01*
Y013578D02*
X015531D01*
X015506Y013603D01*
Y013569D01*
X015531Y013553D02*
Y013519D01*
Y013536D01*
X015481D01*
X015164Y013652D02*
X015214D01*
Y013628D01*
X015205Y013619D01*
X015189D01*
X015180Y013628D01*
Y013652D01*
Y013636D02*
X015164Y013619D01*
X015205Y013603D02*
X015214Y013594D01*
Y013578D01*
X015205Y013569D01*
X015197D01*
X015189Y013578D01*
Y013586D01*
Y013578D01*
X015180Y013569D01*
X015172D01*
X015164Y013578D01*
Y013594D01*
X015172Y013603D01*
X015214Y013553D02*
Y013519D01*
Y013536D01*
X015164D01*
X014834Y013652D02*
X014884D01*
Y013628D01*
X014875Y013619D01*
X014859D01*
X014850Y013628D01*
Y013652D01*
Y013636D02*
X014834Y013619D01*
Y013569D02*
Y013603D01*
X014867Y013569D01*
X014875D01*
X014884Y013578D01*
Y013594D01*
X014875Y013603D01*
X014884Y013553D02*
Y013519D01*
Y013536D01*
X014834D01*
X014516Y013652D02*
X014566D01*
Y013628D01*
X014558Y013619D01*
X014541D01*
X014533Y013628D01*
Y013652D01*
Y013636D02*
X014516Y013619D01*
Y013603D02*
Y013586D01*
Y013594D01*
X014566D01*
X014558Y013603D01*
X014566Y013561D02*
Y013528D01*
Y013544D01*
X014516D01*
X009512Y009715D02*
X009562D01*
Y009691D01*
X009554Y009682D01*
X009537D01*
X009529Y009691D01*
Y009715D01*
Y009699D02*
X009512Y009682D01*
Y009632D02*
Y009666D01*
X009546Y009632D01*
X009554D01*
X009562Y009641D01*
Y009657D01*
X009554Y009666D01*
Y009582D02*
X009562Y009591D01*
Y009607D01*
X009554Y009616D01*
X009546D01*
X009537Y009607D01*
Y009591D01*
X009529Y009582D01*
X009521D01*
X009512Y009591D01*
Y009607D01*
X009521Y009616D01*
X009849Y009715D02*
X009899D01*
Y009691D01*
X009891Y009682D01*
X009874D01*
X009866Y009691D01*
Y009715D01*
Y009699D02*
X009849Y009682D01*
X009891Y009666D02*
X009899Y009657D01*
Y009641D01*
X009891Y009632D01*
X009882D01*
X009874Y009641D01*
Y009649D01*
Y009641D01*
X009866Y009632D01*
X009857D01*
X009849Y009641D01*
Y009657D01*
X009857Y009666D01*
X009891Y009582D02*
X009899Y009591D01*
Y009607D01*
X009891Y009616D01*
X009882D01*
X009874Y009607D01*
Y009591D01*
X009866Y009582D01*
X009857D01*
X009849Y009591D01*
Y009607D01*
X009857Y009616D01*
X010211Y009715D02*
X010261D01*
Y009691D01*
X010252Y009682D01*
X010236D01*
X010227Y009691D01*
Y009715D01*
Y009699D02*
X010211Y009682D01*
Y009641D02*
X010261D01*
X010236Y009666D01*
Y009632D01*
X010252Y009582D02*
X010261Y009591D01*
Y009607D01*
X010252Y009616D01*
X010244D01*
X010236Y009607D01*
Y009591D01*
X010227Y009582D01*
X010219D01*
X010211Y009591D01*
Y009607D01*
X010219Y009616D01*
X012916Y009715D02*
X012966D01*
Y009691D01*
X012958Y009682D01*
X012941D01*
X012933Y009691D01*
Y009715D01*
Y009699D02*
X012916Y009682D01*
X012924Y009666D02*
X012916Y009657D01*
Y009641D01*
X012924Y009632D01*
X012958D01*
X012966Y009641D01*
Y009657D01*
X012958Y009666D01*
X012949D01*
X012941Y009657D01*
Y009632D01*
X012958Y009582D02*
X012966Y009591D01*
Y009607D01*
X012958Y009616D01*
X012949D01*
X012941Y009607D01*
Y009591D01*
X012933Y009582D01*
X012924D01*
X012916Y009591D01*
Y009607D01*
X012924Y009616D01*
X013284Y009715D02*
X013334D01*
Y009691D01*
X013326Y009682D01*
X013309D01*
X013301Y009691D01*
Y009715D01*
Y009699D02*
X013284Y009682D01*
Y009666D02*
Y009649D01*
Y009657D01*
X013334D01*
X013326Y009666D01*
X013284Y009591D02*
Y009624D01*
X013318Y009591D01*
X013326D01*
X013334Y009599D01*
Y009616D01*
X013326Y009624D01*
Y009541D02*
X013334Y009549D01*
Y009566D01*
X013326Y009574D01*
X013318D01*
X013309Y009566D01*
Y009549D01*
X013301Y009541D01*
X013293D01*
X013284Y009549D01*
Y009566D01*
X013293Y009574D01*
X015723Y009754D02*
X015773D01*
Y009729D01*
X015764Y009720D01*
X015748D01*
X015739Y009729D01*
Y009754D01*
Y009737D02*
X015723Y009720D01*
Y009704D02*
Y009687D01*
Y009695D01*
X015773D01*
X015764Y009704D01*
X015723Y009637D02*
X015773D01*
X015748Y009662D01*
Y009629D01*
X015764Y009579D02*
X015773Y009587D01*
Y009604D01*
X015764Y009612D01*
X015756D01*
X015748Y009604D01*
Y009587D01*
X015739Y009579D01*
X015731D01*
X015723Y009587D01*
Y009604D01*
X015731Y009612D01*
X015049Y009741D02*
X015099D01*
Y009716D01*
X015091Y009708D01*
X015074D01*
X015066Y009716D01*
Y009741D01*
Y009724D02*
X015049Y009708D01*
Y009691D02*
Y009674D01*
Y009683D01*
X015099D01*
X015091Y009691D01*
X015099Y009616D02*
Y009649D01*
X015074D01*
X015083Y009633D01*
Y009624D01*
X015074Y009616D01*
X015058D01*
X015049Y009624D01*
Y009641D01*
X015058Y009649D01*
X015091Y009566D02*
X015099Y009574D01*
Y009591D01*
X015091Y009599D01*
X015083D01*
X015074Y009591D01*
Y009574D01*
X015066Y009566D01*
X015058D01*
X015049Y009574D01*
Y009591D01*
X015058Y009599D01*
X015373Y009741D02*
X015423D01*
Y009716D01*
X015415Y009708D01*
X015398D01*
X015390Y009716D01*
Y009741D01*
Y009724D02*
X015373Y009708D01*
Y009691D02*
Y009674D01*
Y009683D01*
X015423D01*
X015415Y009691D01*
X015423Y009616D02*
X015415Y009633D01*
X015398Y009649D01*
X015382D01*
X015373Y009641D01*
Y009624D01*
X015382Y009616D01*
X015390D01*
X015398Y009624D01*
Y009649D01*
X015415Y009566D02*
X015423Y009574D01*
Y009591D01*
X015415Y009599D01*
X015407D01*
X015398Y009591D01*
Y009574D01*
X015390Y009566D01*
X015382D01*
X015373Y009574D01*
Y009591D01*
X015382Y009599D01*
X011290Y008941D02*
X011340D01*
Y008916D01*
X011332Y008907D01*
X011315D01*
X011307Y008916D01*
Y008941D01*
Y008924D02*
X011290Y008907D01*
Y008857D02*
Y008891D01*
X011324Y008857D01*
X011332D01*
X011340Y008866D01*
Y008882D01*
X011332Y008891D01*
Y008841D02*
X011340Y008833D01*
Y008816D01*
X011332Y008808D01*
X011299D01*
X011290Y008816D01*
Y008833D01*
X011299Y008841D01*
X011332D01*
Y008758D02*
X011340Y008766D01*
Y008783D01*
X011332Y008791D01*
X011324D01*
X011315Y008783D01*
Y008766D01*
X011307Y008758D01*
X011299D01*
X011290Y008766D01*
Y008783D01*
X011299Y008791D01*
X012268Y008966D02*
X012318D01*
Y008941D01*
X012310Y008933D01*
X012293D01*
X012285Y008941D01*
Y008966D01*
Y008950D02*
X012268Y008933D01*
Y008883D02*
Y008916D01*
X012302Y008883D01*
X012310D01*
X012318Y008891D01*
Y008908D01*
X012310Y008916D01*
X012268Y008866D02*
Y008850D01*
Y008858D01*
X012318D01*
X012310Y008866D01*
Y008791D02*
X012318Y008800D01*
Y008816D01*
X012310Y008825D01*
X012302D01*
X012293Y008816D01*
Y008800D01*
X012285Y008791D01*
X012277D01*
X012268Y008800D01*
Y008816D01*
X012277Y008825D01*
X011767Y008966D02*
X011817D01*
Y008941D01*
X011808Y008933D01*
X011792D01*
X011783Y008941D01*
Y008966D01*
Y008950D02*
X011767Y008933D01*
Y008883D02*
Y008916D01*
X011800Y008883D01*
X011808D01*
X011817Y008891D01*
Y008908D01*
X011808Y008916D01*
X011767Y008833D02*
Y008866D01*
X011800Y008833D01*
X011808D01*
X011817Y008841D01*
Y008858D01*
X011808Y008866D01*
Y008783D02*
X011817Y008791D01*
Y008808D01*
X011808Y008816D01*
X011800D01*
X011792Y008808D01*
Y008791D01*
X011783Y008783D01*
X011775D01*
X011767Y008791D01*
Y008808D01*
X011775Y008816D01*
X020079Y022084D02*
X020112D01*
Y022076D01*
X020079Y022043D01*
Y022035D01*
X020112D01*
X020162Y022084D02*
X020129D01*
Y022035D01*
X020162D01*
X020129Y022059D02*
X020145D01*
X020179Y022035D02*
Y022084D01*
X020212Y022035D01*
Y022084D01*
X020262D02*
X020229D01*
Y022035D01*
X020262D01*
X020229Y022059D02*
X020245D01*
X020279Y022035D02*
Y022084D01*
X020304D01*
X020312Y022076D01*
Y022059D01*
X020304Y022051D01*
X020279D01*
X020295D02*
X020312Y022035D01*
X020379D02*
X020395D01*
X020387D01*
Y022084D01*
X020379Y022076D01*
X020420Y022084D02*
Y022035D01*
X020437Y022051D01*
X020454Y022035D01*
Y022084D01*
X020320Y021615D02*
X020353D01*
Y021606D01*
X020320Y021573D01*
Y021565D01*
X020353D01*
X020403Y021615D02*
X020370D01*
Y021565D01*
X020403D01*
X020370Y021590D02*
X020387D01*
X020420Y021565D02*
Y021615D01*
X020453Y021565D01*
Y021615D01*
X020503D02*
X020470D01*
Y021565D01*
X020503D01*
X020470Y021590D02*
X020487D01*
X020520Y021565D02*
Y021615D01*
X020545D01*
X020553Y021606D01*
Y021590D01*
X020545Y021581D01*
X020520D01*
X020537D02*
X020553Y021565D01*
X020620D02*
X020637D01*
X020628D01*
Y021615D01*
X020620Y021606D01*
X020662Y021615D02*
Y021565D01*
X020678Y021581D01*
X020695Y021565D01*
Y021615D01*
X019076Y022009D02*
Y022042D01*
X019085D01*
X019118Y022009D01*
X019126D01*
Y022042D01*
X019076Y022092D02*
Y022059D01*
X019126D01*
Y022092D01*
X019101Y022059D02*
Y022076D01*
X019126Y022109D02*
X019076D01*
X019126Y022142D01*
X019076D01*
Y022192D02*
Y022159D01*
X019126D01*
Y022192D01*
X019101Y022159D02*
Y022176D01*
X019126Y022209D02*
X019076D01*
Y022234D01*
X019085Y022242D01*
X019101D01*
X019110Y022234D01*
Y022209D01*
Y022226D02*
X019126Y022242D01*
Y022309D02*
Y022326D01*
Y022317D01*
X019076D01*
X019085Y022309D01*
X019076Y022351D02*
X019126D01*
X019110Y022367D01*
X019126Y022384D01*
X019076D01*
X018758Y022770D02*
X018791D01*
Y022762D01*
X018758Y022729D01*
Y022720D01*
X018791D01*
X018841Y022770D02*
X018808D01*
Y022720D01*
X018841D01*
X018808Y022745D02*
X018825D01*
X018858Y022720D02*
Y022770D01*
X018891Y022720D01*
Y022770D01*
X018941D02*
X018908D01*
Y022720D01*
X018941D01*
X018908Y022745D02*
X018925D01*
X018958Y022720D02*
Y022770D01*
X018983D01*
X018991Y022762D01*
Y022745D01*
X018983Y022737D01*
X018958D01*
X018974D02*
X018991Y022720D01*
X019058D02*
X019074D01*
X019066D01*
Y022770D01*
X019058Y022762D01*
X019099Y022770D02*
Y022720D01*
X019116Y022737D01*
X019133Y022720D01*
Y022770D01*
X015495Y020612D02*
Y020645D01*
X015503D01*
X015536Y020612D01*
X015545D01*
Y020645D01*
X015495Y020695D02*
Y020662D01*
X015545D01*
Y020695D01*
X015520Y020662D02*
Y020679D01*
X015545Y020712D02*
X015495D01*
X015545Y020745D01*
X015495D01*
Y020795D02*
Y020762D01*
X015545D01*
Y020795D01*
X015520Y020762D02*
Y020779D01*
X015545Y020812D02*
X015495D01*
Y020837D01*
X015503Y020845D01*
X015520D01*
X015528Y020837D01*
Y020812D01*
Y020829D02*
X015545Y020845D01*
Y020912D02*
Y020929D01*
Y020920D01*
X015495D01*
X015503Y020912D01*
X015495Y020954D02*
X015545D01*
X015528Y020970D01*
X015545Y020987D01*
X015495D01*
X014643Y020687D02*
X014676D01*
Y020679D01*
X014643Y020646D01*
Y020638D01*
X014676D01*
X014726Y020687D02*
X014693D01*
Y020638D01*
X014726D01*
X014693Y020662D02*
X014710D01*
X014743Y020638D02*
Y020687D01*
X014776Y020638D01*
Y020687D01*
X014826D02*
X014793D01*
Y020638D01*
X014826D01*
X014793Y020662D02*
X014810D01*
X014843Y020638D02*
Y020687D01*
X014868D01*
X014876Y020679D01*
Y020662D01*
X014868Y020654D01*
X014843D01*
X014860D02*
X014876Y020638D01*
X014943D02*
X014960D01*
X014951D01*
Y020687D01*
X014943Y020679D01*
X014985Y020687D02*
Y020638D01*
X015001Y020654D01*
X015018Y020638D01*
Y020687D01*
X013678Y022783D02*
X013711D01*
Y022775D01*
X013678Y022741D01*
Y022733D01*
X013711D01*
X013761Y022783D02*
X013728D01*
Y022733D01*
X013761D01*
X013728Y022758D02*
X013745D01*
X013778Y022733D02*
Y022783D01*
X013811Y022733D01*
Y022783D01*
X013861D02*
X013828D01*
Y022733D01*
X013861D01*
X013828Y022758D02*
X013845D01*
X013878Y022733D02*
Y022783D01*
X013903D01*
X013911Y022775D01*
Y022758D01*
X013903Y022750D01*
X013878D01*
X013894D02*
X013911Y022733D01*
X013978D02*
X013994D01*
X013986D01*
Y022783D01*
X013978Y022775D01*
X014019Y022783D02*
Y022733D01*
X014036Y022750D01*
X014053Y022733D01*
Y022783D01*
X012764D02*
X012797D01*
Y022775D01*
X012764Y022741D01*
Y022733D01*
X012797D01*
X012847Y022783D02*
X012813D01*
Y022733D01*
X012847D01*
X012813Y022758D02*
X012830D01*
X012863Y022733D02*
Y022783D01*
X012897Y022733D01*
Y022783D01*
X012947D02*
X012913D01*
Y022733D01*
X012947D01*
X012913Y022758D02*
X012930D01*
X012963Y022733D02*
Y022783D01*
X012988D01*
X012997Y022775D01*
Y022758D01*
X012988Y022750D01*
X012963D01*
X012980D02*
X012997Y022733D01*
X013063D02*
X013080D01*
X013072D01*
Y022783D01*
X013063Y022775D01*
X013105Y022783D02*
Y022733D01*
X013122Y022750D01*
X013138Y022733D01*
Y022783D01*
X010503Y021767D02*
X010536D01*
Y021759D01*
X010503Y021725D01*
Y021717D01*
X010536D01*
X010586Y021767D02*
X010553D01*
Y021717D01*
X010586D01*
X010553Y021742D02*
X010570D01*
X010603Y021717D02*
Y021767D01*
X010636Y021717D01*
Y021767D01*
X010686D02*
X010653D01*
Y021717D01*
X010686D01*
X010653Y021742D02*
X010670D01*
X010703Y021717D02*
Y021767D01*
X010728D01*
X010736Y021759D01*
Y021742D01*
X010728Y021734D01*
X010703D01*
X010719D02*
X010736Y021717D01*
X010803D02*
X010819D01*
X010811D01*
Y021767D01*
X010803Y021759D01*
X010844Y021767D02*
Y021717D01*
X010861Y021734D01*
X010878Y021717D01*
Y021767D01*
X009449Y022211D02*
X009482D01*
Y022203D01*
X009449Y022170D01*
Y022162D01*
X009482D01*
X009532Y022211D02*
X009499D01*
Y022162D01*
X009532D01*
X009499Y022186D02*
X009515D01*
X009549Y022162D02*
Y022211D01*
X009582Y022162D01*
Y022211D01*
X009632D02*
X009599D01*
Y022162D01*
X009632D01*
X009599Y022186D02*
X009615D01*
X009649Y022162D02*
Y022211D01*
X009674D01*
X009682Y022203D01*
Y022186D01*
X009674Y022178D01*
X009649D01*
X009665D02*
X009682Y022162D01*
X009749D02*
X009765D01*
X009757D01*
Y022211D01*
X009749Y022203D01*
X009790Y022211D02*
Y022162D01*
X009807Y022178D01*
X009824Y022162D01*
Y022211D01*
X007251Y022111D02*
Y022077D01*
X007243D01*
X007209Y022111D01*
X007201D01*
Y022077D01*
X007251Y022027D02*
Y022061D01*
X007201D01*
Y022027D01*
X007226Y022061D02*
Y022044D01*
X007201Y022011D02*
X007251D01*
X007201Y021977D01*
X007251D01*
Y021927D02*
Y021961D01*
X007201D01*
Y021927D01*
X007226Y021961D02*
Y021944D01*
X007201Y021911D02*
X007251D01*
Y021886D01*
X007243Y021877D01*
X007226D01*
X007218Y021886D01*
Y021911D01*
Y021894D02*
X007201Y021877D01*
Y021811D02*
Y021794D01*
Y021802D01*
X007251D01*
X007243Y021811D01*
X007251Y021769D02*
X007201D01*
X007218Y021752D01*
X007201Y021736D01*
X007251D01*
X007683Y022111D02*
Y022077D01*
X007674D01*
X007641Y022111D01*
X007633D01*
Y022077D01*
X007683Y022027D02*
Y022061D01*
X007633D01*
Y022027D01*
X007658Y022061D02*
Y022044D01*
X007633Y022011D02*
X007683D01*
X007633Y021977D01*
X007683D01*
Y021927D02*
Y021961D01*
X007633D01*
Y021927D01*
X007658Y021961D02*
Y021944D01*
X007633Y021911D02*
X007683D01*
Y021886D01*
X007674Y021877D01*
X007658D01*
X007649Y021886D01*
Y021911D01*
Y021894D02*
X007633Y021877D01*
Y021811D02*
Y021794D01*
Y021802D01*
X007683D01*
X007674Y021811D01*
X007683Y021769D02*
X007633D01*
X007649Y021752D01*
X007633Y021736D01*
X007683D01*
X020455Y018203D02*
X020447Y018211D01*
X020430D01*
X020422Y018203D01*
Y018169D01*
X020430Y018161D01*
X020447D01*
X020455Y018169D01*
X020472Y018161D02*
Y018194D01*
X020488Y018211D01*
X020505Y018194D01*
Y018161D01*
Y018186D01*
X020472D01*
X020522Y018161D02*
Y018211D01*
X020547D01*
X020555Y018203D01*
Y018186D01*
X020547Y018178D01*
X020522D01*
X020655Y018203D02*
X020647Y018211D01*
X020630D01*
X020622Y018203D01*
Y018169D01*
X020630Y018161D01*
X020647D01*
X020655Y018169D01*
X020705Y018211D02*
X020672D01*
Y018161D01*
X020705D01*
X020672Y018186D02*
X020688D01*
X020722Y018161D02*
Y018211D01*
X020746D01*
X020755Y018203D01*
Y018186D01*
X020746Y018178D01*
X020722D01*
X020738D02*
X020755Y018161D01*
X020771D02*
Y018194D01*
X020788Y018211D01*
X020805Y018194D01*
Y018161D01*
Y018186D01*
X020771D01*
X020821Y018161D02*
Y018211D01*
X020838Y018194D01*
X020855Y018211D01*
Y018161D01*
X011497Y021759D02*
X011488Y021767D01*
X011472D01*
X011463Y021759D01*
Y021725D01*
X011472Y021717D01*
X011488D01*
X011497Y021725D01*
X011513Y021717D02*
Y021750D01*
X011530Y021767D01*
X011547Y021750D01*
Y021717D01*
Y021742D01*
X011513D01*
X011563Y021717D02*
Y021767D01*
X011588D01*
X011597Y021759D01*
Y021742D01*
X011588Y021734D01*
X011563D01*
X011697Y021759D02*
X011688Y021767D01*
X011672D01*
X011663Y021759D01*
Y021725D01*
X011672Y021717D01*
X011688D01*
X011697Y021725D01*
X011747Y021767D02*
X011713D01*
Y021717D01*
X011747D01*
X011713Y021742D02*
X011730D01*
X011763Y021717D02*
Y021767D01*
X011788D01*
X011797Y021759D01*
Y021742D01*
X011788Y021734D01*
X011763D01*
X011780D02*
X011797Y021717D01*
X011813D02*
Y021750D01*
X011830Y021767D01*
X011847Y021750D01*
Y021717D01*
Y021742D01*
X011813D01*
X011863Y021717D02*
Y021767D01*
X011880Y021750D01*
X011896Y021767D01*
Y021717D01*
X018507Y022077D02*
X018516Y022086D01*
Y022102D01*
X018507Y022111D01*
X018474D01*
X018466Y022102D01*
Y022086D01*
X018474Y022077D01*
X018466Y022061D02*
X018499D01*
X018516Y022044D01*
X018499Y022027D01*
X018466D01*
X018491D01*
Y022061D01*
X018466Y022011D02*
X018516D01*
Y021986D01*
X018507Y021977D01*
X018491D01*
X018482Y021986D01*
Y022011D01*
X018507Y021877D02*
X018516Y021886D01*
Y021902D01*
X018507Y021911D01*
X018474D01*
X018466Y021902D01*
Y021886D01*
X018474Y021877D01*
X018516Y021827D02*
Y021861D01*
X018466D01*
Y021827D01*
X018491Y021861D02*
Y021844D01*
X018466Y021811D02*
X018516D01*
Y021786D01*
X018507Y021777D01*
X018491D01*
X018482Y021786D01*
Y021811D01*
Y021794D02*
X018466Y021777D01*
Y021761D02*
X018499D01*
X018516Y021744D01*
X018499Y021727D01*
X018466D01*
X018491D01*
Y021761D01*
X018466Y021711D02*
X018516D01*
X018499Y021694D01*
X018516Y021678D01*
X018466D01*
X023660Y013643D02*
X023593D01*
X023560Y013676D01*
X023593Y013710D01*
X023660D01*
X023610D01*
Y013643D01*
X023577Y013810D02*
X023560Y013793D01*
Y013760D01*
X023577Y013743D01*
X023643D01*
X023660Y013760D01*
Y013793D01*
X023643Y013810D01*
X023560Y013843D02*
X023660D01*
Y013909D01*
X029248Y013643D02*
X029181D01*
X029148Y013676D01*
X029181Y013710D01*
X029248D01*
X029198D01*
Y013643D01*
X029165Y013810D02*
X029148Y013793D01*
Y013760D01*
X029165Y013743D01*
X029231D01*
X029248Y013760D01*
Y013793D01*
X029231Y013810D01*
X029248Y013843D02*
X029148D01*
X029248Y013909D01*
X029148D01*
X023559Y021246D02*
X023625D01*
X023592Y021280D02*
Y021213D01*
X023658Y021296D02*
Y021196D01*
X023708D01*
X023725Y021213D01*
Y021280D01*
X023708Y021296D01*
X023658D01*
X023825Y021280D02*
X023808Y021296D01*
X023775D01*
X023758Y021280D01*
Y021213D01*
X023775Y021196D01*
X023808D01*
X023825Y021213D01*
X026340Y021246D02*
X026406D01*
X026440Y021296D02*
Y021196D01*
X026490D01*
X026506Y021213D01*
Y021280D01*
X026490Y021296D01*
X026440D01*
X026606Y021280D02*
X026590Y021296D01*
X026556D01*
X026540Y021280D01*
Y021213D01*
X026556Y021196D01*
X026590D01*
X026606Y021213D01*
X029185Y021209D02*
Y021309D01*
X029251Y021209D01*
Y021309D01*
X029351Y021292D02*
X029335Y021309D01*
X029301D01*
X029285Y021292D01*
Y021226D01*
X029301Y021209D01*
X029335D01*
X029351Y021226D01*
X016887Y013840D02*
X016937D01*
Y013873D01*
X016887Y013923D02*
Y013890D01*
X016937D01*
Y013923D01*
X016912Y013890D02*
Y013906D01*
X016887Y013940D02*
X016937D01*
Y013965D01*
X016928Y013973D01*
X016895D01*
X016887Y013965D01*
Y013940D01*
X017587Y013840D02*
X017637D01*
Y013873D01*
X017587Y013923D02*
Y013890D01*
X017637D01*
Y013923D01*
X017612Y013890D02*
Y013906D01*
X017587Y013940D02*
X017637D01*
Y013965D01*
X017628Y013973D01*
X017595D01*
X017587Y013965D01*
Y013940D01*
X020798Y013418D02*
X020731D01*
X020698Y013451D01*
X020731Y013484D01*
X020798D01*
X020748D01*
Y013418D01*
X020714Y013584D02*
X020698Y013567D01*
Y013534D01*
X020714Y013517D01*
X020781D01*
X020798Y013534D01*
Y013567D01*
X020781Y013584D01*
X020798Y013617D02*
X020698D01*
X020798Y013684D01*
X020698D01*
X022321Y013418D02*
X022255D01*
X022222Y013451D01*
X022255Y013484D01*
X022321D01*
X022272D01*
Y013418D01*
X022238Y013584D02*
X022222Y013567D01*
Y013534D01*
X022238Y013517D01*
X022305D01*
X022321Y013534D01*
Y013567D01*
X022305Y013584D01*
X022222Y013617D02*
X022321D01*
Y013684D01*
X021510Y015668D02*
Y015734D01*
X021476Y015701D02*
X021543D01*
X021460Y015834D02*
Y015767D01*
X021510D01*
X021493Y015801D01*
Y015817D01*
X021510Y015834D01*
X021543D01*
X021560Y015817D01*
Y015784D01*
X021543Y015767D01*
X021460Y015867D02*
X021526D01*
X021560Y015901D01*
X021526Y015934D01*
X021460D01*
X020714Y015734D02*
X020698Y015717D01*
Y015684D01*
X020714Y015668D01*
X020781D01*
X020798Y015684D01*
Y015717D01*
X020781Y015734D01*
X020748D01*
Y015701D01*
X020798Y015767D02*
X020698D01*
X020798Y015834D01*
X020698D01*
Y015867D02*
X020798D01*
Y015917D01*
X020781Y015934D01*
X020714D01*
X020698Y015917D01*
Y015867D01*
X018987Y013840D02*
X019036D01*
Y013873D01*
X018987Y013923D02*
Y013890D01*
X019036D01*
Y013923D01*
X019012Y013890D02*
Y013906D01*
X018987Y013940D02*
X019036D01*
Y013965D01*
X019028Y013973D01*
X018995D01*
X018987Y013965D01*
Y013940D01*
X019687Y013840D02*
X019737D01*
Y013873D01*
X019687Y013923D02*
Y013890D01*
X019737D01*
Y013923D01*
X019712Y013890D02*
Y013906D01*
X019687Y013940D02*
X019737D01*
Y013965D01*
X019728Y013973D01*
X019695D01*
X019687Y013965D01*
Y013940D01*
X018287Y013840D02*
X018337D01*
Y013873D01*
X018287Y013923D02*
Y013890D01*
X018337D01*
Y013923D01*
X018312Y013890D02*
Y013906D01*
X018287Y013940D02*
X018337D01*
Y013965D01*
X018328Y013973D01*
X018295D01*
X018287Y013965D01*
Y013940D01*
X016751Y011697D02*
Y011763D01*
X016785Y011797D01*
X016818Y011763D01*
Y011697D01*
Y011747D01*
X016751D01*
X016918Y011780D02*
X016901Y011797D01*
X016868D01*
X016851Y011780D01*
Y011713D01*
X016868Y011697D01*
X016901D01*
X016918Y011713D01*
X016951Y011697D02*
Y011797D01*
X017018Y011697D01*
Y011797D01*
X016777Y008712D02*
Y008779D01*
X016810Y008812D01*
X016843Y008779D01*
Y008712D01*
Y008762D01*
X016777D01*
X016943Y008796D02*
X016927Y008812D01*
X016893D01*
X016877Y008796D01*
Y008729D01*
X016893Y008712D01*
X016927D01*
X016943Y008729D01*
X016977Y008812D02*
Y008712D01*
X017043D01*
X023294Y011797D02*
X023361D01*
X023394Y011847D02*
Y011780D01*
X023427Y011747D01*
X023461Y011780D01*
Y011847D01*
X023494Y011747D02*
X023527D01*
X023511D01*
Y011847D01*
X023494Y011830D01*
X023294Y011057D02*
X023361D01*
X023327Y011090D02*
Y011023D01*
X023394Y011107D02*
Y011040D01*
X023427Y011007D01*
X023461Y011040D01*
Y011107D01*
X023494Y011007D02*
X023527D01*
X023511D01*
Y011107D01*
X023494Y011090D01*
X023294Y010357D02*
Y010290D01*
X023327Y010257D01*
X023361Y010290D01*
Y010357D01*
X023394Y010340D02*
X023411Y010357D01*
X023444D01*
X023461Y010340D01*
Y010323D01*
X023444Y010307D01*
X023427D01*
X023444D01*
X023461Y010290D01*
Y010273D01*
X023444Y010257D01*
X023411D01*
X023394Y010273D01*
X023361Y009590D02*
X023344Y009607D01*
X023311D01*
X023294Y009590D01*
Y009523D01*
X023311Y009507D01*
X023344D01*
X023361Y009523D01*
X023444Y009607D02*
X023411D01*
X023394Y009590D01*
Y009523D01*
X023411Y009507D01*
X023444D01*
X023461Y009523D01*
Y009590D01*
X023444Y009607D01*
X023494Y009507D02*
Y009607D01*
X023527Y009573D01*
X023561Y009607D01*
Y009507D01*
X023294Y008867D02*
Y008800D01*
X023327Y008767D01*
X023361Y008800D01*
Y008867D01*
X023461Y008767D02*
X023394D01*
X023461Y008833D01*
Y008850D01*
X023444Y008867D01*
X023411D01*
X023394Y008850D01*
X021052Y020425D02*
X021043Y020433D01*
X021027D01*
X021018Y020425D01*
Y020392D01*
X021027Y020384D01*
X021043D01*
X021052Y020392D01*
X021068Y020384D02*
Y020417D01*
X021085Y020433D01*
X021102Y020417D01*
Y020384D01*
Y020408D01*
X021068D01*
X021118Y020384D02*
Y020433D01*
X021143D01*
X021152Y020425D01*
Y020408D01*
X021143Y020400D01*
X021118D01*
X021252Y020425D02*
X021243Y020433D01*
X021227D01*
X021218Y020425D01*
Y020392D01*
X021227Y020384D01*
X021243D01*
X021252Y020392D01*
X021302Y020433D02*
X021268D01*
Y020384D01*
X021302D01*
X021268Y020408D02*
X021285D01*
X021318Y020384D02*
Y020433D01*
X021343D01*
X021352Y020425D01*
Y020408D01*
X021343Y020400D01*
X021318D01*
X021335D02*
X021352Y020384D01*
X021368D02*
Y020417D01*
X021385Y020433D01*
X021402Y020417D01*
Y020384D01*
Y020408D01*
X021368D01*
X021418Y020384D02*
Y020433D01*
X021435Y020417D01*
X021452Y020433D01*
Y020384D01*
X007201Y009664D02*
X007234D01*
Y009656D01*
X007201Y009622D01*
Y009614D01*
X007234D01*
X007284Y009664D02*
X007251D01*
Y009614D01*
X007284D01*
X007251Y009639D02*
X007268D01*
X007301Y009614D02*
Y009664D01*
X007334Y009614D01*
Y009664D01*
X007384D02*
X007351D01*
Y009614D01*
X007384D01*
X007351Y009639D02*
X007368D01*
X007401Y009614D02*
Y009664D01*
X007426D01*
X007434Y009656D01*
Y009639D01*
X007426Y009631D01*
X007401D01*
X007417D02*
X007434Y009614D01*
X007501Y009656D02*
X007509Y009664D01*
X007526D01*
X007534Y009656D01*
Y009622D01*
X007526Y009614D01*
X007509D01*
X007501Y009622D01*
Y009656D01*
X007551Y009614D02*
Y009622D01*
X007559D01*
Y009614D01*
X007551D01*
X007617D02*
Y009664D01*
X007592Y009639D01*
X007626D01*
X007642Y009664D02*
Y009614D01*
X007659Y009631D01*
X007676Y009614D01*
Y009664D01*
X007201Y010223D02*
X007234D01*
Y010214D01*
X007201Y010181D01*
Y010173D01*
X007234D01*
X007284Y010223D02*
X007251D01*
Y010173D01*
X007284D01*
X007251Y010198D02*
X007268D01*
X007301Y010173D02*
Y010223D01*
X007334Y010173D01*
Y010223D01*
X007384D02*
X007351D01*
Y010173D01*
X007384D01*
X007351Y010198D02*
X007368D01*
X007401Y010173D02*
Y010223D01*
X007426D01*
X007434Y010214D01*
Y010198D01*
X007426Y010189D01*
X007401D01*
X007417D02*
X007434Y010173D01*
X007501Y010214D02*
X007509Y010223D01*
X007526D01*
X007534Y010214D01*
Y010181D01*
X007526Y010173D01*
X007509D01*
X007501Y010181D01*
Y010214D01*
X007551Y010173D02*
Y010181D01*
X007559D01*
Y010173D01*
X007551D01*
X007617D02*
Y010223D01*
X007592Y010198D01*
X007626D01*
X007642Y010223D02*
Y010173D01*
X007659Y010189D01*
X007676Y010173D01*
Y010223D01*
X007201Y010781D02*
X007234D01*
Y010773D01*
X007201Y010740D01*
Y010732D01*
X007234D01*
X007284Y010781D02*
X007251D01*
Y010732D01*
X007284D01*
X007251Y010756D02*
X007268D01*
X007301Y010732D02*
Y010781D01*
X007334Y010732D01*
Y010781D01*
X007384D02*
X007351D01*
Y010732D01*
X007384D01*
X007351Y010756D02*
X007368D01*
X007401Y010732D02*
Y010781D01*
X007426D01*
X007434Y010773D01*
Y010756D01*
X007426Y010748D01*
X007401D01*
X007417D02*
X007434Y010732D01*
X007501Y010773D02*
X007509Y010781D01*
X007526D01*
X007534Y010773D01*
Y010740D01*
X007526Y010732D01*
X007509D01*
X007501Y010740D01*
Y010773D01*
X007551Y010732D02*
Y010740D01*
X007559D01*
Y010732D01*
X007551D01*
X007617D02*
Y010781D01*
X007592Y010756D01*
X007626D01*
X007642Y010781D02*
Y010732D01*
X007659Y010748D01*
X007676Y010732D01*
Y010781D01*
X007201Y011340D02*
X007234D01*
Y011332D01*
X007201Y011299D01*
Y011290D01*
X007234D01*
X007284Y011340D02*
X007251D01*
Y011290D01*
X007284D01*
X007251Y011315D02*
X007268D01*
X007301Y011290D02*
Y011340D01*
X007334Y011290D01*
Y011340D01*
X007384D02*
X007351D01*
Y011290D01*
X007384D01*
X007351Y011315D02*
X007368D01*
X007401Y011290D02*
Y011340D01*
X007426D01*
X007434Y011332D01*
Y011315D01*
X007426Y011307D01*
X007401D01*
X007417D02*
X007434Y011290D01*
X007501Y011332D02*
X007509Y011340D01*
X007526D01*
X007534Y011332D01*
Y011299D01*
X007526Y011290D01*
X007509D01*
X007501Y011299D01*
Y011332D01*
X007551Y011290D02*
Y011299D01*
X007559D01*
Y011290D01*
X007551D01*
X007617D02*
Y011340D01*
X007592Y011315D01*
X007626D01*
X007642Y011340D02*
Y011290D01*
X007659Y011307D01*
X007676Y011290D01*
Y011340D01*
X010570Y007155D02*
X010578Y007163D01*
Y007180D01*
X010570Y007188D01*
X010537D01*
X010528Y007180D01*
Y007163D01*
X010537Y007155D01*
X010528Y007138D02*
X010562D01*
X010578Y007122D01*
X010562Y007105D01*
X010528D01*
X010553D01*
Y007138D01*
X010528Y007088D02*
X010578D01*
Y007063D01*
X010570Y007055D01*
X010553D01*
X010545Y007063D01*
Y007088D01*
X010570Y006955D02*
X010578Y006963D01*
Y006980D01*
X010570Y006988D01*
X010537D01*
X010528Y006980D01*
Y006963D01*
X010537Y006955D01*
X010578Y006905D02*
Y006938D01*
X010528D01*
Y006905D01*
X010553Y006938D02*
Y006922D01*
X010528Y006888D02*
X010578D01*
Y006863D01*
X010570Y006855D01*
X010553D01*
X010545Y006863D01*
Y006888D01*
Y006872D02*
X010528Y006855D01*
Y006838D02*
X010562D01*
X010578Y006822D01*
X010562Y006805D01*
X010528D01*
X010553D01*
Y006838D01*
X010528Y006788D02*
X010578D01*
X010562Y006772D01*
X010578Y006755D01*
X010528D01*
X027334Y022890D02*
X027342Y022899D01*
Y022915D01*
X027334Y022924D01*
X027301D01*
X027292Y022915D01*
Y022899D01*
X027301Y022890D01*
X027292Y022874D02*
X027326D01*
X027342Y022857D01*
X027326Y022840D01*
X027292D01*
X027317D01*
Y022874D01*
X027292Y022824D02*
X027342D01*
Y022799D01*
X027334Y022790D01*
X027317D01*
X027309Y022799D01*
Y022824D01*
X027334Y022690D02*
X027342Y022699D01*
Y022715D01*
X027334Y022724D01*
X027301D01*
X027292Y022715D01*
Y022699D01*
X027301Y022690D01*
X027342Y022640D02*
Y022674D01*
X027292D01*
Y022640D01*
X027317Y022674D02*
Y022657D01*
X027292Y022624D02*
X027342D01*
Y022599D01*
X027334Y022590D01*
X027317D01*
X027309Y022599D01*
Y022624D01*
Y022607D02*
X027292Y022590D01*
Y022574D02*
X027326D01*
X027342Y022557D01*
X027326Y022540D01*
X027292D01*
X027317D01*
Y022574D01*
X027292Y022524D02*
X027342D01*
X027326Y022507D01*
X027342Y022490D01*
X027292D01*
X017915Y016399D02*
X017907Y016408D01*
X017890D01*
X017882Y016399D01*
Y016366D01*
X017890Y016358D01*
X017907D01*
X017915Y016366D01*
X017932Y016358D02*
Y016391D01*
X017948Y016408D01*
X017965Y016391D01*
Y016358D01*
Y016383D01*
X017932D01*
X017982Y016358D02*
Y016408D01*
X018007D01*
X018015Y016399D01*
Y016383D01*
X018007Y016374D01*
X017982D01*
X018115Y016399D02*
X018107Y016408D01*
X018090D01*
X018082Y016399D01*
Y016366D01*
X018090Y016358D01*
X018107D01*
X018115Y016366D01*
X018165Y016408D02*
X018132D01*
Y016358D01*
X018165D01*
X018132Y016383D02*
X018148D01*
X018182Y016358D02*
Y016408D01*
X018206D01*
X018215Y016399D01*
Y016383D01*
X018206Y016374D01*
X018182D01*
X018198D02*
X018215Y016358D01*
X018231D02*
Y016391D01*
X018248Y016408D01*
X018265Y016391D01*
Y016358D01*
Y016383D01*
X018231D01*
X018281Y016358D02*
Y016408D01*
X018298Y016391D01*
X018315Y016408D01*
Y016358D01*
X025014Y008068D02*
X025006Y008076D01*
X024989D01*
X024981Y008068D01*
Y008035D01*
X024989Y008026D01*
X025006D01*
X025014Y008035D01*
X025031Y008026D02*
Y008060D01*
X025048Y008076D01*
X025064Y008060D01*
Y008026D01*
Y008051D01*
X025031D01*
X025081Y008026D02*
Y008076D01*
X025106D01*
X025114Y008068D01*
Y008051D01*
X025106Y008043D01*
X025081D01*
X025214Y008068D02*
X025206Y008076D01*
X025189D01*
X025181Y008068D01*
Y008035D01*
X025189Y008026D01*
X025206D01*
X025214Y008035D01*
X025264Y008076D02*
X025231D01*
Y008026D01*
X025264D01*
X025231Y008051D02*
X025247D01*
X025281Y008026D02*
Y008076D01*
X025306D01*
X025314Y008068D01*
Y008051D01*
X025306Y008043D01*
X025281D01*
X025297D02*
X025314Y008026D01*
X025331D02*
Y008060D01*
X025347Y008076D01*
X025364Y008060D01*
Y008026D01*
Y008051D01*
X025331D01*
X025381Y008026D02*
Y008076D01*
X025397Y008060D01*
X025414Y008076D01*
Y008026D01*
X016045Y018627D02*
X016053Y018619D01*
X016070D01*
X016078Y018627D01*
Y018661D01*
X016070Y018669D01*
X016053D01*
X016045Y018661D01*
X016028Y018669D02*
Y018636D01*
X016012Y018619D01*
X015995Y018636D01*
Y018669D01*
Y018644D01*
X016028D01*
X015978Y018669D02*
Y018619D01*
X015953D01*
X015945Y018627D01*
Y018644D01*
X015953Y018652D01*
X015978D01*
X015845Y018627D02*
X015853Y018619D01*
X015870D01*
X015878Y018627D01*
Y018661D01*
X015870Y018669D01*
X015853D01*
X015845Y018661D01*
X015795Y018619D02*
X015828D01*
Y018669D01*
X015795D01*
X015828Y018644D02*
X015812D01*
X015778Y018669D02*
Y018619D01*
X015753D01*
X015745Y018627D01*
Y018644D01*
X015753Y018652D01*
X015778D01*
X015762D02*
X015745Y018669D01*
X015728D02*
Y018636D01*
X015712Y018619D01*
X015695Y018636D01*
Y018669D01*
Y018644D01*
X015728D01*
X015678Y018669D02*
Y018619D01*
X015662Y018636D01*
X015645Y018619D01*
Y018669D01*
X005750Y021661D02*
X005741Y021653D01*
Y021636D01*
X005750Y021628D01*
X005783D01*
X005791Y021636D01*
Y021653D01*
X005783Y021661D01*
X005791Y021678D02*
X005758D01*
X005741Y021695D01*
X005758Y021711D01*
X005791D01*
X005766D01*
Y021678D01*
X005791Y021728D02*
X005741D01*
Y021753D01*
X005750Y021761D01*
X005766D01*
X005775Y021753D01*
Y021728D01*
X005750Y021861D02*
X005741Y021853D01*
Y021836D01*
X005750Y021828D01*
X005783D01*
X005791Y021836D01*
Y021853D01*
X005783Y021861D01*
X005741Y021911D02*
Y021878D01*
X005791D01*
Y021911D01*
X005766Y021878D02*
Y021895D01*
X005791Y021928D02*
X005741D01*
Y021953D01*
X005750Y021961D01*
X005766D01*
X005775Y021953D01*
Y021928D01*
Y021945D02*
X005791Y021961D01*
Y021978D02*
X005758D01*
X005741Y021995D01*
X005758Y022011D01*
X005791D01*
X005766D01*
Y021978D01*
X005791Y022028D02*
X005741D01*
X005758Y022045D01*
X005741Y022061D01*
X005791D01*
X014407Y021180D02*
X014415Y021172D01*
X014432D01*
X014440Y021180D01*
Y021213D01*
X014432Y021222D01*
X014415D01*
X014407Y021213D01*
X014390Y021222D02*
Y021188D01*
X014373Y021172D01*
X014357Y021188D01*
Y021222D01*
Y021197D01*
X014390D01*
X014340Y021222D02*
Y021172D01*
X014315D01*
X014307Y021180D01*
Y021197D01*
X014315Y021205D01*
X014340D01*
X014207Y021180D02*
X014215Y021172D01*
X014232D01*
X014240Y021180D01*
Y021213D01*
X014232Y021222D01*
X014215D01*
X014207Y021213D01*
X014157Y021172D02*
X014190D01*
Y021222D01*
X014157D01*
X014190Y021197D02*
X014173D01*
X014140Y021222D02*
Y021172D01*
X014115D01*
X014107Y021180D01*
Y021197D01*
X014115Y021205D01*
X014140D01*
X014123D02*
X014107Y021222D01*
X014090D02*
Y021188D01*
X014073Y021172D01*
X014057Y021188D01*
Y021222D01*
Y021197D01*
X014090D01*
X014040Y021222D02*
Y021172D01*
X014023Y021188D01*
X014007Y021172D01*
Y021222D01*
X018880Y005833D02*
X018872Y005841D01*
X018855D01*
X018847Y005833D01*
Y005800D01*
X018855Y005791D01*
X018872D01*
X018880Y005800D01*
X018897Y005791D02*
Y005825D01*
X018913Y005841D01*
X018930Y005825D01*
Y005791D01*
Y005816D01*
X018897D01*
X018947Y005791D02*
Y005841D01*
X018972D01*
X018980Y005833D01*
Y005816D01*
X018972Y005808D01*
X018947D01*
X019080Y005833D02*
X019072Y005841D01*
X019055D01*
X019047Y005833D01*
Y005800D01*
X019055Y005791D01*
X019072D01*
X019080Y005800D01*
X019130Y005841D02*
X019097D01*
Y005791D01*
X019130D01*
X019097Y005816D02*
X019113D01*
X019147Y005791D02*
Y005841D01*
X019172D01*
X019180Y005833D01*
Y005816D01*
X019172Y005808D01*
X019147D01*
X019163D02*
X019180Y005791D01*
X019197D02*
Y005825D01*
X019213Y005841D01*
X019230Y005825D01*
Y005791D01*
Y005816D01*
X019197D01*
X019247Y005791D02*
Y005841D01*
X019263Y005825D01*
X019280Y005841D01*
Y005791D01*
X018880Y007204D02*
X018872Y007213D01*
X018855D01*
X018847Y007204D01*
Y007171D01*
X018855Y007163D01*
X018872D01*
X018880Y007171D01*
X018897Y007163D02*
Y007196D01*
X018913Y007213D01*
X018930Y007196D01*
Y007163D01*
Y007188D01*
X018897D01*
X018947Y007163D02*
Y007213D01*
X018972D01*
X018980Y007204D01*
Y007188D01*
X018972Y007179D01*
X018947D01*
X019080Y007204D02*
X019072Y007213D01*
X019055D01*
X019047Y007204D01*
Y007171D01*
X019055Y007163D01*
X019072D01*
X019080Y007171D01*
X019130Y007213D02*
X019097D01*
Y007163D01*
X019130D01*
X019097Y007188D02*
X019113D01*
X019147Y007163D02*
Y007213D01*
X019172D01*
X019180Y007204D01*
Y007188D01*
X019172Y007179D01*
X019147D01*
X019163D02*
X019180Y007163D01*
X019197D02*
Y007196D01*
X019213Y007213D01*
X019230Y007196D01*
Y007163D01*
Y007188D01*
X019197D01*
X019247Y007163D02*
Y007213D01*
X019263Y007196D01*
X019280Y007213D01*
Y007163D01*
X008250Y017847D02*
X008242Y017855D01*
X008225D01*
X008217Y017847D01*
Y017814D01*
X008225Y017805D01*
X008242D01*
X008250Y017814D01*
X008267Y017805D02*
Y017839D01*
X008284Y017855D01*
X008300Y017839D01*
Y017805D01*
Y017830D01*
X008267D01*
X008317Y017805D02*
Y017855D01*
X008342D01*
X008350Y017847D01*
Y017830D01*
X008342Y017822D01*
X008317D01*
X008450Y017847D02*
X008442Y017855D01*
X008425D01*
X008417Y017847D01*
Y017814D01*
X008425Y017805D01*
X008442D01*
X008450Y017814D01*
X008500Y017855D02*
X008467D01*
Y017805D01*
X008500D01*
X008467Y017830D02*
X008483D01*
X008517Y017805D02*
Y017855D01*
X008542D01*
X008550Y017847D01*
Y017830D01*
X008542Y017822D01*
X008517D01*
X008533D02*
X008550Y017805D01*
X008567D02*
Y017839D01*
X008583Y017855D01*
X008600Y017839D01*
Y017805D01*
Y017830D01*
X008567D01*
X008617Y017805D02*
Y017855D01*
X008633Y017839D01*
X008650Y017855D01*
Y017805D01*
X007188Y009080D02*
X007222D01*
Y009071D01*
X007188Y009038D01*
Y009030D01*
X007222D01*
X007272Y009080D02*
X007238D01*
Y009030D01*
X007272D01*
X007238Y009055D02*
X007255D01*
X007288Y009030D02*
Y009080D01*
X007321Y009030D01*
Y009080D01*
X007371D02*
X007338D01*
Y009030D01*
X007371D01*
X007338Y009055D02*
X007355D01*
X007388Y009030D02*
Y009080D01*
X007413D01*
X007421Y009071D01*
Y009055D01*
X007413Y009046D01*
X007388D01*
X007405D02*
X007421Y009030D01*
X007488Y009071D02*
X007496Y009080D01*
X007513D01*
X007521Y009071D01*
Y009038D01*
X007513Y009030D01*
X007496D01*
X007488Y009038D01*
Y009071D01*
X007538Y009030D02*
Y009038D01*
X007546D01*
Y009030D01*
X007538D01*
X007605D02*
Y009080D01*
X007580Y009055D01*
X007613D01*
X007630Y009080D02*
Y009030D01*
X007646Y009046D01*
X007663Y009030D01*
Y009080D01*
X010612Y007903D02*
X010604Y007911D01*
X010587D01*
X010579Y007903D01*
Y007870D01*
X010587Y007861D01*
X010604D01*
X010612Y007870D01*
X010629Y007861D02*
Y007895D01*
X010646Y007911D01*
X010662Y007895D01*
Y007861D01*
Y007886D01*
X010629D01*
X010679Y007861D02*
Y007911D01*
X010704D01*
X010712Y007903D01*
Y007886D01*
X010704Y007878D01*
X010679D01*
X010812Y007903D02*
X010804Y007911D01*
X010787D01*
X010779Y007903D01*
Y007870D01*
X010787Y007861D01*
X010804D01*
X010812Y007870D01*
X010862Y007911D02*
X010829D01*
Y007861D01*
X010862D01*
X010829Y007886D02*
X010846D01*
X010879Y007861D02*
Y007911D01*
X010904D01*
X010912Y007903D01*
Y007886D01*
X010904Y007878D01*
X010879D01*
X010896D02*
X010912Y007861D01*
X010929D02*
Y007895D01*
X010946Y007911D01*
X010962Y007895D01*
Y007861D01*
Y007886D01*
X010929D01*
X010979Y007861D02*
Y007911D01*
X010996Y007895D01*
X011012Y007911D01*
Y007861D01*
D71*
X011621Y009563D02*
X011570D01*
X011544Y009588D01*
X011570Y009614D01*
X011621D01*
X011582D01*
Y009563D01*
X011544Y009639D02*
X011621D01*
Y009677D01*
X011608Y009690D01*
X011557D01*
X011544Y009677D01*
Y009639D01*
X011557Y009715D02*
X011544Y009728D01*
Y009754D01*
X011557Y009766D01*
X011570D01*
X011582Y009754D01*
X011595Y009766D01*
X011608D01*
X011621Y009754D01*
Y009728D01*
X011608Y009715D01*
X011595D01*
X011582Y009728D01*
X011570Y009715D01*
X011557D01*
X011582Y009728D02*
Y009754D01*
X011557Y009792D02*
X011544Y009804D01*
Y009830D01*
X011557Y009842D01*
X011608D01*
X011621Y009830D01*
Y009804D01*
X011608Y009792D01*
X011557D01*
Y009868D02*
X011544Y009880D01*
Y009906D01*
X011557Y009919D01*
X011570D01*
X011582Y009906D01*
Y009893D01*
Y009906D01*
X011595Y009919D01*
X011608D01*
X011621Y009906D01*
Y009880D01*
X011608Y009868D01*
X011621Y009995D02*
Y009944D01*
X011570Y009995D01*
X011557D01*
X011544Y009982D01*
Y009957D01*
X011557Y009944D01*
X011621Y010020D02*
X011570D01*
X011544Y010046D01*
X011570Y010071D01*
X011621D01*
X011582D01*
Y010020D01*
X019228Y016192D02*
X019279D01*
X019253Y016218D02*
Y016167D01*
X019964Y017221D02*
X020015D01*
X019990Y017247D02*
Y017196D01*
X015138Y017285D02*
X015189D01*
X015164Y017310D02*
Y017259D01*
X026403Y023038D02*
Y022987D01*
X026429Y023012D02*
X026378D01*
X008306Y019240D02*
Y019291D01*
X008280Y019266D02*
X008331D01*
X015888Y020841D02*
Y020891D01*
X015913Y020917D01*
X015938Y020891D01*
Y020841D01*
Y020879D01*
X015888D01*
X016015Y020904D02*
X016002Y020917D01*
X015977D01*
X015964Y020904D01*
Y020853D01*
X015977Y020841D01*
X016002D01*
X016015Y020853D01*
X016040Y020841D02*
Y020917D01*
X016091Y020841D01*
Y020917D01*
X016116D02*
Y020841D01*
X016142Y020866D01*
X016167Y020841D01*
Y020917D01*
X016192Y020904D02*
X016205Y020917D01*
X016230D01*
X016243Y020904D01*
Y020891D01*
X016230Y020879D01*
X016218D01*
X016230D01*
X016243Y020866D01*
Y020853D01*
X016230Y020841D01*
X016205D01*
X016192Y020853D01*
X016269Y020841D02*
X016294D01*
X016281D01*
Y020917D01*
X016269Y020904D01*
X016332D02*
X016345Y020917D01*
X016370D01*
X016383Y020904D01*
Y020891D01*
X016370Y020879D01*
X016357D01*
X016370D01*
X016383Y020866D01*
Y020853D01*
X016370Y020841D01*
X016345D01*
X016332Y020853D01*
X016408Y020904D02*
X016421Y020917D01*
X016446D01*
X016459Y020904D01*
Y020853D01*
X016446Y020841D01*
X016421D01*
X016408Y020853D01*
Y020904D01*
X011443Y020993D02*
Y021044D01*
X011468Y021069D01*
X011493Y021044D01*
Y020993D01*
Y021031D01*
X011443D01*
X011570Y021057D02*
X011557Y021069D01*
X011532D01*
X011519Y021057D01*
Y021006D01*
X011532Y020993D01*
X011557D01*
X011570Y021006D01*
X011595Y020993D02*
Y021069D01*
X011646Y020993D01*
Y021069D01*
X011671D02*
Y020993D01*
X011697Y021018D01*
X011722Y020993D01*
Y021069D01*
X011747Y021057D02*
X011760Y021069D01*
X011785D01*
X011798Y021057D01*
Y021044D01*
X011785Y021031D01*
X011773D01*
X011785D01*
X011798Y021018D01*
Y021006D01*
X011785Y020993D01*
X011760D01*
X011747Y021006D01*
X011824Y020993D02*
X011849D01*
X011836D01*
Y021069D01*
X011824Y021057D01*
X011887D02*
X011900Y021069D01*
X011925D01*
X011938Y021057D01*
Y021044D01*
X011925Y021031D01*
X011912D01*
X011925D01*
X011938Y021018D01*
Y021006D01*
X011925Y020993D01*
X011900D01*
X011887Y021006D01*
X011963Y021057D02*
X011976Y021069D01*
X012001D01*
X012014Y021057D01*
Y021006D01*
X012001Y020993D01*
X011976D01*
X011963Y021006D01*
Y021057D01*
X007214Y020752D02*
Y020803D01*
X007239Y020828D01*
X007264Y020803D01*
Y020752D01*
Y020790D01*
X007214D01*
X007341Y020815D02*
X007328Y020828D01*
X007302D01*
X007290Y020815D01*
Y020764D01*
X007302Y020752D01*
X007328D01*
X007341Y020764D01*
X007366Y020752D02*
Y020828D01*
X007417Y020752D01*
Y020828D01*
X007442D02*
Y020752D01*
X007468Y020777D01*
X007493Y020752D01*
Y020828D01*
X007518Y020815D02*
X007531Y020828D01*
X007556D01*
X007569Y020815D01*
Y020803D01*
X007556Y020790D01*
X007544D01*
X007556D01*
X007569Y020777D01*
Y020764D01*
X007556Y020752D01*
X007531D01*
X007518Y020764D01*
X007594Y020752D02*
X007620D01*
X007607D01*
Y020828D01*
X007594Y020815D01*
X007658D02*
X007671Y020828D01*
X007696D01*
X007709Y020815D01*
Y020803D01*
X007696Y020790D01*
X007683D01*
X007696D01*
X007709Y020777D01*
Y020764D01*
X007696Y020752D01*
X007671D01*
X007658Y020764D01*
X007734Y020815D02*
X007747Y020828D01*
X007772D01*
X007785Y020815D01*
Y020764D01*
X007772Y020752D01*
X007747D01*
X007734Y020764D01*
Y020815D01*
X008636Y020739D02*
Y020790D01*
X008661Y020815D01*
X008687Y020790D01*
Y020739D01*
Y020777D01*
X008636D01*
X008763Y020803D02*
X008750Y020815D01*
X008725D01*
X008712Y020803D01*
Y020752D01*
X008725Y020739D01*
X008750D01*
X008763Y020752D01*
X008788Y020739D02*
Y020815D01*
X008839Y020739D01*
Y020815D01*
X008865D02*
Y020739D01*
X008890Y020764D01*
X008915Y020739D01*
Y020815D01*
X008941Y020803D02*
X008953Y020815D01*
X008979D01*
X008991Y020803D01*
Y020790D01*
X008979Y020777D01*
X008966D01*
X008979D01*
X008991Y020764D01*
Y020752D01*
X008979Y020739D01*
X008953D01*
X008941Y020752D01*
X009017Y020739D02*
X009042D01*
X009030D01*
Y020815D01*
X009017Y020803D01*
X009080D02*
X009093Y020815D01*
X009118D01*
X009131Y020803D01*
Y020790D01*
X009118Y020777D01*
X009106D01*
X009118D01*
X009131Y020764D01*
Y020752D01*
X009118Y020739D01*
X009093D01*
X009080Y020752D01*
X009157Y020803D02*
X009169Y020815D01*
X009195D01*
X009207Y020803D01*
Y020752D01*
X009195Y020739D01*
X009169D01*
X009157Y020752D01*
Y020803D01*
X018605Y020790D02*
Y020841D01*
X018631Y020866D01*
X018656Y020841D01*
Y020790D01*
Y020828D01*
X018605D01*
X018732Y020853D02*
X018720Y020866D01*
X018694D01*
X018682Y020853D01*
Y020803D01*
X018694Y020790D01*
X018720D01*
X018732Y020803D01*
X018758Y020790D02*
Y020866D01*
X018809Y020790D01*
Y020866D01*
X018834D02*
Y020790D01*
X018859Y020815D01*
X018885Y020790D01*
Y020866D01*
X018910Y020853D02*
X018923Y020866D01*
X018948D01*
X018961Y020853D01*
Y020841D01*
X018948Y020828D01*
X018936D01*
X018948D01*
X018961Y020815D01*
Y020803D01*
X018948Y020790D01*
X018923D01*
X018910Y020803D01*
X018986Y020790D02*
X019012D01*
X018999D01*
Y020866D01*
X018986Y020853D01*
X019050D02*
X019063Y020866D01*
X019088D01*
X019101Y020853D01*
Y020841D01*
X019088Y020828D01*
X019075D01*
X019088D01*
X019101Y020815D01*
Y020803D01*
X019088Y020790D01*
X019063D01*
X019050Y020803D01*
X019126Y020853D02*
X019139Y020866D01*
X019164D01*
X019177Y020853D01*
Y020803D01*
X019164Y020790D01*
X019139D01*
X019126Y020803D01*
Y020853D01*
X019926Y020790D02*
Y020841D01*
X019952Y020866D01*
X019977Y020841D01*
Y020790D01*
Y020828D01*
X019926D01*
X020053Y020853D02*
X020041Y020866D01*
X020015D01*
X020002Y020853D01*
Y020803D01*
X020015Y020790D01*
X020041D01*
X020053Y020803D01*
X020079Y020790D02*
Y020866D01*
X020129Y020790D01*
Y020866D01*
X020155D02*
Y020790D01*
X020180Y020815D01*
X020206Y020790D01*
Y020866D01*
X020231Y020853D02*
X020244Y020866D01*
X020269D01*
X020282Y020853D01*
Y020841D01*
X020269Y020828D01*
X020256D01*
X020269D01*
X020282Y020815D01*
Y020803D01*
X020269Y020790D01*
X020244D01*
X020231Y020803D01*
X020307Y020790D02*
X020333D01*
X020320D01*
Y020866D01*
X020307Y020853D01*
X020371D02*
X020383Y020866D01*
X020409D01*
X020421Y020853D01*
Y020841D01*
X020409Y020828D01*
X020396D01*
X020409D01*
X020421Y020815D01*
Y020803D01*
X020409Y020790D01*
X020383D01*
X020371Y020803D01*
X020447Y020853D02*
X020460Y020866D01*
X020485D01*
X020498Y020853D01*
Y020803D01*
X020485Y020790D01*
X020460D01*
X020447Y020803D01*
Y020853D01*
X007442Y016967D02*
X007379D01*
Y016935D01*
X007389Y016925D01*
X007400D01*
X007410Y016935D01*
Y016967D01*
Y016935D01*
X007421Y016925D01*
X007432D01*
X007442Y016935D01*
Y016967D01*
X007421Y016904D02*
X007389D01*
X007379Y016893D01*
Y016861D01*
X007421D01*
X007379Y016830D02*
X007432D01*
X007410D01*
Y016840D01*
Y016819D01*
Y016830D01*
X007432D01*
X007442Y016819D01*
X007379Y016777D02*
X007432D01*
X007410D01*
Y016787D01*
Y016766D01*
Y016777D01*
X007432D01*
X007442Y016766D01*
X007379Y016703D02*
Y016724D01*
X007389Y016734D01*
X007410D01*
X007421Y016724D01*
Y016703D01*
X007410Y016692D01*
X007400D01*
Y016734D01*
X007421Y016671D02*
X007379D01*
X007400D01*
X007410Y016660D01*
X007421Y016650D01*
Y016639D01*
X007279Y016671D02*
X007290Y016681D01*
Y016703D01*
X007279Y016713D01*
X007269D01*
X007258Y016703D01*
Y016681D01*
X007247Y016671D01*
X007237D01*
X007226Y016681D01*
Y016703D01*
X007237Y016713D01*
X007226Y016650D02*
X007290D01*
X007226Y016607D01*
X007290D01*
Y016586D02*
Y016544D01*
X007279D01*
X007237Y016586D01*
X007226D01*
Y016491D02*
X007290D01*
X007258Y016523D01*
Y016480D01*
X007290Y016459D02*
X007226D01*
X007258D01*
Y016417D01*
X007290D01*
X007226D01*
X007279Y016353D02*
X007290Y016364D01*
Y016385D01*
X007279Y016396D01*
X007237D01*
X007226Y016385D01*
Y016364D01*
X007237Y016353D01*
X007279Y016332D02*
X007290Y016322D01*
Y016301D01*
X007279Y016290D01*
X007237D01*
X007226Y016301D01*
Y016322D01*
X007237Y016332D01*
X007279D01*
X007226Y016237D02*
X007290D01*
X007258Y016269D01*
Y016227D01*
X007226Y016205D02*
X007290D01*
X007226Y016163D01*
X007290D01*
Y016078D02*
X007226D01*
X007258D01*
Y016036D01*
X007290D01*
X007226D01*
Y015983D02*
Y016004D01*
X007237Y016015D01*
X007258D01*
X007269Y016004D01*
Y015983D01*
X007258Y015973D01*
X007247D01*
Y016015D01*
X007269Y015951D02*
X007226Y015909D01*
X007247Y015930D01*
X007269Y015909D01*
X007226Y015951D01*
X007290Y015824D02*
Y015803D01*
Y015814D01*
X007226D01*
Y015824D01*
Y015803D01*
Y015772D02*
X007269D01*
Y015740D01*
X007258Y015729D01*
X007226D01*
X007269Y015708D02*
X007226Y015687D01*
X007269Y015666D01*
X007226Y015613D02*
Y015634D01*
X007237Y015645D01*
X007258D01*
X007269Y015634D01*
Y015613D01*
X007258Y015602D01*
X007247D01*
Y015645D01*
X007269Y015581D02*
X007226D01*
X007247D01*
X007258Y015571D01*
X007269Y015560D01*
Y015549D01*
X007279Y015507D02*
X007269D01*
Y015518D01*
Y015497D01*
Y015507D01*
X007237D01*
X007226Y015497D01*
Y015433D02*
Y015454D01*
X007237Y015465D01*
X007258D01*
X007269Y015454D01*
Y015433D01*
X007258Y015422D01*
X007247D01*
Y015465D01*
X007269Y015401D02*
X007226D01*
X007247D01*
X007258Y015391D01*
X007269Y015380D01*
Y015370D01*
X014986Y010528D02*
X014935D01*
X014910Y010554D01*
X014935Y010579D01*
X014986D01*
X014948D01*
Y010528D01*
X014910Y010604D02*
X014986D01*
Y010643D01*
X014973Y010655D01*
X014923D01*
X014910Y010643D01*
Y010604D01*
X014923Y010681D02*
X014910Y010693D01*
Y010719D01*
X014923Y010731D01*
X014935D01*
X014948Y010719D01*
X014961Y010731D01*
X014973D01*
X014986Y010719D01*
Y010693D01*
X014973Y010681D01*
X014961D01*
X014948Y010693D01*
X014935Y010681D01*
X014923D01*
X014948Y010693D02*
Y010719D01*
X014923Y010757D02*
X014910Y010770D01*
Y010795D01*
X014923Y010808D01*
X014973D01*
X014986Y010795D01*
Y010770D01*
X014973Y010757D01*
X014923D01*
Y010833D02*
X014910Y010846D01*
Y010871D01*
X014923Y010884D01*
X014935D01*
X014948Y010871D01*
Y010858D01*
Y010871D01*
X014961Y010884D01*
X014973D01*
X014986Y010871D01*
Y010846D01*
X014973Y010833D01*
X014986Y010960D02*
Y010909D01*
X014935Y010960D01*
X014923D01*
X014910Y010947D01*
Y010922D01*
X014923Y010909D01*
X014986Y010985D02*
X014935D01*
X014910Y011011D01*
X014935Y011036D01*
X014986D01*
X014948D01*
Y010985D01*
X009881Y010528D02*
X009830D01*
X009804Y010554D01*
X009830Y010579D01*
X009881D01*
X009843D01*
Y010528D01*
X009804Y010604D02*
X009881D01*
Y010643D01*
X009868Y010655D01*
X009817D01*
X009804Y010643D01*
Y010604D01*
X009817Y010681D02*
X009804Y010693D01*
Y010719D01*
X009817Y010731D01*
X009830D01*
X009843Y010719D01*
X009855Y010731D01*
X009868D01*
X009881Y010719D01*
Y010693D01*
X009868Y010681D01*
X009855D01*
X009843Y010693D01*
X009830Y010681D01*
X009817D01*
X009843Y010693D02*
Y010719D01*
X009817Y010757D02*
X009804Y010770D01*
Y010795D01*
X009817Y010808D01*
X009868D01*
X009881Y010795D01*
Y010770D01*
X009868Y010757D01*
X009817D01*
Y010833D02*
X009804Y010846D01*
Y010871D01*
X009817Y010884D01*
X009830D01*
X009843Y010871D01*
Y010858D01*
Y010871D01*
X009855Y010884D01*
X009868D01*
X009881Y010871D01*
Y010846D01*
X009868Y010833D01*
X009881Y010960D02*
Y010909D01*
X009830Y010960D01*
X009817D01*
X009804Y010947D01*
Y010922D01*
X009817Y010909D01*
X009881Y010985D02*
X009830D01*
X009804Y011011D01*
X009830Y011036D01*
X009881D01*
X009843D01*
Y010985D01*
X006363Y020803D02*
X006312D01*
X006337Y020777D02*
Y020828D01*
X013551Y021742D02*
X013602D01*
X013576Y021768D02*
Y021717D01*
X012687Y020815D02*
X012738D01*
X012713Y020841D02*
Y020790D01*
X013246Y019710D02*
X013195D01*
X013221Y019685D02*
Y019736D01*
X014834Y021730D02*
X014884D01*
X014859Y021755D02*
Y021704D01*
X010046Y020536D02*
X010096D01*
X010071Y020561D02*
Y020510D01*
X010668Y022898D02*
X010617D01*
X010643Y022873D02*
Y022924D01*
X006794Y021641D02*
X006744D01*
X006769Y021615D02*
Y021666D01*
X016904Y021755D02*
X016954D01*
X016929Y021780D02*
Y021730D01*
X017348Y020434D02*
X017399D01*
X017374Y020460D02*
Y020409D01*
X021628Y021742D02*
X021679D01*
X021653Y021768D02*
Y021717D01*
X022085Y020561D02*
X022136D01*
X022111Y020587D02*
Y020536D01*
X024867Y012395D02*
X024917D01*
X024892Y012421D02*
Y012370D01*
X025032Y011163D02*
Y011113D01*
X025057Y011138D02*
X025006D01*
X024905Y008928D02*
X024955D01*
X024930Y008953D02*
Y008903D01*
X017958Y005702D02*
Y005753D01*
X017932Y005728D02*
X017983D01*
X017462Y007214D02*
X017513D01*
X017488Y007239D02*
Y007188D01*
X009525Y008230D02*
X009576D01*
X009550Y008255D02*
Y008204D01*
X009779Y006629D02*
Y006680D01*
X009754Y006655D02*
X009804D01*
X006274Y017234D02*
Y017264D01*
Y017249D01*
X006185D01*
X006200Y017234D01*
X006274Y017545D02*
Y017486D01*
X006215Y017545D01*
X006200D01*
X006185Y017530D01*
Y017501D01*
X006200Y017486D01*
Y017752D02*
X006185Y017767D01*
Y017797D01*
X006200Y017812D01*
X006215D01*
X006229Y017797D01*
Y017782D01*
Y017797D01*
X006244Y017812D01*
X006259D01*
X006274Y017797D01*
Y017767D01*
X006259Y017752D01*
X006274Y018063D02*
X006185D01*
X006229Y018019D01*
Y018078D01*
X005740Y017234D02*
Y017208D01*
X005753Y017196D01*
X005804D01*
X005817Y017208D01*
Y017234D01*
X005804Y017247D01*
X005753D01*
X005740Y017234D01*
X005842Y017272D02*
X005766D01*
Y017310D01*
X005779Y017323D01*
X005804D01*
X005817Y017310D01*
Y017272D01*
X005753Y017361D02*
X005766D01*
Y017348D01*
Y017374D01*
Y017361D01*
X005804D01*
X005817Y017374D01*
Y017412D02*
Y017437D01*
Y017424D01*
X005766D01*
Y017412D01*
Y017526D02*
Y017488D01*
X005779Y017475D01*
X005804D01*
X005817Y017488D01*
Y017526D01*
X005766Y017564D02*
Y017589D01*
X005779Y017602D01*
X005817D01*
Y017564D01*
X005804Y017551D01*
X005791Y017564D01*
Y017602D01*
X005817Y017627D02*
Y017653D01*
Y017640D01*
X005740D01*
Y017627D01*
Y017818D02*
Y017767D01*
X005779D01*
Y017793D01*
Y017767D01*
X005817D01*
Y017843D02*
Y017869D01*
Y017856D01*
X005766D01*
Y017843D01*
X005740Y017907D02*
X005817D01*
Y017945D01*
X005804Y017958D01*
X005791D01*
X005779D01*
X005766Y017945D01*
Y017907D01*
X005817Y018021D02*
Y017996D01*
X005804Y017983D01*
X005779D01*
X005766Y017996D01*
Y018021D01*
X005779Y018034D01*
X005791D01*
Y017983D01*
X005766Y018059D02*
X005817D01*
X005791D01*
X005779Y018072D01*
X005766Y018085D01*
Y018097D01*
X005438Y017247D02*
X005423Y017261D01*
Y017291D01*
X005438Y017306D01*
X005453D01*
X005467Y017291D01*
X005482Y017306D01*
X005497D01*
X005512Y017291D01*
Y017261D01*
X005497Y017247D01*
X005482D01*
X005467Y017261D01*
X005453Y017247D01*
X005438D01*
X005467Y017261D02*
Y017291D01*
X005436Y018068D02*
Y018009D01*
X005480D01*
X005465Y018038D01*
Y018053D01*
X005480Y018068D01*
X005510D01*
X005524Y018053D01*
Y018023D01*
X005510Y018009D01*
X006274Y016218D02*
Y016248D01*
Y016233D01*
X006185D01*
X006200Y016218D01*
X006274Y016529D02*
Y016470D01*
X006215Y016529D01*
X006200D01*
X006185Y016514D01*
Y016485D01*
X006200Y016470D01*
Y016736D02*
X006185Y016751D01*
Y016781D01*
X006200Y016796D01*
X006215D01*
X006229Y016781D01*
Y016766D01*
Y016781D01*
X006244Y016796D01*
X006259D01*
X006274Y016781D01*
Y016751D01*
X006259Y016736D01*
X006274Y017047D02*
X006185D01*
X006229Y017003D01*
Y017062D01*
X005740Y016218D02*
Y016192D01*
X005753Y016180D01*
X005804D01*
X005817Y016192D01*
Y016218D01*
X005804Y016231D01*
X005753D01*
X005740Y016218D01*
X005842Y016256D02*
X005766D01*
Y016294D01*
X005779Y016307D01*
X005804D01*
X005817Y016294D01*
Y016256D01*
X005753Y016345D02*
X005766D01*
Y016332D01*
Y016358D01*
Y016345D01*
X005804D01*
X005817Y016358D01*
Y016396D02*
Y016421D01*
Y016408D01*
X005766D01*
Y016396D01*
Y016510D02*
Y016472D01*
X005779Y016459D01*
X005804D01*
X005817Y016472D01*
Y016510D01*
X005766Y016548D02*
Y016573D01*
X005779Y016586D01*
X005817D01*
Y016548D01*
X005804Y016535D01*
X005791Y016548D01*
Y016586D01*
X005817Y016611D02*
Y016637D01*
Y016624D01*
X005740D01*
Y016611D01*
Y016802D02*
Y016751D01*
X005779D01*
Y016777D01*
Y016751D01*
X005817D01*
Y016827D02*
Y016853D01*
Y016840D01*
X005766D01*
Y016827D01*
X005740Y016891D02*
X005817D01*
Y016929D01*
X005804Y016942D01*
X005791D01*
X005779D01*
X005766Y016929D01*
Y016891D01*
X005817Y017005D02*
Y016980D01*
X005804Y016967D01*
X005779D01*
X005766Y016980D01*
Y017005D01*
X005779Y017018D01*
X005791D01*
Y016967D01*
X005766Y017043D02*
X005817D01*
X005791D01*
X005779Y017056D01*
X005766Y017069D01*
Y017081D01*
X005438Y016231D02*
X005423Y016245D01*
Y016275D01*
X005438Y016290D01*
X005453D01*
X005467Y016275D01*
X005482Y016290D01*
X005497D01*
X005512Y016275D01*
Y016245D01*
X005497Y016231D01*
X005482D01*
X005467Y016245D01*
X005453Y016231D01*
X005438D01*
X005467Y016245D02*
Y016275D01*
X005436Y017052D02*
Y016993D01*
X005480D01*
X005465Y017022D01*
Y017037D01*
X005480Y017052D01*
X005510D01*
X005524Y017037D01*
Y017007D01*
X005510Y016993D01*
X006274Y015202D02*
Y015232D01*
Y015217D01*
X006185D01*
X006200Y015202D01*
X006274Y015513D02*
Y015454D01*
X006215Y015513D01*
X006200D01*
X006185Y015498D01*
Y015469D01*
X006200Y015454D01*
Y015720D02*
X006185Y015735D01*
Y015765D01*
X006200Y015780D01*
X006215D01*
X006229Y015765D01*
Y015750D01*
Y015765D01*
X006244Y015780D01*
X006259D01*
X006274Y015765D01*
Y015735D01*
X006259Y015720D01*
X006274Y016031D02*
X006185D01*
X006229Y015987D01*
Y016046D01*
X005740Y015202D02*
Y015176D01*
X005753Y015164D01*
X005804D01*
X005817Y015176D01*
Y015202D01*
X005804Y015215D01*
X005753D01*
X005740Y015202D01*
X005842Y015240D02*
X005766D01*
Y015278D01*
X005779Y015291D01*
X005804D01*
X005817Y015278D01*
Y015240D01*
X005753Y015329D02*
X005766D01*
Y015316D01*
Y015342D01*
Y015329D01*
X005804D01*
X005817Y015342D01*
Y015380D02*
Y015405D01*
Y015392D01*
X005766D01*
Y015380D01*
Y015494D02*
Y015456D01*
X005779Y015443D01*
X005804D01*
X005817Y015456D01*
Y015494D01*
X005766Y015532D02*
Y015557D01*
X005779Y015570D01*
X005817D01*
Y015532D01*
X005804Y015519D01*
X005791Y015532D01*
Y015570D01*
X005817Y015595D02*
Y015621D01*
Y015608D01*
X005740D01*
Y015595D01*
Y015786D02*
Y015735D01*
X005779D01*
Y015761D01*
Y015735D01*
X005817D01*
Y015811D02*
Y015837D01*
Y015824D01*
X005766D01*
Y015811D01*
X005740Y015875D02*
X005817D01*
Y015913D01*
X005804Y015926D01*
X005791D01*
X005779D01*
X005766Y015913D01*
Y015875D01*
X005817Y015989D02*
Y015964D01*
X005804Y015951D01*
X005779D01*
X005766Y015964D01*
Y015989D01*
X005779Y016002D01*
X005791D01*
Y015951D01*
X005766Y016027D02*
X005817D01*
X005791D01*
X005779Y016040D01*
X005766Y016053D01*
Y016065D01*
X005438Y015215D02*
X005423Y015229D01*
Y015259D01*
X005438Y015274D01*
X005453D01*
X005467Y015259D01*
X005482Y015274D01*
X005497D01*
X005512Y015259D01*
Y015229D01*
X005497Y015215D01*
X005482D01*
X005467Y015229D01*
X005453Y015215D01*
X005438D01*
X005467Y015229D02*
Y015259D01*
X005436Y016036D02*
Y015977D01*
X005480D01*
X005465Y016006D01*
Y016021D01*
X005480Y016036D01*
X005510D01*
X005524Y016021D01*
Y015991D01*
X005510Y015977D01*
X006274Y014186D02*
Y014216D01*
Y014201D01*
X006185D01*
X006200Y014186D01*
X006274Y014497D02*
Y014438D01*
X006215Y014497D01*
X006200D01*
X006185Y014482D01*
Y014453D01*
X006200Y014438D01*
Y014704D02*
X006185Y014719D01*
Y014749D01*
X006200Y014764D01*
X006215D01*
X006229Y014749D01*
Y014734D01*
Y014749D01*
X006244Y014764D01*
X006259D01*
X006274Y014749D01*
Y014719D01*
X006259Y014704D01*
X006274Y015015D02*
X006185D01*
X006229Y014971D01*
Y015030D01*
X005740Y014186D02*
Y014160D01*
X005753Y014148D01*
X005804D01*
X005817Y014160D01*
Y014186D01*
X005804Y014199D01*
X005753D01*
X005740Y014186D01*
X005842Y014224D02*
X005766D01*
Y014262D01*
X005779Y014275D01*
X005804D01*
X005817Y014262D01*
Y014224D01*
X005753Y014313D02*
X005766D01*
Y014300D01*
Y014326D01*
Y014313D01*
X005804D01*
X005817Y014326D01*
Y014364D02*
Y014389D01*
Y014376D01*
X005766D01*
Y014364D01*
Y014478D02*
Y014440D01*
X005779Y014427D01*
X005804D01*
X005817Y014440D01*
Y014478D01*
X005766Y014516D02*
Y014541D01*
X005779Y014554D01*
X005817D01*
Y014516D01*
X005804Y014503D01*
X005791Y014516D01*
Y014554D01*
X005817Y014579D02*
Y014605D01*
Y014592D01*
X005740D01*
Y014579D01*
Y014770D02*
Y014719D01*
X005779D01*
Y014745D01*
Y014719D01*
X005817D01*
Y014795D02*
Y014821D01*
Y014808D01*
X005766D01*
Y014795D01*
X005740Y014859D02*
X005817D01*
Y014897D01*
X005804Y014910D01*
X005791D01*
X005779D01*
X005766Y014897D01*
Y014859D01*
X005817Y014973D02*
Y014948D01*
X005804Y014935D01*
X005779D01*
X005766Y014948D01*
Y014973D01*
X005779Y014986D01*
X005791D01*
Y014935D01*
X005766Y015011D02*
X005817D01*
X005791D01*
X005779Y015024D01*
X005766Y015037D01*
Y015049D01*
X005438Y014199D02*
X005423Y014213D01*
Y014243D01*
X005438Y014258D01*
X005453D01*
X005467Y014243D01*
X005482Y014258D01*
X005497D01*
X005512Y014243D01*
Y014213D01*
X005497Y014199D01*
X005482D01*
X005467Y014213D01*
X005453Y014199D01*
X005438D01*
X005467Y014213D02*
Y014243D01*
X005436Y015020D02*
Y014961D01*
X005480D01*
X005465Y014990D01*
Y015005D01*
X005480Y015020D01*
X005510D01*
X005524Y015005D01*
Y014975D01*
X005510Y014961D01*
X006274Y013170D02*
Y013200D01*
Y013185D01*
X006185D01*
X006200Y013170D01*
X006274Y013481D02*
Y013422D01*
X006215Y013481D01*
X006200D01*
X006185Y013466D01*
Y013437D01*
X006200Y013422D01*
Y013688D02*
X006185Y013703D01*
Y013733D01*
X006200Y013748D01*
X006215D01*
X006229Y013733D01*
Y013718D01*
Y013733D01*
X006244Y013748D01*
X006259D01*
X006274Y013733D01*
Y013703D01*
X006259Y013688D01*
X006274Y013999D02*
X006185D01*
X006229Y013955D01*
Y014014D01*
X005740Y013170D02*
Y013144D01*
X005753Y013132D01*
X005804D01*
X005817Y013144D01*
Y013170D01*
X005804Y013183D01*
X005753D01*
X005740Y013170D01*
X005842Y013208D02*
X005766D01*
Y013246D01*
X005779Y013259D01*
X005804D01*
X005817Y013246D01*
Y013208D01*
X005753Y013297D02*
X005766D01*
Y013284D01*
Y013310D01*
Y013297D01*
X005804D01*
X005817Y013310D01*
Y013348D02*
Y013373D01*
Y013360D01*
X005766D01*
Y013348D01*
Y013462D02*
Y013424D01*
X005779Y013411D01*
X005804D01*
X005817Y013424D01*
Y013462D01*
X005766Y013500D02*
Y013525D01*
X005779Y013538D01*
X005817D01*
Y013500D01*
X005804Y013487D01*
X005791Y013500D01*
Y013538D01*
X005817Y013563D02*
Y013589D01*
Y013576D01*
X005740D01*
Y013563D01*
Y013754D02*
Y013703D01*
X005779D01*
Y013729D01*
Y013703D01*
X005817D01*
Y013779D02*
Y013805D01*
Y013792D01*
X005766D01*
Y013779D01*
X005740Y013843D02*
X005817D01*
Y013881D01*
X005804Y013894D01*
X005791D01*
X005779D01*
X005766Y013881D01*
Y013843D01*
X005817Y013957D02*
Y013932D01*
X005804Y013919D01*
X005779D01*
X005766Y013932D01*
Y013957D01*
X005779Y013970D01*
X005791D01*
Y013919D01*
X005766Y013995D02*
X005817D01*
X005791D01*
X005779Y014008D01*
X005766Y014021D01*
Y014033D01*
X005438Y013183D02*
X005423Y013197D01*
Y013227D01*
X005438Y013242D01*
X005453D01*
X005467Y013227D01*
X005482Y013242D01*
X005497D01*
X005512Y013227D01*
Y013197D01*
X005497Y013183D01*
X005482D01*
X005467Y013197D01*
X005453Y013183D01*
X005438D01*
X005467Y013197D02*
Y013227D01*
X005436Y014004D02*
Y013945D01*
X005480D01*
X005465Y013974D01*
Y013989D01*
X005480Y014004D01*
X005510D01*
X005524Y013989D01*
Y013959D01*
X005510Y013945D01*
X006274Y012154D02*
Y012184D01*
Y012169D01*
X006185D01*
X006200Y012154D01*
X006274Y012465D02*
Y012406D01*
X006215Y012465D01*
X006200D01*
X006185Y012450D01*
Y012421D01*
X006200Y012406D01*
Y012672D02*
X006185Y012687D01*
Y012717D01*
X006200Y012732D01*
X006215D01*
X006229Y012717D01*
Y012702D01*
Y012717D01*
X006244Y012732D01*
X006259D01*
X006274Y012717D01*
Y012687D01*
X006259Y012672D01*
X006274Y012983D02*
X006185D01*
X006229Y012939D01*
Y012998D01*
X005740Y012154D02*
Y012128D01*
X005753Y012116D01*
X005804D01*
X005817Y012128D01*
Y012154D01*
X005804Y012167D01*
X005753D01*
X005740Y012154D01*
X005842Y012192D02*
X005766D01*
Y012230D01*
X005779Y012243D01*
X005804D01*
X005817Y012230D01*
Y012192D01*
X005753Y012281D02*
X005766D01*
Y012268D01*
Y012294D01*
Y012281D01*
X005804D01*
X005817Y012294D01*
Y012332D02*
Y012357D01*
Y012344D01*
X005766D01*
Y012332D01*
Y012446D02*
Y012408D01*
X005779Y012395D01*
X005804D01*
X005817Y012408D01*
Y012446D01*
X005766Y012484D02*
Y012509D01*
X005779Y012522D01*
X005817D01*
Y012484D01*
X005804Y012471D01*
X005791Y012484D01*
Y012522D01*
X005817Y012547D02*
Y012573D01*
Y012560D01*
X005740D01*
Y012547D01*
Y012738D02*
Y012687D01*
X005779D01*
Y012713D01*
Y012687D01*
X005817D01*
Y012763D02*
Y012789D01*
Y012776D01*
X005766D01*
Y012763D01*
X005740Y012827D02*
X005817D01*
Y012865D01*
X005804Y012878D01*
X005791D01*
X005779D01*
X005766Y012865D01*
Y012827D01*
X005817Y012941D02*
Y012916D01*
X005804Y012903D01*
X005779D01*
X005766Y012916D01*
Y012941D01*
X005779Y012954D01*
X005791D01*
Y012903D01*
X005766Y012979D02*
X005817D01*
X005791D01*
X005779Y012992D01*
X005766Y013005D01*
Y013017D01*
X005438Y012167D02*
X005423Y012181D01*
Y012211D01*
X005438Y012226D01*
X005453D01*
X005467Y012211D01*
X005482Y012226D01*
X005497D01*
X005512Y012211D01*
Y012181D01*
X005497Y012167D01*
X005482D01*
X005467Y012181D01*
X005453Y012167D01*
X005438D01*
X005467Y012181D02*
Y012211D01*
X005436Y012988D02*
Y012929D01*
X005480D01*
X005465Y012958D01*
Y012973D01*
X005480Y012988D01*
X005510D01*
X005524Y012973D01*
Y012943D01*
X005510Y012929D01*
X012649Y016726D02*
Y016756D01*
Y016741D01*
X012560D01*
X012575Y016726D01*
X012649Y017037D02*
Y016978D01*
X012590Y017037D01*
X012575D01*
X012560Y017022D01*
Y016993D01*
X012575Y016978D01*
Y017244D02*
X012560Y017259D01*
Y017289D01*
X012575Y017304D01*
X012590D01*
X012605Y017289D01*
Y017274D01*
Y017289D01*
X012620Y017304D01*
X012634D01*
X012649Y017289D01*
Y017259D01*
X012634Y017244D01*
X012649Y017555D02*
X012560D01*
X012605Y017511D01*
Y017570D01*
X012116Y016726D02*
Y016700D01*
X012129Y016688D01*
X012179D01*
X012192Y016700D01*
Y016726D01*
X012179Y016739D01*
X012129D01*
X012116Y016726D01*
X012217Y016764D02*
X012141D01*
Y016802D01*
X012154Y016815D01*
X012179D01*
X012192Y016802D01*
Y016764D01*
X012129Y016853D02*
X012141D01*
Y016840D01*
Y016866D01*
Y016853D01*
X012179D01*
X012192Y016866D01*
Y016904D02*
Y016929D01*
Y016916D01*
X012141D01*
Y016904D01*
Y017018D02*
Y016980D01*
X012154Y016967D01*
X012179D01*
X012192Y016980D01*
Y017018D01*
X012141Y017056D02*
Y017081D01*
X012154Y017094D01*
X012192D01*
Y017056D01*
X012179Y017043D01*
X012167Y017056D01*
Y017094D01*
X012192Y017119D02*
Y017145D01*
Y017132D01*
X012116D01*
Y017119D01*
Y017310D02*
Y017259D01*
X012154D01*
Y017285D01*
Y017259D01*
X012192D01*
Y017335D02*
Y017361D01*
Y017348D01*
X012141D01*
Y017335D01*
X012116Y017399D02*
X012192D01*
Y017437D01*
X012179Y017450D01*
X012167D01*
X012154D01*
X012141Y017437D01*
Y017399D01*
X012192Y017513D02*
Y017488D01*
X012179Y017475D01*
X012154D01*
X012141Y017488D01*
Y017513D01*
X012154Y017526D01*
X012167D01*
Y017475D01*
X012141Y017551D02*
X012192D01*
X012167D01*
X012154Y017564D01*
X012141Y017577D01*
Y017589D01*
X011813Y016739D02*
X011798Y016753D01*
Y016783D01*
X011813Y016798D01*
X011828D01*
X011843Y016783D01*
X011858Y016798D01*
X011872D01*
X011887Y016783D01*
Y016753D01*
X011872Y016739D01*
X011858D01*
X011843Y016753D01*
X011828Y016739D01*
X011813D01*
X011843Y016753D02*
Y016783D01*
X011811Y017560D02*
Y017501D01*
X011855D01*
X011841Y017530D01*
Y017545D01*
X011855Y017560D01*
X011885D01*
X011900Y017545D01*
Y017515D01*
X011885Y017501D01*
X012649Y014694D02*
Y014724D01*
Y014709D01*
X012560D01*
X012575Y014694D01*
X012649Y015005D02*
Y014946D01*
X012590Y015005D01*
X012575D01*
X012560Y014990D01*
Y014961D01*
X012575Y014946D01*
Y015212D02*
X012560Y015227D01*
Y015257D01*
X012575Y015272D01*
X012590D01*
X012605Y015257D01*
Y015242D01*
Y015257D01*
X012620Y015272D01*
X012634D01*
X012649Y015257D01*
Y015227D01*
X012634Y015212D01*
X012649Y015523D02*
X012560D01*
X012605Y015479D01*
Y015538D01*
X012116Y014694D02*
Y014668D01*
X012129Y014656D01*
X012179D01*
X012192Y014668D01*
Y014694D01*
X012179Y014707D01*
X012129D01*
X012116Y014694D01*
X012217Y014732D02*
X012141D01*
Y014770D01*
X012154Y014783D01*
X012179D01*
X012192Y014770D01*
Y014732D01*
X012129Y014821D02*
X012141D01*
Y014808D01*
Y014834D01*
Y014821D01*
X012179D01*
X012192Y014834D01*
Y014872D02*
Y014897D01*
Y014884D01*
X012141D01*
Y014872D01*
Y014986D02*
Y014948D01*
X012154Y014935D01*
X012179D01*
X012192Y014948D01*
Y014986D01*
X012141Y015024D02*
Y015049D01*
X012154Y015062D01*
X012192D01*
Y015024D01*
X012179Y015011D01*
X012167Y015024D01*
Y015062D01*
X012192Y015087D02*
Y015113D01*
Y015100D01*
X012116D01*
Y015087D01*
Y015278D02*
Y015227D01*
X012154D01*
Y015253D01*
Y015227D01*
X012192D01*
Y015303D02*
Y015329D01*
Y015316D01*
X012141D01*
Y015303D01*
X012116Y015367D02*
X012192D01*
Y015405D01*
X012179Y015418D01*
X012167D01*
X012154D01*
X012141Y015405D01*
Y015367D01*
X012192Y015481D02*
Y015456D01*
X012179Y015443D01*
X012154D01*
X012141Y015456D01*
Y015481D01*
X012154Y015494D01*
X012167D01*
Y015443D01*
X012141Y015519D02*
X012192D01*
X012167D01*
X012154Y015532D01*
X012141Y015545D01*
Y015557D01*
X011813Y014707D02*
X011798Y014721D01*
Y014751D01*
X011813Y014766D01*
X011828D01*
X011843Y014751D01*
X011858Y014766D01*
X011872D01*
X011887Y014751D01*
Y014721D01*
X011872Y014707D01*
X011858D01*
X011843Y014721D01*
X011828Y014707D01*
X011813D01*
X011843Y014721D02*
Y014751D01*
X011811Y015528D02*
Y015469D01*
X011855D01*
X011841Y015498D01*
Y015513D01*
X011855Y015528D01*
X011885D01*
X011900Y015513D01*
Y015483D01*
X011885Y015469D01*
X012649Y013678D02*
Y013708D01*
Y013693D01*
X012560D01*
X012575Y013678D01*
X012649Y013989D02*
Y013930D01*
X012590Y013989D01*
X012575D01*
X012560Y013974D01*
Y013945D01*
X012575Y013930D01*
Y014196D02*
X012560Y014211D01*
Y014241D01*
X012575Y014256D01*
X012590D01*
X012605Y014241D01*
Y014226D01*
Y014241D01*
X012620Y014256D01*
X012634D01*
X012649Y014241D01*
Y014211D01*
X012634Y014196D01*
X012649Y014507D02*
X012560D01*
X012605Y014463D01*
Y014522D01*
X012116Y013678D02*
Y013652D01*
X012129Y013640D01*
X012179D01*
X012192Y013652D01*
Y013678D01*
X012179Y013691D01*
X012129D01*
X012116Y013678D01*
X012217Y013716D02*
X012141D01*
Y013754D01*
X012154Y013767D01*
X012179D01*
X012192Y013754D01*
Y013716D01*
X012129Y013805D02*
X012141D01*
Y013792D01*
Y013818D01*
Y013805D01*
X012179D01*
X012192Y013818D01*
Y013856D02*
Y013881D01*
Y013868D01*
X012141D01*
Y013856D01*
Y013970D02*
Y013932D01*
X012154Y013919D01*
X012179D01*
X012192Y013932D01*
Y013970D01*
X012141Y014008D02*
Y014033D01*
X012154Y014046D01*
X012192D01*
Y014008D01*
X012179Y013995D01*
X012167Y014008D01*
Y014046D01*
X012192Y014071D02*
Y014097D01*
Y014084D01*
X012116D01*
Y014071D01*
Y014262D02*
Y014211D01*
X012154D01*
Y014237D01*
Y014211D01*
X012192D01*
Y014287D02*
Y014313D01*
Y014300D01*
X012141D01*
Y014287D01*
X012116Y014351D02*
X012192D01*
Y014389D01*
X012179Y014402D01*
X012167D01*
X012154D01*
X012141Y014389D01*
Y014351D01*
X012192Y014465D02*
Y014440D01*
X012179Y014427D01*
X012154D01*
X012141Y014440D01*
Y014465D01*
X012154Y014478D01*
X012167D01*
Y014427D01*
X012141Y014503D02*
X012192D01*
X012167D01*
X012154Y014516D01*
X012141Y014529D01*
Y014541D01*
X011813Y013691D02*
X011798Y013705D01*
Y013735D01*
X011813Y013750D01*
X011828D01*
X011843Y013735D01*
X011858Y013750D01*
X011872D01*
X011887Y013735D01*
Y013705D01*
X011872Y013691D01*
X011858D01*
X011843Y013705D01*
X011828Y013691D01*
X011813D01*
X011843Y013705D02*
Y013735D01*
X011811Y014512D02*
Y014453D01*
X011855D01*
X011841Y014482D01*
Y014497D01*
X011855Y014512D01*
X011885D01*
X011900Y014497D01*
Y014467D01*
X011885Y014453D01*
X012649Y015710D02*
Y015740D01*
Y015725D01*
X012560D01*
X012575Y015710D01*
X012649Y016021D02*
Y015962D01*
X012590Y016021D01*
X012575D01*
X012560Y016006D01*
Y015977D01*
X012575Y015962D01*
Y016228D02*
X012560Y016243D01*
Y016273D01*
X012575Y016288D01*
X012590D01*
X012605Y016273D01*
Y016258D01*
Y016273D01*
X012620Y016288D01*
X012634D01*
X012649Y016273D01*
Y016243D01*
X012634Y016228D01*
X012649Y016539D02*
X012560D01*
X012605Y016495D01*
Y016554D01*
X012116Y015710D02*
Y015684D01*
X012129Y015672D01*
X012179D01*
X012192Y015684D01*
Y015710D01*
X012179Y015723D01*
X012129D01*
X012116Y015710D01*
X012217Y015748D02*
X012141D01*
Y015786D01*
X012154Y015799D01*
X012179D01*
X012192Y015786D01*
Y015748D01*
X012129Y015837D02*
X012141D01*
Y015824D01*
Y015850D01*
Y015837D01*
X012179D01*
X012192Y015850D01*
Y015888D02*
Y015913D01*
Y015900D01*
X012141D01*
Y015888D01*
Y016002D02*
Y015964D01*
X012154Y015951D01*
X012179D01*
X012192Y015964D01*
Y016002D01*
X012141Y016040D02*
Y016065D01*
X012154Y016078D01*
X012192D01*
Y016040D01*
X012179Y016027D01*
X012167Y016040D01*
Y016078D01*
X012192Y016103D02*
Y016129D01*
Y016116D01*
X012116D01*
Y016103D01*
Y016294D02*
Y016243D01*
X012154D01*
Y016269D01*
Y016243D01*
X012192D01*
Y016319D02*
Y016345D01*
Y016332D01*
X012141D01*
Y016319D01*
X012116Y016383D02*
X012192D01*
Y016421D01*
X012179Y016434D01*
X012167D01*
X012154D01*
X012141Y016421D01*
Y016383D01*
X012192Y016497D02*
Y016472D01*
X012179Y016459D01*
X012154D01*
X012141Y016472D01*
Y016497D01*
X012154Y016510D01*
X012167D01*
Y016459D01*
X012141Y016535D02*
X012192D01*
X012167D01*
X012154Y016548D01*
X012141Y016561D01*
Y016573D01*
X011813Y015723D02*
X011798Y015737D01*
Y015767D01*
X011813Y015782D01*
X011828D01*
X011843Y015767D01*
X011858Y015782D01*
X011872D01*
X011887Y015767D01*
Y015737D01*
X011872Y015723D01*
X011858D01*
X011843Y015737D01*
X011828Y015723D01*
X011813D01*
X011843Y015737D02*
Y015767D01*
X011811Y016544D02*
Y016485D01*
X011855D01*
X011841Y016514D01*
Y016529D01*
X011855Y016544D01*
X011885D01*
X011900Y016529D01*
Y016499D01*
X011885Y016485D01*
X012649Y012662D02*
Y012692D01*
Y012677D01*
X012560D01*
X012575Y012662D01*
X012649Y012973D02*
Y012914D01*
X012590Y012973D01*
X012575D01*
X012560Y012958D01*
Y012929D01*
X012575Y012914D01*
Y013180D02*
X012560Y013195D01*
Y013225D01*
X012575Y013240D01*
X012590D01*
X012605Y013225D01*
Y013210D01*
Y013225D01*
X012620Y013240D01*
X012634D01*
X012649Y013225D01*
Y013195D01*
X012634Y013180D01*
X012649Y013491D02*
X012560D01*
X012605Y013447D01*
Y013506D01*
X012116Y012662D02*
Y012636D01*
X012129Y012624D01*
X012179D01*
X012192Y012636D01*
Y012662D01*
X012179Y012675D01*
X012129D01*
X012116Y012662D01*
X012217Y012700D02*
X012141D01*
Y012738D01*
X012154Y012751D01*
X012179D01*
X012192Y012738D01*
Y012700D01*
X012129Y012789D02*
X012141D01*
Y012776D01*
Y012802D01*
Y012789D01*
X012179D01*
X012192Y012802D01*
Y012840D02*
Y012865D01*
Y012852D01*
X012141D01*
Y012840D01*
Y012954D02*
Y012916D01*
X012154Y012903D01*
X012179D01*
X012192Y012916D01*
Y012954D01*
X012141Y012992D02*
Y013017D01*
X012154Y013030D01*
X012192D01*
Y012992D01*
X012179Y012979D01*
X012167Y012992D01*
Y013030D01*
X012192Y013055D02*
Y013081D01*
Y013068D01*
X012116D01*
Y013055D01*
Y013246D02*
Y013195D01*
X012154D01*
Y013221D01*
Y013195D01*
X012192D01*
Y013271D02*
Y013297D01*
Y013284D01*
X012141D01*
Y013271D01*
X012116Y013335D02*
X012192D01*
Y013373D01*
X012179Y013386D01*
X012167D01*
X012154D01*
X012141Y013373D01*
Y013335D01*
X012192Y013449D02*
Y013424D01*
X012179Y013411D01*
X012154D01*
X012141Y013424D01*
Y013449D01*
X012154Y013462D01*
X012167D01*
Y013411D01*
X012141Y013487D02*
X012192D01*
X012167D01*
X012154Y013500D01*
X012141Y013513D01*
Y013525D01*
X011813Y012675D02*
X011798Y012689D01*
Y012719D01*
X011813Y012734D01*
X011828D01*
X011843Y012719D01*
X011858Y012734D01*
X011872D01*
X011887Y012719D01*
Y012689D01*
X011872Y012675D01*
X011858D01*
X011843Y012689D01*
X011828Y012675D01*
X011813D01*
X011843Y012689D02*
Y012719D01*
X011811Y013496D02*
Y013437D01*
X011855D01*
X011841Y013466D01*
Y013481D01*
X011855Y013496D01*
X011885D01*
X011900Y013481D01*
Y013451D01*
X011885Y013437D01*
X012649Y011646D02*
Y011676D01*
Y011661D01*
X012560D01*
X012575Y011646D01*
X012649Y011957D02*
Y011898D01*
X012590Y011957D01*
X012575D01*
X012560Y011942D01*
Y011913D01*
X012575Y011898D01*
Y012164D02*
X012560Y012179D01*
Y012209D01*
X012575Y012224D01*
X012590D01*
X012605Y012209D01*
Y012194D01*
Y012209D01*
X012620Y012224D01*
X012634D01*
X012649Y012209D01*
Y012179D01*
X012634Y012164D01*
X012649Y012475D02*
X012560D01*
X012605Y012431D01*
Y012490D01*
X012116Y011646D02*
Y011620D01*
X012129Y011608D01*
X012179D01*
X012192Y011620D01*
Y011646D01*
X012179Y011659D01*
X012129D01*
X012116Y011646D01*
X012217Y011684D02*
X012141D01*
Y011722D01*
X012154Y011735D01*
X012179D01*
X012192Y011722D01*
Y011684D01*
X012129Y011773D02*
X012141D01*
Y011760D01*
Y011786D01*
Y011773D01*
X012179D01*
X012192Y011786D01*
Y011824D02*
Y011849D01*
Y011836D01*
X012141D01*
Y011824D01*
Y011938D02*
Y011900D01*
X012154Y011887D01*
X012179D01*
X012192Y011900D01*
Y011938D01*
X012141Y011976D02*
Y012001D01*
X012154Y012014D01*
X012192D01*
Y011976D01*
X012179Y011963D01*
X012167Y011976D01*
Y012014D01*
X012192Y012039D02*
Y012065D01*
Y012052D01*
X012116D01*
Y012039D01*
Y012230D02*
Y012179D01*
X012154D01*
Y012205D01*
Y012179D01*
X012192D01*
Y012255D02*
Y012281D01*
Y012268D01*
X012141D01*
Y012255D01*
X012116Y012319D02*
X012192D01*
Y012357D01*
X012179Y012370D01*
X012167D01*
X012154D01*
X012141Y012357D01*
Y012319D01*
X012192Y012433D02*
Y012408D01*
X012179Y012395D01*
X012154D01*
X012141Y012408D01*
Y012433D01*
X012154Y012446D01*
X012167D01*
Y012395D01*
X012141Y012471D02*
X012192D01*
X012167D01*
X012154Y012484D01*
X012141Y012497D01*
Y012509D01*
X011813Y011659D02*
X011798Y011673D01*
Y011703D01*
X011813Y011718D01*
X011828D01*
X011843Y011703D01*
X011858Y011718D01*
X011872D01*
X011887Y011703D01*
Y011673D01*
X011872Y011659D01*
X011858D01*
X011843Y011673D01*
X011828Y011659D01*
X011813D01*
X011843Y011673D02*
Y011703D01*
X011811Y012480D02*
Y012421D01*
X011855D01*
X011841Y012450D01*
Y012465D01*
X011855Y012480D01*
X011885D01*
X011900Y012465D01*
Y012435D01*
X011885Y012421D01*
X013310Y010528D02*
X013259D01*
X013233Y010554D01*
X013259Y010579D01*
X013310D01*
X013272D01*
Y010528D01*
X013233Y010604D02*
X013310D01*
Y010643D01*
X013297Y010655D01*
X013246D01*
X013233Y010643D01*
Y010604D01*
X013246Y010681D02*
X013233Y010693D01*
Y010719D01*
X013246Y010731D01*
X013259D01*
X013272Y010719D01*
X013284Y010731D01*
X013297D01*
X013310Y010719D01*
Y010693D01*
X013297Y010681D01*
X013284D01*
X013272Y010693D01*
X013259Y010681D01*
X013246D01*
X013272Y010693D02*
Y010719D01*
X013246Y010757D02*
X013233Y010770D01*
Y010795D01*
X013246Y010808D01*
X013297D01*
X013310Y010795D01*
Y010770D01*
X013297Y010757D01*
X013246D01*
Y010833D02*
X013233Y010846D01*
Y010871D01*
X013246Y010884D01*
X013259D01*
X013272Y010871D01*
Y010858D01*
Y010871D01*
X013284Y010884D01*
X013297D01*
X013310Y010871D01*
Y010846D01*
X013297Y010833D01*
X013310Y010960D02*
Y010909D01*
X013259Y010960D01*
X013246D01*
X013233Y010947D01*
Y010922D01*
X013246Y010909D01*
X013310Y010985D02*
X013259D01*
X013233Y011011D01*
X013259Y011036D01*
X013310D01*
X013272D01*
Y010985D01*
X007292Y013509D02*
X007302Y013519D01*
Y013540D01*
X007292Y013551D01*
X007281D01*
X007271Y013540D01*
Y013519D01*
X007260Y013509D01*
X007250D01*
X007239Y013519D01*
Y013540D01*
X007250Y013551D01*
X007239Y013487D02*
X007302D01*
X007239Y013445D01*
X007302D01*
Y013424D02*
Y013382D01*
X007292D01*
X007250Y013424D01*
X007239D01*
Y013329D02*
X007302D01*
X007271Y013360D01*
Y013318D01*
X007302Y013297D02*
X007239D01*
X007271D01*
Y013255D01*
X007302D01*
X007239D01*
X007292Y013191D02*
X007302Y013202D01*
Y013223D01*
X007292Y013234D01*
X007250D01*
X007239Y013223D01*
Y013202D01*
X007250Y013191D01*
X007292Y013170D02*
X007302Y013159D01*
Y013138D01*
X007292Y013128D01*
X007250D01*
X007239Y013138D01*
Y013159D01*
X007250Y013170D01*
X007292D01*
X007239Y013075D02*
X007302D01*
X007271Y013107D01*
Y013064D01*
X007239Y013043D02*
X007302D01*
X007239Y013001D01*
X007302D01*
Y012916D02*
X007239D01*
X007271D01*
Y012874D01*
X007302D01*
X007239D01*
Y012821D02*
Y012842D01*
X007250Y012853D01*
X007271D01*
X007281Y012842D01*
Y012821D01*
X007271Y012810D01*
X007260D01*
Y012853D01*
X007281Y012789D02*
X007239Y012747D01*
X007260Y012768D01*
X007281Y012747D01*
X007239Y012789D01*
X007302Y012662D02*
Y012641D01*
Y012652D01*
X007239D01*
Y012662D01*
Y012641D01*
Y012609D02*
X007281D01*
Y012578D01*
X007271Y012567D01*
X007239D01*
X007281Y012546D02*
X007239Y012525D01*
X007281Y012503D01*
X007239Y012451D02*
Y012472D01*
X007250Y012482D01*
X007271D01*
X007281Y012472D01*
Y012451D01*
X007271Y012440D01*
X007260D01*
Y012482D01*
X007281Y012419D02*
X007239D01*
X007260D01*
X007271Y012408D01*
X007281Y012398D01*
Y012387D01*
X007292Y012345D02*
X007281D01*
Y012355D01*
Y012334D01*
Y012345D01*
X007250D01*
X007239Y012334D01*
Y012271D02*
Y012292D01*
X007250Y012302D01*
X007271D01*
X007281Y012292D01*
Y012271D01*
X007271Y012260D01*
X007260D01*
Y012302D01*
X007281Y012239D02*
X007239D01*
X007260D01*
X007271Y012228D01*
X007281Y012218D01*
Y012207D01*
X007455Y013805D02*
X007391D01*
Y013773D01*
X007402Y013763D01*
X007413D01*
X007423Y013773D01*
Y013805D01*
Y013773D01*
X007434Y013763D01*
X007444D01*
X007455Y013773D01*
Y013805D01*
X007434Y013741D02*
X007402D01*
X007391Y013731D01*
Y013699D01*
X007434D01*
X007391Y013667D02*
X007444D01*
X007423D01*
Y013678D01*
Y013657D01*
Y013667D01*
X007444D01*
X007455Y013657D01*
X007391Y013614D02*
X007444D01*
X007423D01*
Y013625D01*
Y013604D01*
Y013614D01*
X007444D01*
X007455Y013604D01*
X007391Y013540D02*
Y013562D01*
X007402Y013572D01*
X007423D01*
X007434Y013562D01*
Y013540D01*
X007423Y013530D01*
X007413D01*
Y013572D01*
X007434Y013509D02*
X007391D01*
X007413D01*
X007423Y013498D01*
X007434Y013488D01*
Y013477D01*
D72*
X021845Y013517D02*
X021820Y013492D01*
Y013442D01*
X021845Y013418D01*
X021945D01*
X021970Y013442D01*
Y013492D01*
X021945Y013517D01*
X021820Y013642D02*
Y013592D01*
X021845Y013567D01*
X021945D01*
X021970Y013592D01*
Y013642D01*
X021945Y013667D01*
X021845D01*
X021820Y013642D01*
X021970Y013717D02*
X021820D01*
X021970Y013817D01*
X021820D01*
Y013867D02*
X021920D01*
X021970Y013917D01*
X021920Y013967D01*
X021820D01*
X021970Y014167D02*
X021870D01*
X021820Y014217D01*
X021870Y014267D01*
X021970D01*
X021895D01*
Y014167D01*
X021845Y014417D02*
X021820Y014392D01*
Y014342D01*
X021845Y014317D01*
X021945D01*
X021970Y014342D01*
Y014392D01*
X021945Y014417D01*
X021970Y014467D02*
X021870Y014567D01*
X021820Y014617D02*
X021970D01*
Y014692D01*
X021945Y014717D01*
X021845D01*
X021820Y014692D01*
Y014617D01*
X021845Y014867D02*
X021820Y014842D01*
Y014792D01*
X021845Y014767D01*
X021945D01*
X021970Y014792D01*
Y014842D01*
X021945Y014867D01*
X021970Y015067D02*
Y015117D01*
Y015092D01*
X021820D01*
X021845Y015067D01*
X021820Y015192D02*
X021970D01*
X021920Y015242D01*
X021970Y015292D01*
X021820D01*
Y015592D02*
Y015492D01*
X021895D01*
X021870Y015542D01*
Y015567D01*
X021895Y015592D01*
X021945D01*
X021970Y015567D01*
Y015517D01*
X021945Y015492D01*
X021820Y015642D02*
X021920D01*
X021970Y015692D01*
X021920Y015742D01*
X021820D01*
D73*
X014618Y007061D02*
X014389D01*
Y006909D01*
X014618Y006833D02*
X014465D01*
X014389Y006756D01*
X014465Y006680D01*
X014618D01*
X014389Y006452D02*
Y006604D01*
X014541Y006452D01*
X014580D01*
X014618Y006490D01*
Y006566D01*
X014580Y006604D01*
Y006376D02*
X014618Y006338D01*
Y006261D01*
X014580Y006223D01*
X014427D01*
X014389Y006261D01*
Y006338D01*
X014427Y006376D01*
X014580D01*
X014389Y006147D02*
X014618D01*
Y006033D01*
X014580Y005995D01*
X014503D01*
X014465Y006033D01*
Y006147D01*
X021323Y007112D02*
X021095D01*
Y006960D01*
X021323Y006883D02*
X021171D01*
X021095Y006807D01*
X021171Y006731D01*
X021323D01*
X021095Y006503D02*
Y006655D01*
X021247Y006503D01*
X021285D01*
X021323Y006541D01*
Y006617D01*
X021285Y006655D01*
Y006426D02*
X021323Y006388D01*
Y006312D01*
X021285Y006274D01*
X021133D01*
X021095Y006312D01*
Y006388D01*
X021133Y006426D01*
X021285D01*
X021095Y006198D02*
X021323D01*
Y006084D01*
X021285Y006046D01*
X021209D01*
X021171Y006084D01*
Y006198D01*
X025222Y007163D02*
X024994D01*
Y007010D01*
X025222Y006934D02*
X025070D01*
X024994Y006858D01*
X025070Y006782D01*
X025222D01*
X024994Y006553D02*
Y006706D01*
X025146Y006553D01*
X025184D01*
X025222Y006591D01*
Y006668D01*
X025184Y006706D01*
Y006477D02*
X025222Y006439D01*
Y006363D01*
X025184Y006325D01*
X025032D01*
X024994Y006363D01*
Y006439D01*
X025032Y006477D01*
X025184D01*
X024994Y006249D02*
X025222D01*
Y006134D01*
X025184Y006096D01*
X025108D01*
X025070Y006134D01*
Y006249D01*
X028156Y007366D02*
X027927D01*
Y007214D01*
Y007137D02*
X028080D01*
X028156Y007061D01*
X028080Y006985D01*
X027927D01*
X028042D01*
Y007137D01*
X027927Y006909D02*
Y006833D01*
Y006871D01*
X028156D01*
X028118Y006909D01*
Y006719D02*
X028156Y006680D01*
Y006604D01*
X028118Y006566D01*
X027965D01*
X027927Y006604D01*
Y006680D01*
X027965Y006719D01*
X028118D01*
Y006490D02*
X028156Y006452D01*
Y006376D01*
X028118Y006338D01*
X027965D01*
X027927Y006376D01*
Y006452D01*
X027965Y006490D01*
X028118D01*
X027927Y006261D02*
X028156D01*
Y006147D01*
X028118Y006109D01*
X028042D01*
X028003Y006147D01*
Y006261D01*
X008255Y006617D02*
X008484D01*
Y006769D01*
Y006845D02*
X008331D01*
X008255Y006921D01*
X008331Y006998D01*
X008484D01*
X008369D01*
Y006845D01*
X008484Y007074D02*
Y007150D01*
Y007112D01*
X008255D01*
X008293Y007074D01*
Y007264D02*
X008255Y007302D01*
Y007378D01*
X008293Y007417D01*
X008446D01*
X008484Y007378D01*
Y007302D01*
X008446Y007264D01*
X008293D01*
Y007493D02*
X008255Y007531D01*
Y007607D01*
X008293Y007645D01*
X008446D01*
X008484Y007607D01*
Y007531D01*
X008446Y007493D01*
X008293D01*
X008484Y007721D02*
X008255D01*
Y007836D01*
X008293Y007874D01*
X008369D01*
X008407Y007836D01*
Y007721D01*
M02*
