M48
;Layer_Color=9474304
;FILE_FORMAT=2:3
INCH,LZ
;TYPE=PLATED
T1F00S00C0.024
T2F00S00C0.028
T3F00S00C0.030
T4F00S00C0.031
T5F00S00C0.033
T7F00S00C0.035
T8F00S00C0.039
T10F00S00C0.045
T12F00S00C0.053
T13F00S00C0.069
;TYPE=NON_PLATED
T14F00S00C0.157
%
T01
X0283Y03655
X03027
Y03875
X0283
Y04095
X03027
Y04315
X0283
Y04535
X03027
X06693Y05394
Y05591
X06969
Y05394
X07244
Y05591
X0752
Y05394
X07795
Y05591
X05515Y06775
T02
X03741Y0415
Y0425
Y0435
Y0445
X04135
Y0435
Y0425
Y0415
X04426Y0407
Y0397
Y0387
Y0377
X0482
Y0387
Y0397
Y0407
X05091Y0415
Y0425
Y0435
Y0445
X0502Y046
X0472
X05485Y0445
Y0435
Y0425
Y0415
X05751
Y0425
Y0435
Y0445
X06145
Y0435
Y0425
Y0415
X08188Y05237
X08788
X0638Y0565
X0628
Y0595
X0638
X0618
X0608
X0598
X0588
X0578
X0568
Y0565
X0578
X0588
X0598
X0608
X0618
X0502Y057
Y058
Y059
Y06
Y061
Y062
X0472
Y061
Y058
Y057
Y054
Y053
X0502
Y054
Y055
Y056
Y052
Y051
Y05
Y049
Y048
Y047
X0472Y049
Y05
X03045Y0503
Y0493
Y0483
Y0513
Y0523
Y0533
Y0543
X02745
Y0533
Y0523
Y0513
Y0503
Y0493
Y0483
X0251Y048
Y049
Y05
Y051
Y052
Y053
Y054
Y055
Y056
Y057
Y058
Y059
Y06
Y061
Y062
X0274Y06175
Y06075
X0304
Y06175
X0221Y06
Y059
Y056
Y055
Y052
Y051
Y048
Y063
Y064
X0251
Y065
Y066
Y067
Y068
Y069
Y07
Y071
X0221
X02225Y0737
X02325
X02425
X02925
X03025
X0304Y06675
Y06575
Y06475
Y06375
Y06275
X0274
Y06375
Y06475
Y06575
Y06675
X0221Y067
Y068
X0251Y063
X03125Y0737
X03225
X03585
X03685
X03785
X04285
X04385
X04485
X04585
X0472Y069
X0502
Y068
Y067
Y066
Y065
Y064
Y063
X0472Y065
Y066
X05515Y06875
Y06975
Y07075
Y07575
Y07675
Y07775
X0665Y0776
Y0766
Y0756
Y0706
Y0696
Y0686
Y0676
X0741
Y0686
Y0696
Y0706
Y0756
Y0766
Y0776
X0854Y0774
Y0764
Y0754
Y0704
Y0694
Y0684
Y0674
X08488Y0634
X08188
X081Y0798
X08
X079
Y08413
X08
X081
X078
X0758
X0748
X0738
X0728
Y0798
X0738
X0748
X0758
X078
X0651Y08
X0641
X0631
Y08433
X0641
X0651
X0621
Y08
X0476Y0806
Y08493
X0466
X0456
X0446
Y0806
X0456
X0466
X03655Y0796
X03555
X03455
X03355
Y08393
X03455
X03555
X03655
X03095Y08398
X02995
X02895
X02795
Y07965
X02895
X02995
X03095
T03
X06985Y02255
Y02452
X07082Y02915
X06885
X03795Y02817
Y0262
X03882Y0324
X03685
X09815Y0357
X10012
X0991Y04188
Y04385
X09997Y0481
X098
X03205Y07585
Y07782
X04943Y0776
X0514
X0597Y0687
X06167
X0758Y0643
X07777
X0787Y0684
X08067
X1047Y08868
Y09065
X08722Y08615
X08525
X08705Y08155
X08902
X07037Y081
X0684
X06862Y0862
X06665
X06047Y0861
X0585
X05542Y0862
X05345
X05202Y0826
X05005
X04162Y0815
X03965
X03993Y0896
X0419
X0267Y08605
X02473
X0242Y0819
X02223
T04
X02452Y0365
X02648
Y03874
X02452
Y04097
X02648
Y04321
X02452
Y04545
X02648
X04517Y04235
X0423Y03903
X0423Y03707
X04713Y04235
X05655Y03968
X05655Y03772
X05565Y04787
Y04983
X06245
Y04787
X03153Y0563
X02957
X0274Y05702
X0274Y05898
X02777Y06915
X02973
T05
X07415Y02375
X07612
Y02915
X07415
X0424Y02835
Y02638
X04153Y03195
X0435
X04455Y0334
X04642
Y0364
X04455
X0403Y03635
X03888
X03755
X0348Y03655
Y03878
Y041
Y04323
Y04545
X0318
Y04323
Y041
Y03878
Y03655
X03755Y03935
X03888
X0403
X05095Y03945
X05245
Y03645
X05095
X0484Y0364
Y0334
X05935Y03645
X06062
X062Y0365
Y0395
X06062Y03945
X05935
X0981Y03915
X10007
X10027Y03255
X0983
X1062Y04965
X10817
X07795Y0585
X07525
X0725
X0697
X067
Y0615
X0697
X0725
X07525
X07795
X06325Y06095
X0636Y05485
Y05185
X06233
X06106
X05979
X05852
X05725
X058Y04985
Y048
X061
Y04985
X06106Y05485
X06233
X05979
X05852
X05725
X0569Y06095
X05817
X0594
X06071
X06198
X03427Y07105
X0323
X06138Y07255
X06198Y06395
X06071
X0594
X05817
X0569
X06325
X07028Y06365
X07225
X06335Y07255
X08028Y07245
X08225
X1084Y08833
Y0903
X08985Y08755
Y08455
X08467Y0812
X0827
X0816Y09025
X0786
X0719Y08732
Y08535
X06269Y08574
X06481Y08786
X0569Y0826
X05493
X04705Y08645
X04785Y08978
X04485
X04508Y08645
X03552Y086
X03355
X0333Y08815
X0363
X02419Y08864
X02185Y08707
Y0851
X02631Y09076
T07
X0222Y02495
Y02595
Y02695
Y02795
Y02895
Y02995
Y03095
Y03195
Y03295
Y03395
Y03705
Y03805
Y03905
Y04005
Y04105
Y04205
Y04305
Y04405
Y04505
Y04605
T08
X0793Y0858
X08174
X08079Y08765
X07835
X0744Y08839
Y08595
X07559Y09035
X07315
X0562Y0904
X05376
X05199
X04955
X05626Y0805
X0587
X0603Y08045
Y08289
X042Y0847
X03956
X0402Y0864
X03776
X03095Y08531
X02925
Y08775
X03095
T10
X11655Y029
Y03097
X1065Y02152
X0911Y02165
X06545Y0211
Y0311
X04602Y0211
X04405
X04087
X0389
X02722
X02525
X06541Y03451
Y04629
X0911Y03165
X09391Y03451
Y03743
Y04038
Y04333
Y04625
X1065Y03215
X11655Y03473
Y0367
Y04047
Y04244
Y0462
Y04817
X1131Y0907
X11113
X09935
X09738
X09425
X09228
X06585
X06388
X06075
X05878
X03575
X03378
X0306
X02863
T12
X11515Y05287
X09315
X11515Y08487
X10415
X09315
T13
X10339Y03705
X10619
Y04175
X10339
Y04655
X10619
X10965
X11245
Y04175
X10965
Y03705
X11245
T14
X11625Y02205
X02215
X11625Y08975
X02215
M30
