%FSTAX23Y23*%
%MOIN*%
%SFA1B1*%

%IPPOS*%
%ADD9500C,0.024000*%
%ADD9501C,0.028000*%
%ADD9502C,0.030000*%
%ADD9503C,0.031000*%
%ADD9504C,0.033000*%
%ADD9505C,0.035000*%
%ADD9506C,0.039000*%
%ADD9507C,0.045000*%
%ADD9508C,0.053000*%
%ADD9509C,0.069000*%
%ADD9510C,0.157000*%
%LNsmart_charger_pcb-roundholes-1*%
%LPD*%
G54D9500*
X0283Y03655D03*
X03027D03*
Y03875D03*
X0283D03*
Y04095D03*
X03027D03*
Y04315D03*
X0283D03*
Y04535D03*
X03027D03*
X06693Y05394D03*
Y05591D03*
X06969D03*
Y05394D03*
X07244D03*
Y05591D03*
X0752D03*
Y05394D03*
X07795D03*
Y05591D03*
X05515Y06775D03*
G54D9501*
X03741Y0415D03*
Y0425D03*
Y0435D03*
Y0445D03*
X04135D03*
Y0435D03*
Y0425D03*
Y0415D03*
X04426Y0407D03*
Y0397D03*
Y0387D03*
Y0377D03*
X0482D03*
Y0387D03*
Y0397D03*
Y0407D03*
X05091Y0415D03*
Y0425D03*
Y0435D03*
Y0445D03*
X0502Y046D03*
X0472D03*
X05485Y0445D03*
Y0435D03*
Y0425D03*
Y0415D03*
X05751D03*
Y0425D03*
Y0435D03*
Y0445D03*
X06145D03*
Y0435D03*
Y0425D03*
Y0415D03*
X08188Y05237D03*
X08788D03*
X0638Y0565D03*
X0628D03*
Y0595D03*
X0638D03*
X0618D03*
X0608D03*
X0598D03*
X0588D03*
X0578D03*
X0568D03*
Y0565D03*
X0578D03*
X0588D03*
X0598D03*
X0608D03*
X0618D03*
X0502Y057D03*
Y058D03*
Y059D03*
Y06D03*
Y061D03*
Y062D03*
X0472D03*
Y061D03*
Y058D03*
Y057D03*
Y054D03*
Y053D03*
X0502D03*
Y054D03*
Y055D03*
Y056D03*
Y052D03*
Y051D03*
Y05D03*
Y049D03*
Y048D03*
Y047D03*
X0472Y049D03*
Y05D03*
X03045Y0503D03*
Y0493D03*
Y0483D03*
Y0513D03*
Y0523D03*
Y0533D03*
Y0543D03*
X02745D03*
Y0533D03*
Y0523D03*
Y0513D03*
Y0503D03*
Y0493D03*
Y0483D03*
X0251Y048D03*
Y049D03*
Y05D03*
Y051D03*
Y052D03*
Y053D03*
Y054D03*
Y055D03*
Y056D03*
Y057D03*
Y058D03*
Y059D03*
Y06D03*
Y061D03*
Y062D03*
X0274Y06175D03*
Y06075D03*
X0304D03*
Y06175D03*
X0221Y06D03*
Y059D03*
Y056D03*
Y055D03*
Y052D03*
Y051D03*
Y048D03*
Y063D03*
Y064D03*
X0251D03*
Y065D03*
Y066D03*
Y067D03*
Y068D03*
Y069D03*
Y07D03*
Y071D03*
X0221D03*
X02225Y0737D03*
X02325D03*
X02425D03*
X02925D03*
X03025D03*
X0304Y06675D03*
Y06575D03*
Y06475D03*
Y06375D03*
Y06275D03*
X0274D03*
Y06375D03*
Y06475D03*
Y06575D03*
Y06675D03*
X0221Y067D03*
Y068D03*
X0251Y063D03*
X03125Y0737D03*
X03225D03*
X03585D03*
X03685D03*
X03785D03*
X04285D03*
X04385D03*
X04485D03*
X04585D03*
X0472Y069D03*
X0502D03*
Y068D03*
Y067D03*
Y066D03*
Y065D03*
Y064D03*
Y063D03*
X0472Y065D03*
Y066D03*
X05515Y06875D03*
Y06975D03*
Y07075D03*
Y07575D03*
Y07675D03*
Y07775D03*
X0665Y0776D03*
Y0766D03*
Y0756D03*
Y0706D03*
Y0696D03*
Y0686D03*
Y0676D03*
X0741D03*
Y0686D03*
Y0696D03*
Y0706D03*
Y0756D03*
Y0766D03*
Y0776D03*
X0854Y0774D03*
Y0764D03*
Y0754D03*
Y0704D03*
Y0694D03*
Y0684D03*
Y0674D03*
X08488Y0634D03*
X08188D03*
X081Y0798D03*
X08D03*
X079D03*
Y08413D03*
X08D03*
X081D03*
X078D03*
X0758D03*
X0748D03*
X0738D03*
X0728D03*
Y0798D03*
X0738D03*
X0748D03*
X0758D03*
X078D03*
X0651Y08D03*
X0641D03*
X0631D03*
Y08433D03*
X0641D03*
X0651D03*
X0621D03*
Y08D03*
X0476Y0806D03*
Y08493D03*
X0466D03*
X0456D03*
X0446D03*
Y0806D03*
X0456D03*
X0466D03*
X03655Y0796D03*
X03555D03*
X03455D03*
X03355D03*
Y08393D03*
X03455D03*
X03555D03*
X03655D03*
X03095Y08398D03*
X02995D03*
X02895D03*
X02795D03*
Y07965D03*
X02895D03*
X02995D03*
X03095D03*
G54D9502*
X06985Y02255D03*
Y02452D03*
X07082Y02915D03*
X06885D03*
X03795Y02817D03*
Y0262D03*
X03882Y0324D03*
X03685D03*
X09815Y0357D03*
X10012D03*
X0991Y04188D03*
Y04385D03*
X09997Y0481D03*
X098D03*
X03205Y07585D03*
Y07782D03*
X04943Y0776D03*
X0514D03*
X0597Y0687D03*
X06167D03*
X0758Y0643D03*
X07777D03*
X0787Y0684D03*
X08067D03*
X1047Y08868D03*
Y09065D03*
X08722Y08615D03*
X08525D03*
X08705Y08155D03*
X08902D03*
X07037Y081D03*
X0684D03*
X06862Y0862D03*
X06665D03*
X06047Y0861D03*
X0585D03*
X05542Y0862D03*
X05345D03*
X05202Y0826D03*
X05005D03*
X04162Y0815D03*
X03965D03*
X03993Y0896D03*
X0419D03*
X0267Y08605D03*
X02473D03*
X0242Y0819D03*
X02223D03*
G54D9503*
X02452Y0365D03*
X02648D03*
Y03874D03*
X02452D03*
Y04097D03*
X02648D03*
Y04321D03*
X02452D03*
Y04545D03*
X02648D03*
X04517Y04235D03*
X0423Y03903D03*
Y03707D03*
X04713Y04235D03*
X05655Y03968D03*
Y03772D03*
X05565Y04787D03*
Y04983D03*
X06245D03*
Y04787D03*
X03153Y0563D03*
X02957D03*
X0274Y05702D03*
Y05898D03*
X02777Y06915D03*
X02973D03*
G54D9504*
X07415Y02375D03*
X07612D03*
Y02915D03*
X07415D03*
X0424Y02835D03*
Y02638D03*
X04153Y03195D03*
X0435D03*
X04455Y0334D03*
X04642D03*
Y0364D03*
X04455D03*
X0403Y03635D03*
X03888D03*
X03755D03*
X0348Y03655D03*
Y03878D03*
Y041D03*
Y04323D03*
Y04545D03*
X0318D03*
Y04323D03*
Y041D03*
Y03878D03*
Y03655D03*
X03755Y03935D03*
X03888D03*
X0403D03*
X05095Y03945D03*
X05245D03*
Y03645D03*
X05095D03*
X0484Y0364D03*
Y0334D03*
X05935Y03645D03*
X06062D03*
X062Y0365D03*
Y0395D03*
X06062Y03945D03*
X05935D03*
X0981Y03915D03*
X10007D03*
X10027Y03255D03*
X0983D03*
X1062Y04965D03*
X10817D03*
X07795Y0585D03*
X07525D03*
X0725D03*
X0697D03*
X067D03*
Y0615D03*
X0697D03*
X0725D03*
X07525D03*
X07795D03*
X06325Y06095D03*
X0636Y05485D03*
Y05185D03*
X06233D03*
X06106D03*
X05979D03*
X05852D03*
X05725D03*
X058Y04985D03*
Y048D03*
X061D03*
Y04985D03*
X06106Y05485D03*
X06233D03*
X05979D03*
X05852D03*
X05725D03*
X0569Y06095D03*
X05817D03*
X0594D03*
X06071D03*
X06198D03*
X03427Y07105D03*
X0323D03*
X06138Y07255D03*
X06198Y06395D03*
X06071D03*
X0594D03*
X05817D03*
X0569D03*
X06325D03*
X07028Y06365D03*
X07225D03*
X06335Y07255D03*
X08028Y07245D03*
X08225D03*
X1084Y08833D03*
Y0903D03*
X08985Y08755D03*
Y08455D03*
X08467Y0812D03*
X0827D03*
X0816Y09025D03*
X0786D03*
X0719Y08732D03*
Y08535D03*
X06269Y08574D03*
X06481Y08786D03*
X0569Y0826D03*
X05493D03*
X04705Y08645D03*
X04785Y08978D03*
X04485D03*
X04508Y08645D03*
X03552Y086D03*
X03355D03*
X0333Y08815D03*
X0363D03*
X02419Y08864D03*
X02185Y08707D03*
Y0851D03*
X02631Y09076D03*
G54D9505*
X0222Y02495D03*
Y02595D03*
Y02695D03*
Y02795D03*
Y02895D03*
Y02995D03*
Y03095D03*
Y03195D03*
Y03295D03*
Y03395D03*
Y03705D03*
Y03805D03*
Y03905D03*
Y04005D03*
Y04105D03*
Y04205D03*
Y04305D03*
Y04405D03*
Y04505D03*
Y04605D03*
G54D9506*
X0793Y0858D03*
X08174D03*
X08079Y08765D03*
X07835D03*
X0744Y08839D03*
Y08595D03*
X07559Y09035D03*
X07315D03*
X0562Y0904D03*
X05376D03*
X05199D03*
X04955D03*
X05626Y0805D03*
X0587D03*
X0603Y08045D03*
Y08289D03*
X042Y0847D03*
X03956D03*
X0402Y0864D03*
X03776D03*
X03095Y08531D03*
X02925D03*
Y08775D03*
X03095D03*
G54D9507*
X11655Y029D03*
Y03097D03*
X1065Y02152D03*
X0911Y02165D03*
X06545Y0211D03*
Y0311D03*
X04602Y0211D03*
X04405D03*
X04087D03*
X0389D03*
X02722D03*
X02525D03*
X06541Y03451D03*
Y04629D03*
X0911Y03165D03*
X09391Y03451D03*
Y03743D03*
Y04038D03*
Y04333D03*
Y04625D03*
X1065Y03215D03*
X11655Y03473D03*
Y0367D03*
Y04047D03*
Y04244D03*
Y0462D03*
Y04817D03*
X1131Y0907D03*
X11113D03*
X09935D03*
X09738D03*
X09425D03*
X09228D03*
X06585D03*
X06388D03*
X06075D03*
X05878D03*
X03575D03*
X03378D03*
X0306D03*
X02863D03*
G54D9508*
X11515Y05287D03*
X09315D03*
X11515Y08487D03*
X10415D03*
X09315D03*
G54D9509*
X10339Y03705D03*
X10619D03*
Y04175D03*
X10339D03*
Y04655D03*
X10619D03*
X10965D03*
X11245D03*
Y04175D03*
X10965D03*
Y03705D03*
X11245D03*
G54D9510*
X11625Y02205D03*
X02215D03*
X11625Y08975D03*
X02215D03*
M02*